<svg id="Layer_1" data-name="Layer 1" xmlns="http://www.w3.org/2000/svg" viewBox="0 0 50 40"><defs><style>.cls-1{fill:#fff;}.cls-2{fill:#1a1a1a;}</style></defs><title>Free Estimates</title><rect class="cls-1" width="50" height="40"/><path class="cls-2" d="M10.51,10.25c-.36.94-.76,2.14-1.22,3.44.61-.08,1.24-.15,1.88-.18a1,1,0,0,1,1.05.59,6.39,6.39,0,0,1,.35,1.47c.08.56-.05.74-.63.84-1.23.23-2.6.51-3.82.82-.67,2-1.3,4-1.76,5.55-.18.56-.46.66-1,.51a5.23,5.23,0,0,1-1.58-.69c-.46-.33-.49-.69-.36-1.4A106.51,106.51,0,0,1,6.74,10.05a7.89,7.89,0,0,1-.58-1.63c-.13-.51,0-.59.43-.71a35.83,35.83,0,0,1,7.18-1c.56,0,.81.1,1.07.69a3.85,3.85,0,0,1,.35,1.47c0,.56-.1.72-.66.79C13.31,9.84,11.88,10.05,10.51,10.25Z"/><path class="cls-2" d="M16.14,22.83c-.15.53-.33.64-.86.51a4.38,4.38,0,0,1-1.38-.59c-.46-.33-.51-.68-.38-1.4.48-2.34,1.83-6.79,3-10.46-.2-.38-.45-.87-.61-1.27-.23-.64-.2-.95.33-1.25,2.5-1.4,7.29-2.6,8.84-.74a6.17,6.17,0,0,1,1.35,3.18A4.2,4.2,0,0,1,25,14.38a16.74,16.74,0,0,1-4.12,2.8A37.47,37.47,0,0,0,24,21.56c.41.46.28.71-.08,1a2.5,2.5,0,0,1-1.09.53A1.65,1.65,0,0,1,21,22.63a21.46,21.46,0,0,1-3.39-4.48C17.08,19.75,16.57,21.35,16.14,22.83Zm2.65-8c3-1.14,5-3.46,4.76-4.27-.13-.59-1.58-.72-3.21.07C19.86,11.78,19.35,13.23,18.79,14.78Z"/><path class="cls-2" d="M27.73,8.42c-.1-.51,0-.61.44-.71a35.69,35.69,0,0,1,7.36-1,.89.89,0,0,1,1,.71,5.9,5.9,0,0,1,.3,1.43c0,.56-.12.76-.68.81-1.17.13-2.62.31-4,.54-.38,1-.84,2.24-1.3,3.48a15.37,15.37,0,0,1,2-.17c.56,0,.87.1,1,.58a6.14,6.14,0,0,1,.36,1.48c.08.56-.08.71-.63.84-1.3.25-2.75.53-4,.87-.28.78-.56,1.57-.79,2.31a25.32,25.32,0,0,1,3.06-.41c.56-.05.89.08,1.07.56a5.87,5.87,0,0,1,.38,1.51c.08.56,0,.74-.61.86-1.45.33-3.08.69-4.46,1.07a1.5,1.5,0,0,1-1.6-.28,6.45,6.45,0,0,1-1-1.09,2,2,0,0,1-.31-1.66c.51-2.26,2-6.72,3.08-10.08A7,7,0,0,1,27.73,8.42Z"/><path class="cls-2" d="M37.54,8.42c-.1-.51,0-.61.43-.71a35.88,35.88,0,0,1,7.36-1,.89.89,0,0,1,1,.71,6.41,6.41,0,0,1,.3,1.43c0,.56-.13.76-.69.81-1.17.13-2.62.31-4,.54-.38,1-.84,2.24-1.3,3.48a15.37,15.37,0,0,1,2-.17c.56,0,.87.1,1,.58A6.14,6.14,0,0,1,44,15.6c.07.56-.08.71-.64.84-1.3.25-2.75.53-4,.87-.28.78-.56,1.57-.79,2.31a25.06,25.06,0,0,1,3.06-.41c.56-.05.89.08,1.07.56a5.87,5.87,0,0,1,.38,1.51c.07.56,0,.74-.61.86-1.46.33-3.09.69-4.46,1.07a1.5,1.5,0,0,1-1.6-.28,6.07,6.07,0,0,1-1-1.09,2,2,0,0,1-.31-1.66c.51-2.26,2-6.72,3.08-10.08A6.58,6.58,0,0,1,37.54,8.42Z"/><path class="cls-2" d="M4.55,26.23c0-.24,0-.29.21-.34a16.7,16.7,0,0,1,3.46-.45.42.42,0,0,1,.47.33,2.8,2.8,0,0,1,.15.67c0,.27-.06.36-.33.39-.55.06-1.23.14-1.88.25-.18.49-.4,1.06-.61,1.64a9,9,0,0,1,.92-.08c.27,0,.41.05.49.28a2.49,2.49,0,0,1,.17.69c0,.26,0,.34-.3.4-.61.12-1.29.25-1.89.4-.14.38-.27.75-.38,1.1a11.6,11.6,0,0,1,1.44-.2c.27,0,.42,0,.51.27a3.22,3.22,0,0,1,.18.71c0,.26,0,.34-.29.4-.68.16-1.45.33-2.1.51A.71.71,0,0,1,4,33.07a2.73,2.73,0,0,1-.48-.52.92.92,0,0,1-.15-.78c.24-1.07.92-3.17,1.45-4.75A3.47,3.47,0,0,1,4.55,26.23Z"/><path class="cls-2" d="M8.74,31.27c.71.62,1.39.82,1.69.56s-.9-1-1.53-1.77a2,2,0,0,1-.27-2.19,5.25,5.25,0,0,1,1.8-2.13,1.44,1.44,0,0,1,1.24-.17,2.85,2.85,0,0,1,1,.68A1.3,1.3,0,0,1,13,27.36a8.64,8.64,0,0,1-.64,2c-.12.22-.24.27-.45.18-.62-.27-.89-.64-.78-1.12s.45-1.34.31-1.42-1.8,1.44-1.15,2.32,2.25,1.55,1.69,2.64a2.27,2.27,0,0,1-2.05,1.38A2.66,2.66,0,0,1,7.68,32c-.35-.5-.3-.68-.08-.8A1.12,1.12,0,0,1,8.74,31.27Z"/><path class="cls-2" d="M16.61,26.89c-.65,1.87-1.4,4.29-1.93,6.18-.07.25-.15.29-.41.22a2.61,2.61,0,0,1-.74-.34c-.22-.16-.24-.34-.17-.68.25-1.26.94-3.61,1.44-5.13l-.75.14c-.26,0-.39,0-.52-.19a3.57,3.57,0,0,1-.34-.86c0-.24,0-.3.23-.35a24,24,0,0,1,4-.45c.28,0,.37.07.46.19a2.41,2.41,0,0,1,.3.79c0,.25,0,.32-.28.35Z"/><path class="cls-2" d="M20.37,26.6c-.55,1.49-1.55,4.68-2,6.43-.07.26-.17.31-.42.24a2.4,2.4,0,0,1-.74-.35c-.22-.15-.26-.31-.18-.66.28-1.36,1.3-4.94,1.83-6.44.11-.29.27-.33.53-.25a3.29,3.29,0,0,1,.85.45C20.44,26.22,20.47,26.32,20.37,26.6Z"/><path class="cls-2" d="M22.15,28.12c-.38,1.2-1.06,3.49-1.42,4.87-.08.3-.2.36-.48.27a3.15,3.15,0,0,1-.49-.24c-.3-.18-.35-.39-.24-.88.33-1.58,1.34-4.83,1.85-6.26.1-.27.22-.37.45-.37a3.32,3.32,0,0,1,1.19.34.65.65,0,0,1,.45.72v3c.59-1.2,1.64-3,2.16-3.8a.6.6,0,0,1,.68-.29,5.11,5.11,0,0,1,1.26.45c.25.13.3.3.19.67-.46,1.63-1.51,4.93-1.9,6.42-.06.19-.16.28-.29.28a1.66,1.66,0,0,1-.66-.24c-.3-.18-.38-.34-.26-.91.2-.95.72-2.76,1.21-4.24-.65,1.15-1.69,3.05-2.41,4.46-.11.21-.18.29-.32.29a1.74,1.74,0,0,1-.59-.18c-.24-.11-.35-.27-.38-.66C22.09,31.09,22.11,29.13,22.15,28.12Z"/><path class="cls-2" d="M28.29,31.67,27.58,33c-.13.25-.23.27-.45.17a1.38,1.38,0,0,1-.58-.4c-.17-.19-.17-.36,0-.69a61.11,61.11,0,0,1,3.38-6.29.84.84,0,0,1,.83-.44,4.77,4.77,0,0,1,1.52.34c.29.12.32.29.28.59-.22,1.52-.5,4.41-.65,6.63,0,.27-.09.34-.35.34a2.54,2.54,0,0,1-.74-.1c-.24-.09-.32-.24-.32-.6s0-.84.05-1.36C29.77,31.36,28.9,31.51,28.29,31.67Zm2.33-1.91c.07-1,.16-1.94.27-2.79-.46.79-1.08,1.87-1.68,3A13.94,13.94,0,0,1,30.62,29.76Z"/><path class="cls-2" d="M36.36,26.89c-.64,1.87-1.4,4.29-1.93,6.18-.07.25-.15.29-.4.22a2.55,2.55,0,0,1-.75-.34c-.21-.16-.24-.34-.17-.68.26-1.26.94-3.61,1.44-5.13l-.75.14c-.25,0-.39,0-.52-.19a3.16,3.16,0,0,1-.33-.86c-.05-.24,0-.3.22-.35a24.14,24.14,0,0,1,4-.45c.28,0,.37.07.46.19a2.41,2.41,0,0,1,.3.79c0,.25,0,.32-.28.35Z"/><path class="cls-2" d="M38.19,26.23c0-.24,0-.29.2-.34a16.8,16.8,0,0,1,3.47-.45.43.43,0,0,1,.47.33,2.76,2.76,0,0,1,.14.67c0,.27-.06.36-.32.39-.55.06-1.24.14-1.88.25-.18.49-.4,1.06-.62,1.64a9,9,0,0,1,.93-.08c.26,0,.4.05.49.28a3.48,3.48,0,0,1,.17.69c0,.26,0,.34-.3.4-.61.12-1.3.25-1.9.4-.13.38-.26.75-.37,1.1a11.1,11.1,0,0,1,1.44-.2c.26,0,.42,0,.5.27a2.39,2.39,0,0,1,.18.71c0,.26,0,.34-.28.4-.69.16-1.46.33-2.1.51a.73.73,0,0,1-.76-.13,3.58,3.58,0,0,1-.48-.52,1,1,0,0,1-.14-.78c.24-1.07.92-3.17,1.45-4.75A3.47,3.47,0,0,1,38.19,26.23Z"/><path class="cls-2" d="M42.38,31.27c.71.62,1.39.82,1.69.56s-.9-1-1.54-1.77a2,2,0,0,1-.26-2.19,5.25,5.25,0,0,1,1.8-2.13,1.44,1.44,0,0,1,1.24-.17,2.85,2.85,0,0,1,1,.68,1.26,1.26,0,0,1,.26,1.11,8.16,8.16,0,0,1-.63,2c-.12.22-.24.27-.46.18-.61-.27-.89-.64-.78-1.12s.46-1.34.31-1.42-1.8,1.44-1.15,2.32,2.26,1.55,1.69,2.64a2.25,2.25,0,0,1-2.05,1.38A2.67,2.67,0,0,1,41.31,32c-.35-.5-.3-.68-.07-.8A1.12,1.12,0,0,1,42.38,31.27Z"/></svg>