<svg id="Layer_1" data-name="Layer 1" xmlns="http://www.w3.org/2000/svg" viewBox="0 0 50 40"><defs><style>.cls-1{fill:#fff;}</style></defs><title>Free Estimates</title><rect class="cls-1" width="50" height="40"/><path d="M7.5,11.56h7.17v2.07h-5V16h4V18h-4v4.47H7.5Z"/><path d="M22.05,22.51l-1.76-4.06H18.52v4.06H16.33v-11h5.59a2.06,2.06,0,0,1,2.16,2.16v2.57a2,2,0,0,1-1.49,2.07l1.82,4.15Zm-.16-8.36a.47.47,0,0,0-.52-.52H18.52v2.78h2.85a.47.47,0,0,0,.52-.51Z"/><path d="M33.39,11.56v2.07h-5v2.25h4V18h-4v2.49h5v2.07H26.23v-11Z"/><path d="M42.5,11.56v2.07h-5v2.25h4V18h-4v2.49h5v2.07H35.33v-11Z"/><path d="M10.69,23.54v.92H8.47v1h1.8v.92H8.47v1.11h2.22v.92H7.5V23.54Z"/><path d="M13.77,24.67a.21.21,0,0,0-.23-.23h-1a.21.21,0,0,0-.23.23v.46c0,.14.09.19.23.23l1.26.27c.53.11,1,.43,1,1v.88a.91.91,0,0,1-1,1H12.32a.91.91,0,0,1-1-1v-.62h1v.43a.21.21,0,0,0,.23.23h1.05a.21.21,0,0,0,.23-.23v-.51c0-.15-.08-.2-.23-.23l-1.26-.27c-.52-.12-1-.44-1-1v-.82a.92.92,0,0,1,1-1h1.44a.93.93,0,0,1,1,1V25h-1Z"/><path d="M17.54,24.45v4h-1v-4H15.29v-.91h3.52v.91Z"/><path d="M19.52,23.54h1v4.87h-1Z"/><path d="M26.22,28.41H25.3V25.17l-1.06,2.47h-.7l-1.06-2.47v3.24h-.92V23.54h1.07l1.26,2.86,1.26-2.86h1.07Z"/><path d="M27.88,28.41h-1l1.57-4.87h1.13l1.57,4.87H30.09l-.31-1.09H28.2Zm.59-2h1L29,24.61Z"/><path d="M33.22,24.45v4h-1v-4H31v-.91H34.5v.91Z"/><path d="M38.39,23.54v.92H36.18v1H38v.92H36.18v1.11h2.21v.92H35.2V23.54Z"/><path d="M41.47,24.67a.21.21,0,0,0-.23-.23h-1a.21.21,0,0,0-.23.23v.46c0,.14.08.19.23.23l1.26.27c.52.11,1,.43,1,1v.88a.91.91,0,0,1-1,1H40a.91.91,0,0,1-1-1v-.62H40v.43a.21.21,0,0,0,.23.23H41.3a.21.21,0,0,0,.23-.23v-.51c0-.15-.09-.2-.23-.23L40,26.28c-.53-.12-1-.44-1-1v-.82a.92.92,0,0,1,1-1h1.44a.92.92,0,0,1,1,1V25h-1Z"/></svg>