<svg id="Layer_1" data-name="Layer 1" xmlns="http://www.w3.org/2000/svg" viewBox="0 0 50 40"><defs><style>.cls-1{fill:#fff;}</style></defs><title>Free Estimates</title><rect class="cls-1" width="50" height="40"/><path d="M3.5,9.63h8.81v2.54H6.19v2.88h5v2.54h-5v5.5H3.5Z"/><path d="M21.38,23.09l-2.17-5H17v5H14.35V9.63h6.86a2.53,2.53,0,0,1,2.66,2.65v3.16A2.52,2.52,0,0,1,22,18l2.25,5.1Zm-.21-10.28a.57.57,0,0,0-.63-.64H17v3.42h3.5a.57.57,0,0,0,.63-.63Z"/><path d="M35.31,9.63v2.54H29.2v2.77h4.95v2.54H29.2v3.07h6.11v2.54h-8.8V9.63Z"/><path d="M46.5,9.63v2.54H40.39v2.77h5v2.54h-5v3.07H46.5v2.54H37.69V9.63Z"/><path d="M7.42,24.35v1.13H4.7v1.23H6.9v1.13H4.7v1.37H7.42v1.13H3.5v-6Z"/><path d="M11.2,25.73a.25.25,0,0,0-.28-.28H9.72a.25.25,0,0,0-.28.28v.57c0,.18.1.24.28.28l1.55.33c.65.14,1.2.53,1.2,1.2v1.08a1.13,1.13,0,0,1-1.18,1.18H9.42a1.12,1.12,0,0,1-1.18-1.18v-.76H9.41V29a.25.25,0,0,0,.28.28H11a.25.25,0,0,0,.28-.28v-.63c0-.19-.1-.25-.28-.29l-1.55-.33c-.65-.14-1.2-.53-1.2-1.2v-1a1.12,1.12,0,0,1,1.18-1.18h1.77a1.13,1.13,0,0,1,1.18,1.18v.7H11.2Z"/><path d="M15.84,25.47v4.87h-1.2V25.47H13.08V24.35H17.4v1.12Z"/><path d="M18.27,24.35h1.19v6H18.27Z"/><path d="M26.5,30.34H25.37v-4l-1.3,3h-.86l-1.3-3v4H20.78v-6h1.31l1.55,3.51,1.55-3.51H26.5Z"/><path d="M28.53,30.34H27.29l1.93-6h1.4l1.93,6H31.26L30.87,29H28.93Zm.73-2.48h1.28l-.63-2.19Z"/><path d="M35.1,25.47v4.87H33.91V25.47H32.34V24.35h4.33v1.12Z"/><path d="M41.45,24.35v1.13H38.73v1.23h2.2v1.13h-2.2v1.37h2.72v1.13H37.53v-6Z"/><path d="M45.24,25.73a.26.26,0,0,0-.29-.28H43.76a.26.26,0,0,0-.29.28v.57c0,.18.1.24.29.28l1.54.33c.65.14,1.2.53,1.2,1.2v1.08a1.12,1.12,0,0,1-1.18,1.18H43.46a1.12,1.12,0,0,1-1.18-1.18v-.76h1.16V29a.25.25,0,0,0,.28.28H45A.25.25,0,0,0,45.3,29v-.63c0-.19-.1-.25-.28-.29l-1.55-.33c-.64-.14-1.19-.53-1.19-1.2v-1a1.12,1.12,0,0,1,1.18-1.18h1.76A1.12,1.12,0,0,1,46.4,25.5v.7H45.24Z"/></svg>