<svg id="Layer_1" data-name="Layer 1" xmlns="http://www.w3.org/2000/svg" viewBox="0 0 50 40"><defs><style>.cls-1{fill:#fff;}.cls-2{fill:#231f20;}</style></defs><title>Free Estimates</title><rect class="cls-1" width="50" height="40"/><circle class="cls-2" cx="3.31" cy="22.56" r="0.31"/><circle class="cls-2" cx="3.31" cy="17.65" r="0.31"/><circle class="cls-2" cx="3.31" cy="12.8" r="0.31"/><path class="cls-2" d="M5.15,11.58a.08.08,0,0,1,.09-.09H6.75s.07,0,.07,0h0s0,.06-.07.06H5.29v1.16H6.36s.07,0,.07.06h0s0,.05-.07.05H5.29V14a.05.05,0,0,1-.06.06h0A.05.05,0,0,1,5.15,14Z"/><path class="cls-2" d="M8.11,12.29c0,.05,0,.07,0,.07a.34.34,0,0,0-.22-.08c-.34,0-.53.34-.53.86V14s0,.06-.05.06h0A.05.05,0,0,1,7.19,14V12.2l0,0s.09,0,.09.14v.34a.53.53,0,0,1,.54-.5C8,12.16,8.11,12.22,8.11,12.29Z"/><path class="cls-2" d="M9.19,12.16a.84.84,0,0,1,.86.89v0s0,0-.07,0H8.39v.06a.8.8,0,0,0,.82.81.72.72,0,0,0,.71-.42s.08,0,.08.08a.42.42,0,0,1-.14.23.91.91,0,0,1-.64.23,1,1,0,0,1,0-1.95Zm0,.11a.82.82,0,0,0-.8.74H9.91A.71.71,0,0,0,9.19,12.27Z"/><path class="cls-2" d="M11.28,12.16a.83.83,0,0,1,.85.89v0s0,0-.06,0h-1.6v.06a.81.81,0,0,0,.83.81.72.72,0,0,0,.71-.42s.08,0,.08.08a.42.42,0,0,1-.14.23,1,1,0,1,1-.67-1.72Zm0,.11a.82.82,0,0,0-.8.74H12A.71.71,0,0,0,11.28,12.27Z"/><path class="cls-2" d="M13.33,14v-2.4a.08.08,0,0,1,.09-.09H15s.07,0,.07,0h0s0,.06-.07.06H13.47v1.08h1.14s.07,0,.07.05h0s0,.06-.07.06H13.47V14H15s.07,0,.07.05v0s0,.05-.07.05H13.42A.08.08,0,0,1,13.33,14Z"/><path class="cls-2" d="M15.36,13.74c0-.05.07-.07.07-.07a.75.75,0,0,0,.68.33c.38,0,.6-.18.6-.41s-.27-.34-.62-.41-.68-.14-.68-.5.29-.52.7-.52a.86.86,0,0,1,.6.21.21.21,0,0,1,.07.13c0,.05-.07.07-.07.07a.68.68,0,0,0-.6-.3c-.35,0-.57.17-.57.39s.26.33.61.4.69.15.69.51-.28.54-.73.54a.91.91,0,0,1-.66-.22C15.38,13.82,15.36,13.78,15.36,13.74Z"/><path class="cls-2" d="M17.37,13.53V12.31h-.28c-.05,0-.06,0-.06-.05h0s0-.06.06-.06h.28v-.4s0-.07.06-.07h0s.05,0,.05.07v.4h.59c.05,0,.07,0,.07.06h0s0,.05-.07.05H17.5v1.22c0,.33.12.46.35.46a.36.36,0,0,0,.32-.18.08.08,0,0,1,0,.07.19.19,0,0,1-.07.12.38.38,0,0,1-.3.11C17.53,14.11,17.37,13.94,17.37,13.53Z"/><path class="cls-2" d="M18.63,11.53a.09.09,0,0,1,.1.1.1.1,0,0,1-.11.11c-.05,0-.09,0-.09-.11A.09.09,0,0,1,18.63,11.53Zm-.06.72c0-.05,0-.07.05-.07h0s.06,0,.06.07V14a.05.05,0,0,1-.06.06h0s-.05,0-.05-.06Z"/><path class="cls-2" d="M22.16,13v1c0,.05,0,.06-.05.06h0A.05.05,0,0,1,22,14V13c0-.45-.21-.72-.6-.72a.66.66,0,0,0-.64.49V14a.05.05,0,0,1-.06.06h0s-.05,0-.05-.06V12.89a.56.56,0,0,0-.6-.61.69.69,0,0,0-.65.49V14c0,.05,0,.06-.05.06h0s-.06,0-.06-.06V12.2l0,0c.05,0,.09,0,.09.14v.27a.72.72,0,0,1,.66-.43.65.65,0,0,1,.67.47.72.72,0,0,1,.7-.47C21.9,12.16,22.16,12.46,22.16,13Z"/><path class="cls-2" d="M24,13h0v-.12a.57.57,0,0,0-.62-.61.72.72,0,0,0-.68.37s-.07,0-.07-.08a.37.37,0,0,1,.11-.18.86.86,0,0,1,.65-.23.67.67,0,0,1,.74.72v1.19h-.05c-.05,0-.08,0-.08-.14v-.31a.83.83,0,0,1-.79.48c-.4,0-.66-.2-.66-.51S23,13,24,13Zm0,.1H24c-.92,0-1.26.15-1.26.49s.21.4.52.4a.73.73,0,0,0,.79-.68Z"/><path class="cls-2" d="M24.8,13.53V12.31h-.28c-.06,0-.07,0-.07-.05h0s0-.06.07-.06h.28v-.4s0-.07.06-.07h0s.06,0,.06.07v.4h.58s.07,0,.07.06h0s0,.05-.07.05h-.58v1.22c0,.33.11.46.34.46a.36.36,0,0,0,.32-.18.07.07,0,0,1,.05.07.19.19,0,0,1-.07.12.42.42,0,0,1-.31.11C25,14.11,24.8,13.94,24.8,13.53Z"/><path class="cls-2" d="M26.77,12.16a.83.83,0,0,1,.85.89v0s0,0-.06,0H26v.06a.81.81,0,0,0,.83.81.72.72,0,0,0,.71-.42s.08,0,.08.08a.42.42,0,0,1-.14.23,1,1,0,1,1-.67-1.72Zm0,.11A.82.82,0,0,0,26,13h1.52A.71.71,0,0,0,26.77,12.27Z"/><path class="cls-2" d="M27.9,13.74c0-.05.06-.07.07-.07a.75.75,0,0,0,.68.33c.38,0,.6-.18.6-.41s-.27-.34-.62-.41S28,13,28,12.68s.29-.52.69-.52a.86.86,0,0,1,.61.21.21.21,0,0,1,.07.13c0,.05-.07.07-.08.07a.66.66,0,0,0-.6-.3c-.34,0-.56.17-.56.39s.26.33.6.4.7.15.7.51-.28.54-.73.54a.91.91,0,0,1-.66-.22C27.92,13.82,27.9,13.78,27.9,13.74Z"/><path class="cls-2" d="M5.16,18.49v-.1c0-.57.39-.81.83-1s.71-.35.71-.72-.23-.57-.68-.57a.76.76,0,0,0-.77.59s-.1,0-.1-.07a.72.72,0,0,1,.2-.38A1,1,0,0,1,6,16a.7.7,0,0,1,.8.7c0,.42-.32.59-.76.8s-.78.42-.78.91v.09H6.83s.06,0,.06.05v0s0,0-.06,0H5.26C5.19,18.58,5.16,18.55,5.16,18.49Z"/><path class="cls-2" d="M7.27,17.41v-.24c0-.74.39-1.21,1-1.21s1,.47,1,1.2v.25c0,.73-.4,1.21-1,1.21S7.27,18.15,7.27,17.41Zm1.86,0v-.24c0-.66-.34-1.1-.86-1.1s-.86.44-.86,1.1v.23c0,.67.33,1.1.86,1.1S9.13,18.07,9.13,17.41Z"/><path class="cls-2" d="M11.07,18.53V17.45l-1-1.41a.09.09,0,0,1,.08-.06.15.15,0,0,1,.08.05l.87,1.3L12,16a.11.11,0,0,1,.09-.05.07.07,0,0,1,.06.06l-1,1.41v1.08a.05.05,0,0,1-.06.06h0A.05.05,0,0,1,11.07,18.53Z"/><path class="cls-2" d="M13,16.66a.83.83,0,0,1,.85.9h0c0,.05,0,.06-.06.06h-1.6v.06a.81.81,0,0,0,.83.81.69.69,0,0,0,.7-.42s.08,0,.08.08a.41.41,0,0,1-.13.23,1,1,0,0,1-.65.23.93.93,0,0,1-1-1A.94.94,0,0,1,13,16.66Zm0,.12a.8.8,0,0,0-.8.73h1.51A.7.7,0,0,0,13,16.78Z"/><path class="cls-2" d="M15.59,17.51h0v-.12a.56.56,0,0,0-.62-.6.7.7,0,0,0-.67.36.07.07,0,0,1-.07-.08.39.39,0,0,1,.1-.17.88.88,0,0,1,.65-.24.68.68,0,0,1,.74.73v1.18s0,0,0,0-.09,0-.09-.14v-.31a.81.81,0,0,1-.79.48c-.39,0-.65-.2-.65-.51S14.58,17.52,15.59,17.51Zm0,.11h0c-.93,0-1.27.15-1.27.49s.21.4.53.4a.73.73,0,0,0,.78-.69Z"/><path class="cls-2" d="M17.24,16.8a.08.08,0,0,1,0,.07.34.34,0,0,0-.23-.08c-.34,0-.52.34-.52.86v.88a.06.06,0,0,1-.06.06h0a.06.06,0,0,1-.06-.06V16.7h.05c.05,0,.08,0,.08.14v.34c.08-.36.29-.51.54-.51S17.24,16.72,17.24,16.8Z"/><path class="cls-2" d="M17.43,18.25c0-.06.06-.08.07-.07a.75.75,0,0,0,.68.33c.38,0,.6-.18.6-.41s-.27-.34-.62-.41-.68-.14-.68-.5.29-.53.69-.53a.86.86,0,0,1,.61.22.22.22,0,0,1,.07.12c0,.06-.07.08-.08.07a.68.68,0,0,0-.6-.29c-.34,0-.56.16-.56.39s.26.33.6.4.69.15.69.51-.28.54-.72.54a.91.91,0,0,1-.66-.22A.24.24,0,0,1,17.43,18.25Z"/><path class="cls-2" d="M20.09,18.49v-2.4a.09.09,0,0,1,.09-.1h1.56c.05,0,.07,0,.07.06h0s0,.06-.07.06H20.23v1.07h1.14s.07,0,.07.06h0s0,0-.07,0H20.23v1.15h1.56s.07,0,.07.05v0s0,0-.07,0H20.18A.09.09,0,0,1,20.09,18.49Z"/><path class="cls-2" d="M22.82,17.63l-.71-.88s0-.06.06-.06.07,0,.1.07l.63.79.62-.79c0-.05.07-.07.1-.07s.08.06.07.06l-.71.88.71.9a.07.07,0,0,1-.07.06.12.12,0,0,1-.1-.06l-.63-.81-.63.8c0,.05-.06.07-.1.07s-.07-.05-.06-.06Z"/><path class="cls-2" d="M25.9,17.63a.92.92,0,0,1-.92,1,.78.78,0,0,1-.77-.5v1.15c0,.05,0,.07-.06.07h0s-.06,0-.06-.07V16.7h0c.05,0,.08,0,.08.14v.33a.85.85,0,0,1,.79-.5A.92.92,0,0,1,25.9,17.63Zm-.14,0a.8.8,0,0,0-1.56-.28v.43a.74.74,0,0,0,.78.72A.79.79,0,0,0,25.76,17.63Z"/><path class="cls-2" d="M27.14,16.66a.83.83,0,0,1,.85.9h0c0,.05,0,.06-.06.06h-1.6v.06a.81.81,0,0,0,.83.81.69.69,0,0,0,.7-.42.08.08,0,0,1,.08.08.41.41,0,0,1-.13.23,1,1,0,1,1-.67-1.73Zm0,.12a.82.82,0,0,0-.8.73h1.52A.71.71,0,0,0,27.14,16.78Z"/><path class="cls-2" d="M29.35,16.8a.08.08,0,0,1,0,.07.34.34,0,0,0-.23-.08c-.34,0-.52.34-.52.86v.88a.06.06,0,0,1-.06.06h0a.06.06,0,0,1-.06-.06V16.7h0c.05,0,.08,0,.08.14v.34c.08-.36.29-.51.54-.51S29.35,16.72,29.35,16.8Z"/><path class="cls-2" d="M29.79,16c.07,0,.1,0,.1.1s0,.1-.11.1-.09,0-.09-.1S29.72,16,29.79,16Zm-.07.72c0-.06,0-.07.06-.07h0s.06,0,.06.07v1.77a.06.06,0,0,1-.06.06h0a.06.06,0,0,1-.06-.06Z"/><path class="cls-2" d="M31.24,16.66a.84.84,0,0,1,.86.9h0c0,.05,0,.06-.07.06H30.44v.06a.8.8,0,0,0,.82.81.72.72,0,0,0,.71-.42s.08,0,.08.08a.46.46,0,0,1-.14.23.91.91,0,0,1-.64.23,1,1,0,0,1,0-2Zm0,.12a.82.82,0,0,0-.8.73H32A.71.71,0,0,0,31.24,16.78Z"/><path class="cls-2" d="M34.13,17.51v1a.06.06,0,0,1-.06.06h0a.05.05,0,0,1-.06-.06v-1c0-.44-.22-.73-.64-.73a.74.74,0,0,0-.7.47v1.27a.05.05,0,0,1-.06.06h0s0,0,0-.06V16.7h0s.09,0,.09.14v.28a.76.76,0,0,1,.71-.45C33.87,16.66,34.13,17,34.13,17.51Z"/><path class="cls-2" d="M35.51,16.66a.9.9,0,0,1,.64.24.47.47,0,0,1,.15.26.07.07,0,0,1-.09.07.69.69,0,0,0-.7-.45.86.86,0,0,0,0,1.72.71.71,0,0,0,.7-.45s.09,0,.09.06a.43.43,0,0,1-.16.27.82.82,0,0,1-.63.24,1,1,0,0,1,0-2Z"/><path class="cls-2" d="M37.52,16.66a.83.83,0,0,1,.85.9h0c0,.05,0,.06-.06.06h-1.6v.06a.81.81,0,0,0,.83.81.69.69,0,0,0,.7-.42.08.08,0,0,1,.08.08.41.41,0,0,1-.13.23,1,1,0,1,1-.67-1.73Zm0,.12a.82.82,0,0,0-.8.73h1.52A.71.71,0,0,0,37.52,16.78Z"/><path class="cls-2" d="M6.43,21.27a1.13,1.13,0,0,1,.81.3.51.51,0,0,1,.16.28.08.08,0,0,1-.08.08.93.93,0,0,0-.9-.54,1.21,1.21,0,0,0,0,2.42.9.9,0,0,0,.92-.6s.08,0,.08.08a.56.56,0,0,1-.19.34,1.15,1.15,0,0,1-.81.3,1.33,1.33,0,0,1,0-2.66Z"/><path class="cls-2" d="M8.7,22a1,1,0,1,1-1,1A.95.95,0,0,1,8.7,22Zm0,.12a.86.86,0,1,0,.83.86A.83.83,0,0,0,8.7,22.09Z"/><path class="cls-2" d="M13,22.8v1s0,.06-.05.06h0a.05.05,0,0,1-.06-.06v-1c0-.45-.22-.71-.6-.71a.65.65,0,0,0-.64.49v1.25a.06.06,0,0,1-.06.06h0a.06.06,0,0,1-.06-.06V22.71a.55.55,0,0,0-.6-.61.68.68,0,0,0-.64.48v1.26a.05.05,0,0,1-.06.06h0s-.05,0-.05-.06V22h0s.09,0,.09.14v.26a.72.72,0,0,1,.66-.43.66.66,0,0,1,.67.48.73.73,0,0,1,.7-.48C12.72,22,13,22.28,13,22.8Z"/><path class="cls-2" d="M16.42,22.8v1a.06.06,0,0,1-.06.06h0s-.05,0-.05-.06v-1c0-.45-.22-.71-.6-.71a.67.67,0,0,0-.65.49v1.25s0,.06,0,.06h0a.05.05,0,0,1-.06-.06V22.71a.55.55,0,0,0-.6-.61.68.68,0,0,0-.64.48v1.26a.06.06,0,0,1-.06.06h0a.06.06,0,0,1-.06-.06V22h.05c.05,0,.08,0,.08.14v.26a.73.73,0,0,1,.66-.43.65.65,0,0,1,.67.48.74.74,0,0,1,.7-.48C16.15,22,16.42,22.28,16.42,22.8Z"/><path class="cls-2" d="M17.06,21.35c.07,0,.1,0,.1.1s0,.1-.11.1a.09.09,0,0,1-.1-.1C17,21.38,17,21.35,17.06,21.35Zm-.07.72c0-.06,0-.07.06-.07h0s.06,0,.06.07v1.77a.06.06,0,0,1-.06.06h0a.05.05,0,0,1-.06-.06Z"/><path class="cls-2" d="M17.82,23.35V22.13h-.28c-.05,0-.07,0-.07-.06h0s0,0,.07,0h.28v-.4c0-.05,0-.07.06-.07h0s.06,0,.06.07V22h.58c.06,0,.07,0,.07,0h0s0,.06-.07.06H18v1.21c0,.34.11.47.34.47a.35.35,0,0,0,.32-.18s.05,0,.05.07a.18.18,0,0,1-.07.11.42.42,0,0,1-.3.12C18,23.93,17.82,23.75,17.82,23.35Z"/><path class="cls-2" d="M19.1,23.35V22.13h-.28c-.05,0-.07,0-.07-.06h0s0,0,.07,0h.28v-.4c0-.05,0-.07.06-.07h0s.05,0,.05.07V22h.59c.05,0,.06,0,.06,0h0s0,.06-.06.06h-.59v1.21c0,.34.12.47.34.47a.35.35,0,0,0,.32-.18s.05,0,.05.07a.18.18,0,0,1-.07.11.4.4,0,0,1-.3.12C19.26,23.93,19.1,23.75,19.1,23.35Z"/><path class="cls-2" d="M21.08,22a.83.83,0,0,1,.85.9h0c0,.05,0,.06-.06.06h-1.6v0a.81.81,0,0,0,.83.82.69.69,0,0,0,.7-.42s.08,0,.08.08a.44.44,0,0,1-.13.23,1,1,0,0,1-.65.23.93.93,0,0,1-1-1A.94.94,0,0,1,21.08,22Zm0,.12a.8.8,0,0,0-.8.73h1.51A.69.69,0,0,0,21.08,22.09Z"/><path class="cls-2" d="M22.23,22.94a.92.92,0,0,1,.91-1,.82.82,0,0,1,.78.49V21.2h0c.05,0,.09,0,.09.13v2.52a.05.05,0,0,1-.06.06h0a.05.05,0,0,1-.06-.06v-.41a.81.81,0,0,1-.78.5A.91.91,0,0,1,22.23,22.94Zm1.69-.28a.79.79,0,0,0-.77-.57.86.86,0,0,0,0,1.72.74.74,0,0,0,.77-.72Z"/><path class="cls-2" d="M25.38,23.35V22.13H25.1c-.06,0-.07,0-.07-.06h0s0,0,.07,0h.28v-.4c0-.05,0-.07.06-.07h0s.06,0,.06.07V22h.58c.05,0,.07,0,.07,0h0s0,.06-.07.06h-.58v1.21c0,.34.11.47.34.47a.36.36,0,0,0,.32-.18s0,0,0,.07a.18.18,0,0,1-.07.11.43.43,0,0,1-.31.12C25.54,23.93,25.38,23.75,25.38,23.35Z"/><path class="cls-2" d="M27.38,22a1,1,0,1,1-1,1A.94.94,0,0,1,27.38,22Zm0,.12a.86.86,0,1,0,.82.86A.83.83,0,0,0,27.38,22.09Z"/><path class="cls-2" d="M29.54,23.8V21.39a.08.08,0,0,1,.09-.09h1.56s.07,0,.07.06h0s0,.06-.07.06H29.68V22.5h1.14a.05.05,0,0,1,.06.06h0s0,.05-.06.05H29.68v1.15h1.56s.06,0,.06.05v0s0,.05-.06.05H29.63A.08.08,0,0,1,29.54,23.8Z"/><path class="cls-2" d="M32.26,22.94l-.71-.88s0-.06.07-.06.06,0,.1.07l.62.79.62-.79a.16.16,0,0,1,.11-.07s.07.06.06.06l-.71.88.71.9s0,.06-.06.06-.07,0-.11-.06L32.33,23l-.62.8s-.06.07-.1.07-.08,0-.07-.06Z"/><path class="cls-2" d="M34.3,22a.89.89,0,0,1,.64.24.47.47,0,0,1,.15.26.08.08,0,0,1-.09.07.68.68,0,0,0-.7-.45.86.86,0,0,0,0,1.72.69.69,0,0,0,.7-.46s.09,0,.09.07a.46.46,0,0,1-.15.27.9.9,0,0,1-.64.24,1,1,0,0,1,0-2Z"/><path class="cls-2" d="M36.31,22a.83.83,0,0,1,.85.9h0c0,.05,0,.06-.06.06H35.5v0a.81.81,0,0,0,.83.82.72.72,0,0,0,.71-.42s.08,0,.08.08a.5.5,0,0,1-.14.23A1,1,0,1,1,36.31,22Zm0,.12a.82.82,0,0,0-.8.73H37A.7.7,0,0,0,36.31,22.09Z"/><path class="cls-2" d="M37.62,23.84V21.2h0c.05,0,.09,0,.09.13v2.52a.06.06,0,0,1-.06.06h0S37.62,23.88,37.62,23.84Z"/><path class="cls-2" d="M38.35,23.84V21.2h0s.08,0,.08.13v2.52a.05.05,0,0,1-.06.06h0A.06.06,0,0,1,38.35,23.84Z"/><path class="cls-2" d="M39.87,22a.83.83,0,0,1,.85.9h0c0,.05,0,.06-.06.06h-1.6v0a.81.81,0,0,0,.83.82.72.72,0,0,0,.71-.42s.08,0,.08.08a.5.5,0,0,1-.14.23A1,1,0,1,1,39.87,22Zm0,.12a.82.82,0,0,0-.8.73h1.52A.7.7,0,0,0,39.87,22.09Z"/><path class="cls-2" d="M42.76,22.82v1a.06.06,0,0,1-.06.06h0s0,0,0-.06v-1c0-.44-.23-.73-.64-.73a.74.74,0,0,0-.7.47v1.27a.06.06,0,0,1-.06.06h0s-.05,0-.05-.06V22h0s.08,0,.08.14v.28A.77.77,0,0,1,42,22C42.5,22,42.76,22.31,42.76,22.82Z"/><path class="cls-2" d="M44.14,22a.9.9,0,0,1,.64.24.5.5,0,0,1,.14.26c0,.06-.07.08-.08.07a.69.69,0,0,0-.7-.45.86.86,0,0,0,0,1.72.7.7,0,0,0,.7-.46s.08,0,.08.07a.46.46,0,0,1-.15.27.88.88,0,0,1-.63.24,1,1,0,0,1,0-2Z"/><path class="cls-2" d="M46.15,22a.83.83,0,0,1,.85.9h0c0,.05,0,.06-.06.06h-1.6v0a.81.81,0,0,0,.83.82.69.69,0,0,0,.7-.42s.08,0,.08.08a.44.44,0,0,1-.13.23,1,1,0,0,1-.65.23.93.93,0,0,1-1-1A.94.94,0,0,1,46.15,22Zm0,.12a.8.8,0,0,0-.8.73h1.51A.69.69,0,0,0,46.15,22.09Z"/><circle class="cls-2" cx="3.31" cy="27.14" r="0.31"/><path class="cls-2" d="M5.15,28.42V26a.09.09,0,0,1,.1-.09h.68c.62,0,.94.26.94.73s-.33.73-.9.73H5.79l1.08,1.07s0,.07-.08.07,0,0-.09-.06L5.62,27.35H5.29v1.07s0,.07-.06.07h0S5.15,28.46,5.15,28.42ZM6,27.23c.52,0,.77-.23.77-.61S6.46,26,5.94,26H5.29v1.22Z"/><path class="cls-2" d="M8.14,26.56a.83.83,0,0,1,.85.9H9s0,.06-.06.06H7.33v0a.81.81,0,0,0,.83.81A.72.72,0,0,0,8.87,28S9,28,9,28.06a.44.44,0,0,1-.14.22,1,1,0,1,1-.67-1.72Zm0,.12a.81.81,0,0,0-.8.73H8.86A.7.7,0,0,0,8.14,26.68Z"/><path class="cls-2" d="M9.27,28.14c0-.05.06-.07.07-.07a.73.73,0,0,0,.68.33c.38,0,.6-.18.6-.41s-.27-.33-.62-.41-.68-.14-.68-.5.29-.52.69-.52a.82.82,0,0,1,.61.22.17.17,0,0,1,.07.12c0,.05-.07.08-.08.07a.66.66,0,0,0-.6-.3c-.34,0-.56.17-.56.4s.26.32.6.39.7.15.7.52-.28.53-.73.53a1,1,0,0,1-.66-.21C9.29,28.22,9.27,28.18,9.27,28.14Z"/><path class="cls-2" d="M11.26,25.93c.07,0,.1,0,.1.11s0,.1-.11.1a.09.09,0,0,1-.1-.1A.1.1,0,0,1,11.26,25.93Zm-.07.72s0-.07.06-.07h0s.06,0,.06.07v1.77s0,.07-.06.07h0s-.06,0-.06-.07Z"/><path class="cls-2" d="M11.77,27.53a.92.92,0,0,1,.92-1,.83.83,0,0,1,.78.48V25.79s0,0,0,0,.09,0,.09.14v2.51a.07.07,0,0,1-.06.07h0a.07.07,0,0,1-.06-.07c0-.14,0-.27,0-.4a.81.81,0,0,1-.79.49A.91.91,0,0,1,11.77,27.53Zm1.7-.28a.8.8,0,0,0-1.56.28.8.8,0,0,0,.78.87.74.74,0,0,0,.78-.72Z"/><path class="cls-2" d="M15,26.56a.83.83,0,0,1,.85.9h0s0,.06-.06.06h-1.6v0a.81.81,0,0,0,.83.81.7.7,0,0,0,.7-.41s.08,0,.08.08a.4.4,0,0,1-.13.22.94.94,0,0,1-.65.23.93.93,0,0,1-1-1A.94.94,0,0,1,15,26.56Zm0,.12a.81.81,0,0,0-.8.73h1.52A.7.7,0,0,0,15,26.68Z"/><path class="cls-2" d="M17.86,27.41v1s0,.07-.06.07h0s-.05,0-.05-.07v-1c0-.45-.23-.74-.64-.74a.74.74,0,0,0-.7.48v1.26s0,.07-.06.07h0s-.06,0-.06-.07V26.6a.08.08,0,0,1,.05,0c.05,0,.08,0,.08.14V27a.78.78,0,0,1,.71-.44C17.6,26.56,17.86,26.9,17.86,27.41Z"/><path class="cls-2" d="M18.52,27.94V26.71h-.28s-.07,0-.07-.05h0s0,0,.07,0h.28v-.4c0-.05,0-.08.06-.08h0s0,0,0,.08v.4h.59c.05,0,.06,0,.06,0h0s0,.05-.06.05h-.59v1.22c0,.33.11.47.34.47a.34.34,0,0,0,.32-.19.07.07,0,0,1,.05.07.19.19,0,0,1-.07.12.4.4,0,0,1-.3.11C18.68,28.51,18.52,28.34,18.52,27.94Z"/><path class="cls-2" d="M19.78,25.93c.07,0,.1,0,.1.11s0,.1-.11.1-.09,0-.09-.1S19.71,25.93,19.78,25.93Zm-.07.72s0-.07.06-.07h0s.06,0,.06.07v1.77s0,.07-.06.07h0s-.06,0-.06-.07Z"/><path class="cls-2" d="M21.7,27.41h0v-.12a.57.57,0,0,0-.62-.61.73.73,0,0,0-.68.37.08.08,0,0,1-.07-.08.31.31,0,0,1,.11-.17.88.88,0,0,1,.65-.24.68.68,0,0,1,.74.73v1.18a.08.08,0,0,1-.05,0s-.08,0-.08-.14V28a.8.8,0,0,1-.79.48c-.4,0-.66-.19-.66-.51S20.69,27.42,21.7,27.41Zm0,.1h0c-.92,0-1.26.16-1.26.49s.21.4.53.4a.73.73,0,0,0,.78-.68Z"/><path class="cls-2" d="M22.44,28.42V25.79s0,0,0,0,.09,0,.09.14v2.51s0,.07-.06.07h0S22.44,28.46,22.44,28.42Z"/><path class="cls-2" d="M23.72,27.79c0-.44.32-.68.73-.79a.83.83,0,0,1-.27-.56.58.58,0,0,1,.6-.59.56.56,0,0,1,.58.55c0,.38-.3.54-.69.64l.83.78a2.37,2.37,0,0,0,.3-.76c0-.09.05-.12.09-.12A.06.06,0,0,1,26,27a2.82,2.82,0,0,1-.36.93l.57.52s0,.06-.07.06a.15.15,0,0,1-.11,0L25.51,28a1.18,1.18,0,0,1-.94.5A.75.75,0,0,1,23.72,27.79Zm1.71.14-.91-.85c-.35.11-.66.29-.66.7s.28.61.72.61A1,1,0,0,0,25.43,27.93Zm-.2-1.52a.43.43,0,0,0-.45-.44.45.45,0,0,0-.47.47.76.76,0,0,0,.27.52C25,26.87,25.23,26.74,25.23,26.41Z"/><path class="cls-2" d="M28.17,25.85a1.13,1.13,0,0,1,.81.3.59.59,0,0,1,.16.28c0,.07-.07.09-.08.08a.93.93,0,0,0-.9-.54,1.21,1.21,0,0,0,0,2.42.88.88,0,0,0,.91-.59s.09,0,.09.08a.65.65,0,0,1-.2.34,1.13,1.13,0,0,1-.81.29,1.23,1.23,0,0,1-1.27-1.32A1.25,1.25,0,0,1,28.17,25.85Z"/><path class="cls-2" d="M30.44,26.56a1,1,0,1,1-1,1A.95.95,0,0,1,30.44,26.56Zm0,.12a.86.86,0,0,0,0,1.72.86.86,0,0,0,0-1.72Z"/><path class="cls-2" d="M34.72,27.39v1s0,.07,0,.07h0s-.06,0-.06-.07v-1c0-.45-.21-.72-.6-.72a.66.66,0,0,0-.64.5v1.24s0,.07-.06.07h0s-.05,0-.05-.07V27.3a.57.57,0,0,0-.6-.62.71.71,0,0,0-.65.49v1.25s0,.07,0,.07h0s-.06,0-.06-.07V26.6a.07.07,0,0,1,0,0c.05,0,.09,0,.09.14V27a.72.72,0,0,1,.66-.43.64.64,0,0,1,.67.48.73.73,0,0,1,.7-.48C34.46,26.56,34.72,26.86,34.72,27.39Z"/><path class="cls-2" d="M38.16,27.39v1s0,.07-.06.07h0s0,0,0-.07v-1c0-.45-.22-.72-.6-.72a.67.67,0,0,0-.65.5v1.24s0,.07-.05.07h0s-.06,0-.06-.07V27.3a.56.56,0,0,0-.6-.62.69.69,0,0,0-.64.49v1.25s0,.07-.06.07h0s0,0,0-.07V26.6a.07.07,0,0,1,0,0s.08,0,.08.14V27a.73.73,0,0,1,.66-.43.66.66,0,0,1,.68.48.72.72,0,0,1,.7-.48C37.9,26.56,38.16,26.86,38.16,27.39Z"/><path class="cls-2" d="M39.52,26.56a.84.84,0,0,1,.85.9h0s0,.06-.07.06H38.71v0a.81.81,0,0,0,.83.81.7.7,0,0,0,.7-.41s.08,0,.08.08a.44.44,0,0,1-.14.22.91.91,0,0,1-.64.23.93.93,0,0,1-1-1A.94.94,0,0,1,39.52,26.56Zm0,.12a.8.8,0,0,0-.8.73h1.51A.7.7,0,0,0,39.52,26.68Z"/><path class="cls-2" d="M41.72,26.69s0,.07,0,.07a.34.34,0,0,0-.22-.08c-.34,0-.53.35-.53.86v.88s0,.07,0,.07h0s-.06,0-.06-.07V26.6a.07.07,0,0,1,0,0s.09,0,.09.14v.35c.07-.36.28-.51.54-.51S41.72,26.62,41.72,26.69Z"/><path class="cls-2" d="M42.82,26.56a.83.83,0,0,1,.64.24.44.44,0,0,1,.15.26c0,.06-.07.08-.08.07a.7.7,0,0,0-.71-.45.86.86,0,0,0,0,1.71.7.7,0,0,0,.71-.45s.08,0,.08.07a.46.46,0,0,1-.15.27.88.88,0,0,1-.64.23,1,1,0,0,1,0-2Z"/><path class="cls-2" d="M44.12,25.93c.07,0,.1,0,.1.11s0,.1-.11.1-.09,0-.09-.1S44.05,25.93,44.12,25.93Zm-.07.72s0-.07.06-.07h0s.06,0,.06.07v1.77s0,.07-.06.07h0s-.06,0-.06-.07Z"/><path class="cls-2" d="M46,27.41h0v-.12a.57.57,0,0,0-.62-.61.73.73,0,0,0-.68.37.08.08,0,0,1-.07-.08.31.31,0,0,1,.11-.17.88.88,0,0,1,.65-.24.68.68,0,0,1,.74.73v1.18a.08.08,0,0,1-.05,0s-.08,0-.08-.14V28a.8.8,0,0,1-.79.48c-.4,0-.66-.19-.66-.51S45,27.42,46,27.41Zm0,.1h0c-.92,0-1.26.16-1.26.49s.21.4.53.4a.73.73,0,0,0,.78-.68Z"/><path class="cls-2" d="M46.78,28.42V25.79s0,0,0,0,.09,0,.09.14v2.51s0,.07-.06.07h0S46.78,28.46,46.78,28.42Z"/></svg>