<svg id="Logo" xmlns="http://www.w3.org/2000/svg" viewBox="0 0 919 688"><defs><style>.cls-1{fill:#fff;stroke:#000;stroke-miterlimit:10;}.cls-2{fill:#414042;}.cls-3{fill:none;}.cls-4{fill:#1b75bc;}.cls-5{fill:#f26522;}.cls-6{fill:#fff200;}.cls-7{fill:#333;}.cls-8{fill:#58595b;}</style></defs><title>HM Melvin Logo</title><rect class="cls-1" x="0.5" y="0.5" width="918" height="687" rx="12"/><path class="cls-2" d="M414.44,348C450,324.47,489.07,311.43,532,307.53c-9.53-4.75-46-5.28-72.48-1.3a248.58,248.58,0,0,0-69.09,21.23c38.19-33.84,82.63-54.9,132.46-65.12-55.86,3.54-106.51,21.75-153.31,54.9C440.36,239,564.25,197.08,690.8,251.87c-18,65.11-40.3,128.65-73.65,189.26-21.87-24.87-46.86-43.54-77.15-54.62-29.88-10.92-60.86-13.47-92.4-12.36,36.81-16.67,75.43-20.66,115.27-17.88-23.65-10.12-48.26-15.42-73.76-16.89S439,341.53,414.44,348Z" transform="translate(-80.5 -196)"/><path class="cls-2" d="M658.88,465.79l-38-18.53c38.14-61.79,58.4-129.87,76.68-200.17l39,11.5c-14,28.77-14,55.84-.28,82.59a70.84,70.84,0,0,0,40,35.05c21.33,7.53,43.62,12.37,65.56,18.1,13.8,3.61,28,6,41.55,10.21,29.16,9,46.13,30.26,55.83,58.3,1.65,4.79.42,7.46-3.65,10.17-16,10.69-33.67,12.86-52.18,10.22-23.53-3.35-43.21-15.26-62.74-27.94-20-13-40.63-25.06-61.34-36.9-5.84-3.35-12.9-4.63-19.47-6.62-23-7-40,3.06-54.12,20C676.34,443.19,667.4,455,658.88,465.79Zm61.45-172.42c-9.46,36.17,10.25,73.52,40.49,92.46,24.37,15.27,52.84,18.11,80.46,22.13,34.89,5.09,67.09,14.36,89.32,44.68a35.49,35.49,0,0,0-4-8.6c-13.92-21.35-35.22-32-58.73-37.84-25.78-6.38-52.29-9.81-78.08-16.16-23.91-5.88-43.72-19-56.88-40.54C722.46,332.29,718.65,313.52,720.33,293.37Z" transform="translate(-80.5 -196)"/><path class="cls-3" d="M720.33,293.37c-1.68,20.15,2.13,38.92,12.62,56.13,13.16,21.59,33,34.66,56.88,40.54,25.79,6.35,52.3,9.78,78.08,16.16,23.51,5.83,44.81,16.49,58.73,37.84a35.49,35.49,0,0,1,4,8.6c-22.23-30.32-54.43-39.59-89.32-44.68-27.62-4-56.09-6.86-80.46-22.13C730.58,366.89,710.87,329.54,720.33,293.37Z" transform="translate(-80.5 -196)"/><path class="cls-4" d="M324.44,340.56c-5.3,1.61-9.83,3.39-13.7,4.91-7.91,3.09-15.57,7-23.33,10.54a317.08,317.08,0,0,0-45.59,25.33,202.54,202.54,0,0,0-32.36,27.22c-16.22,16.91-30.6,38.23-35.2,63.16-5.12,27.75,3.88,57.33,23.47,74.66C215,561.65,239,566.74,259,554.77c10.77-6.47,19.15-17.39,25-29.56,8.28-17.13,12.73-36.94,14.88-56.18,2.32-20.88,2.15-42.3,6.44-62.86,4.54-21.8,8.44-40,21.84-53.11,14.1-13.76,31-14.38,30.61-16.6S340.2,335.8,324.44,340.56Zm-26.83,25,0,.05c-.77,2.5-6.84,5.29-8.74,6.6a514.18,514.18,0,0,0-41,32.18c-13.58,11.59-26.83,24-37.46,39.2A149.09,149.09,0,0,0,186,503.16c-.34,1.92-1.15,4.36-2.87,4.3-1.53-.06-2.27-2.12-2.57-3.84-2.21-12.73-.31-26,3.39-38.24a112.93,112.93,0,0,1,12.58-27.26c22.78-36.15,60.54-56.79,94.92-74.57C293.35,362.57,298.81,361.22,297.61,365.53Z" transform="translate(-80.5 -196)"/><path class="cls-5" d="M349.56,357.94c-1.95,2-3.54,4-4.9,5.61-2.78,3.35-5.31,7-7.93,10.5a187,187,0,0,0-14.62,22.56,119.75,119.75,0,0,0-8.65,20c-3.72,11.46-5.84,24.34-3.13,36.31,3,13.32,12.37,23.84,23.94,26.35a25.51,25.51,0,0,0,27.56-11.94c3.37-5.54,4.88-12.4,5.1-19.17.31-9.52-1.5-19.23-4.19-28.11-2.92-9.63-7-18.86-9-28.86-2.15-10.59-3.91-19.48-.66-28.55,3.41-9.55,10.48-14.12,9.89-15S355.36,351.86,349.56,357.94Zm-6.72,17.63v0c.14,1.28-1.92,4-2.48,5.08-4.2,7.89-7.87,16.06-11.4,24.38s-6.9,17.22-8.57,26.5a79.07,79.07,0,0,0,.82,32c.22.92.33,2.18-.41,2.59s-1.36-.34-1.81-1c-3.32-4.95-5-11.19-5.72-17.42a60.74,60.74,0,0,1,.24-15c2.91-21.45,15.09-40,26.35-56.44C340.48,375.38,342.54,373.4,342.84,375.57Z" transform="translate(-80.5 -196)"/><path class="cls-6" d="M369.18,371.26c-.09,2.3,0,4.33,0,6.06.1,3.55.5,7.13.79,10.7a158.26,158.26,0,0,0,3.16,21.71,102,102,0,0,0,5.39,17c3.82,9.08,9.35,18.23,17.29,24.28,8.84,6.74,20,8.41,28.23,4a20.33,20.33,0,0,0,10.19-21.85,33.68,33.68,0,0,0-7.06-14.62,74.1,74.1,0,0,0-17.35-15.35c-6.83-4.48-14.14-8.11-20.63-13.29-6.88-5.49-12.62-10.12-15.46-17.47-3-7.74-1.18-14.28-2-14.51S369.44,364.45,369.18,371.26Zm5.28,14.52h0c.76.73,1,3.52,1.2,4.47,1.65,7.11,3.76,14.13,6,21.16a105.33,105.33,0,0,0,8.86,21A66.61,66.61,0,0,0,408,452c.62.46,1.35,1.19,1.13,1.83s-1,.5-1.62.31c-4.6-1.35-8.89-4.36-12.61-7.88a50.85,50.85,0,0,1-7.78-9.49c-9.57-14.9-12.08-32.82-14-49C373,386.89,373.14,384.58,374.46,385.78Z" transform="translate(-80.5 -196)"/><path class="cls-2" d="M422.11,550.92a10.1,10.1,0,0,0-6-6.61c6.66-11.73,12.69-21.81,17.34-29.93,6.5-11.28,7-18.34,4.8-22.7-.93-2-2.33-2.11-3.87-.15-6.19,8-19.82,31.87-29.88,51.27-10.21.6-19.81,3.16-30.49,4.51,6.81-12.48,13.16-23.15,17.65-31.57,5.72-10.68,6.19-18.05,3.87-22.26-.93-1.65-2.33-2-3.72-.15-6.34,8.72-20.74,34.74-30.65,54.74-2,0-4.17-.3-6.5-.45-2.63-.16-2.94.45-2,2.25a10,10,0,0,0,5.26,4.81c-3.09,6.77-5.72,12.18-6.65,15.34-2.63,9.17-1.55,13.38.77,16.54.93,1.36,2.17.91,2.79-.6,4.49-10.07,9.29-20,14.08-29.32,7.28,0,19.2-2,30.5-3.31a150.86,150.86,0,0,0-6.51,14.44c-3.09,9.17-1.7,13.53.47,16.54.93,1.35,2,1.2,2.63-.3,5.11-11.28,10.53-22.11,15.79-31.88a39.27,39.27,0,0,1,8.67.45C422,552.88,422.26,552.13,422.11,550.92Z" transform="translate(-80.5 -196)"/><path class="cls-2" d="M517.3,493c-17,25.71-39.62,48.12-56.5,74.89,5.89-21.06,11.46-38.65,16.41-53.09,4-11.88,2.32-17.14-3.71-22.25-2-1.66-3.56-1.05-5,.9C451.83,515.59,426.75,555.74,421,570c-3.56,9-1.85,14.14.31,16.39,1.09,1.21,2,1.21,2.64-.3C433.1,566,450.43,539,464.21,518.89c-6.81,20-11.92,40.76-13.31,49.33-1.55,9.32.77,14.58,5.88,18.19,1.24.9,2,.45,2.79-1,11.14-20.15,29.09-43.16,46.74-63.91-10.06,18.8-20,39.85-22.29,48.72-2.63,9.93-.77,14.44,1.7,16.39,1.24,1.06,1.86,1.06,2.48-.45,7.74-21.65,23.22-52,34.05-71.58,4.18-7.52,5.73-15.79-.46-21.95C519.93,490.77,518.69,490.92,517.3,493Z" transform="translate(-80.5 -196)"/><path class="cls-2" d="M644.53,492.58c-1.86-1.81-3.1-1.66-4.49.45-17,25.71-39.62,48.12-56.5,74.89,5.89-21.06,11.46-38.65,16.41-53.09,4-11.88,2.32-17.14-3.71-22.25-2-1.66-3.56-1.05-5,.9-16.71,22.11-41.79,62.26-47.51,76.54-3.56,9-1.86,14.14.31,16.39,1.08,1.21,2,1.21,2.63-.3C555.84,566,573.17,539,587,518.89c-6.81,20-11.92,40.76-13.31,49.33-1.55,9.32.77,14.58,5.88,18.19,1.24.9,2,.45,2.79-1,11.14-20.15,29.1-43.16,46.74-63.91-10.06,18.8-20,39.85-22.29,48.72-2.63,9.93-.77,14.44,1.7,16.39,1.24,1.06,1.86,1.06,2.48-.45,7.74-21.65,23.22-52,34-71.58C649.17,507,650.72,498.74,644.53,492.58Z" transform="translate(-80.5 -196)"/><path class="cls-2" d="M774.85,526c-.31-2-1.23-2.25-2.94-.6-10.52,10.53-31.11,37-42.1,54.59,2.17-16.39,5.26-24.82,8.05-36.39,2.17-9.18,1.39-14.74-3.71-18.95-1.24-1.05-2.48-.45-3.1,1.2a240.7,240.7,0,0,0-8.16,33,3,3,0,0,0-1.43,1.43c-6,11.58-16.87,22.4-24.3,21.8-7-.6-5.27-13.08.92-27.82C711.86,545.51,729.2,527.47,734,509c1.86-7.07.93-12.63-3.56-16.54-2.16-2-4.33-1.66-6.65.75-15.61,15.76-33,42.54-38.95,68.42-6.71,9.81-17.81,21.34-30.39,20.75-8.21-.45-11.92-9.92-7-23.76,10.84,8.57,21.21,4.66,28.79-4.36,6.5-7.67,7.74-16.84,5-20.45a28.5,28.5,0,0,0-9.13-7.82c-7.74-4.36-23.52,3.46-33.59,22.86S635.24,587,654.9,586.71c11-.14,22-6,28.7-14.12.47,9.19,5.73,13.44,13.87,13.67,9.93.24,19.17-7.75,23.55-13.24l0,.46c-.47,8,1.7,11,7.74,13.83,1.55.76,2.32-.3,3.09-1.5C746.68,563,760.77,548.52,768.51,539,773.46,533,775.32,529.12,774.85,526Zm-70.26,14.59c10.68-19.25,22.13-35.94,24.14-34.74s-6.65,25.26-27.86,42A76.12,76.12,0,0,1,704.59,540.55ZM673.47,532c2.17,1.65-1.23,9.47-6.19,15.79-4.48,5.71-10.83,12.18-18.42,7.51C656,539.19,670.22,529.42,673.47,532Z" transform="translate(-80.5 -196)"/><path class="cls-2" d="M798.54,525.36a8.9,8.9,0,0,0,1.08-10.08c-2-4.06-6.5-5.86-9-3.3a9.1,9.1,0,0,0-.78,11.12C792.19,527,796.53,527.47,798.54,525.36Z" transform="translate(-80.5 -196)"/><path class="cls-2" d="M859.21,561.45c-.77-1.2-1.86-1.2-2.63.15-5.88,10.53-13.47,20.45-19.81,20.75-5.57.3-6.5-6.76-2.48-15.49,3.56-7.82,11.15-18.94,14.4-25.56,3.87-7.82-.93-15.19-6-15.94s-15.63,7.52-22.6,14.74c1.7-5.42,1.86-10.53-.46-14.29-.93-1.5-2.17-1.65-3.25,0-9.44,13.53-20.9,33.53-24.44,43.4-4.67,7.16-10.75,12.77-16,13-5,.3-5.26-5.56-1.55-14.28,3.25-7.52,9.75-17.75,13-24.36,3.72-7.52,2.48-14,.16-16.4-1.24-1.35-2.32-.9-3.72.91-5.72,7.82-15.94,25.56-19.81,36.54-4.33,12.33-1.39,21.95,10.37,21.95,5.39,0,11.2-2.44,15.93-6.52a9.73,9.73,0,0,0,2.8,5.62c1.39,1.35,2.32.75,2.94-.6,6.66-14.14,13.47-28.57,22.6-38.2,9.9-10.52,18.88-14.73,20.43-14.13,2.79,1.2-10.83,17.14-15.94,31.88-4.49,13.08-1.4,22.4,11.76,22.4,9,0,18.73-7.67,22.91-16.09C860,566.56,860.3,563.1,859.21,561.45Z" transform="translate(-80.5 -196)"/><path class="cls-2" d="M274,666.33c9.56-13.39,14.34-28.05,8.44-43.2-6.75-17.44-19.12-21.48-33.46-21-19.12.75-40.21,11.37-63.54,13.64-3.66.25-4.22,1.77-2.81,4.55,2.81,5.3,8.15,9.6,17.71,10.61-24.46,34.61-50.89,82.1-58.2,105.1-4.22,13.64-1.41,21.22,2.53,25,2,1.76,3.37,1.76,4.5-.76,9.84-21,18.27-37.65,26.15-51.54a28.24,28.24,0,0,0,17.43,2.53C229.54,705,259.91,686,274,666.33Zm-90.53,28.29c8.43-14.15,16.31-25.77,23.62-37.39,7.87-12.13,10.68-21,10.68-27.79,18.56-4.8,46.67-17.94,52.58-4C277.9,643.08,246.41,684,183.43,694.62Z" transform="translate(-80.5 -196)"/><path class="cls-2" d="M432,660.52a14.06,14.06,0,0,0,2-16.93c-3.66-6.82-11.81-9.85-16.31-5.56s-5.9,11.87-1.4,18.7C420.44,663.3,428.32,664.05,432,660.52Z" transform="translate(-80.5 -196)"/><path class="cls-2" d="M658,660.52a14.07,14.07,0,0,0,2-16.93c-3.66-6.82-11.81-9.85-16.31-5.56s-5.91,11.87-1.41,18.7C646.49,663.3,654.36,664.05,658,660.52Z" transform="translate(-80.5 -196)"/><path class="cls-2" d="M881.54,722.16c-.56-2.53-3.1-2.53-4.78-.51a137.49,137.49,0,0,1-50.33,37.9c11.81-24.51,29.52-55.07,38-70.23,7-12.38,4.78-23.25.56-27.79-2-2.28-4.78-2-7,1.51l-9.28,13.9c.28-8.84-5.34-16.68-16.59-16.68-14.34,0-37.11,11.37-59,40.68a74.45,74.45,0,0,0-13,25.88c-10.11,15.53-22.26,29-32.6,29.45-10.12.5-11.81-11.37-4.5-26,6.47-13.13,20.25-31.83,26.15-42.94,7-13.14-1.69-25.52-11-26.78s-28.4,12.63-41,24.75c3.09-9.09,3.37-17.68-.85-24-1.68-2.52-3.93-2.78-5.9,0C673.22,684,652.4,717.6,646,734.18c-8.49,12-19.53,21.45-29,21.83-9,.51-9.56-9.34-2.81-24,5.9-12.63,17.71-29.81,23.61-40.93,6.75-12.63,4.5-23.49.29-27.53-2.25-2.28-4.22-1.52-6.75,1.51-10.36,13.09-28.82,42.72-35.91,61.18-10.26,16.52-24.22,30.73-35.51,30.28-11.8-.51-14.9-16.17-5.62-34.61C565,700.69,581,676.18,592,659.25c7-1,15.74-1.77,21.93-1,4.22,0,5.34-1.77,3.37-4.8-2.25-3.28-6.46-7.83-17.43-7.58,6.75-13.13,6.75-21.47,3.66-28.55-1.41-3-4.22-3.28-6.75,0-4.78,5.56-12.65,17.44-21.37,31.33a178.34,178.34,0,0,1-23.34,1c-4.21-.25-5.9,1.52-3.09,5.06,2.25,2.77,8.72,6.56,18.28,6.56-12.09,20-23.9,41.18-29.81,53.82a57.74,57.74,0,0,0-4.43,13.3c-9.89,14.86-21.57,27.44-31.55,27.88-10.13.5-11.81-11.37-4.5-26,6.46-13.13,20.24-31.83,26.14-42.94,7-13.14-1.68-25.52-11-26.78s-28.4,12.63-41.05,24.75c3.09-9.09,3.37-17.68-.84-24-1.69-2.52-3.94-2.78-5.91,0-17.13,22.73-37.95,56.33-44.38,72.91-8.49,12-19.53,21.45-29,21.83-9,.51-9.56-9.34-2.81-24,5.9-12.63,17.71-29.81,23.62-40.93,6.75-12.63,4.5-23.49.28-27.53-2.25-2.28-4.22-1.52-6.75,1.51-10.4,13.14-29,43-36,61.4-.35.92-.66,1.82-1,2.72-9.63,14.54-22.36,27.16-32.21,27.59-9.56.51-9.28-10.36-2.25-24.5,6.75-13.39,20.8-32.34,27-43.71,6.75-12.63,4.5-23.5.28-28q-3-3.42-6.75,1.51a178.08,178.08,0,0,0-10.12,15.41c.56-9.85-5.06-18.19-17.15-18.19-14.06,0-36.27,11.37-59,41.18-23.34,30.57-18,62.66,8.15,62.66,13.5,0,26.15-9.35,35.15-19.71,0,11.87,7.87,20,23.05,20.72,11.06.54,23.26-6.41,32-15.49,2,9,9,14.73,21.71,14.73,9.78,0,20.32-4.1,28.93-11a15.81,15.81,0,0,0,5.09,9.44c2.53,2.28,4.21,1.27,5.34-1,12.09-23.74,24.46-48,41-64.17,18-17.68,34.3-24.76,37.11-23.74,5.06,2-19.68,28.8-29,53.56-8.15,22-2.53,37.64,21.37,37.64,12.88,0,26.63-8,35.58-18.38,3.5,10.95,13,17.33,23.74,17.62,14,.47,26.51-8,34.82-16.2,1.49,9.85,8.58,16.2,22,16.2,9.78,0,20.32-4.1,28.92-11a15.86,15.86,0,0,0,5.09,9.44c2.54,2.28,4.22,1.27,5.35-1,12.09-23.74,24.46-48,41.05-64.17,18-17.68,34.3-24.76,37.11-23.74,5.06,2-19.68,28.8-29,53.56-8.15,22-2.53,37.64,21.37,37.64,12.74,0,26.33-7.86,35.29-18.05,2.43,10.13,9.91,16.78,21.78,16.78,10.41,0,20.25-5.3,28.4-12.63-2.81,5.81-5.34,11.88-8.15,17.44-27.84,9.6-52,25-60.17,47.74-5.34,14.91-.28,23.75,5.62,31.33,5.06,6.57,10.68,7.33,16.31,5.31,22.77-8.09,42.74-48.26,58.2-82.11,23.34-7.58,43.58-17.69,54.54-33.1C880.69,730,882.1,724.43,881.54,722.16ZM279.3,754.75c-11-.25-7.31-22.48,7.59-44.21,15.47-22.49,36-38.91,45-38.15,8.15.76,5.62,16.42-12.09,44.21C305.45,738.83,290.83,755,279.3,754.75Zm473.18,83.12c-4.78-6.06,7.6-40.68,44.15-59.88C778.35,816.39,756.14,842.67,752.48,837.87ZM784.54,755c-11.25-.25-8.16-22.48,7-44.21,15.46-22,36-38.15,44.7-37.64,8.15.5,5.62,16.17-12.09,44C809.84,739.34,795.5,755.25,784.54,755Z" transform="translate(-80.5 -196)"/><line class="cls-2" x1="247.43" y1="401.26" x2="801.02" y2="401.26"/><rect class="cls-7" x="247.43" y="399.44" width="553.59" height="3.64"/><path class="cls-2" d="M881.52,597.27h0Z" transform="translate(-80.5 -196)"/><rect class="cls-7" x="799.78" y="399.45" width="1.38" height="3.64"/><path class="cls-2" d="M876.12,597.27h0Z" transform="translate(-80.5 -196)"/><rect class="cls-7" x="794.02" y="399.45" width="5.29" height="3.64"/><path class="cls-2" d="M797.61,597.27h0Z" transform="translate(-80.5 -196)"/><rect class="cls-7" x="717.11" y="399.45" width="0.51" height="3.64"/><path class="cls-2" d="M749,597.27h0Z" transform="translate(-80.5 -196)"/><polygon class="cls-7" points="669.01 403.08 668.46 403.08 668.47 399.45 669.01 399.45 669.01 403.08"/><path class="cls-2" d="M740.66,597.27h0Z" transform="translate(-80.5 -196)"/><rect class="cls-7" x="660.17" y="399.45" width="0.49" height="3.64"/><path class="cls-2" d="M797.61,597.27h0Z" transform="translate(-80.5 -196)"/><polygon class="cls-7" points="717.11 403.08 715.8 403.08 715.81 401.27 715.8 399.45 717.11 399.45 717.11 403.08"/><path class="cls-2" d="M865.29,597.27h0Z" transform="translate(-80.5 -196)"/><rect class="cls-7" x="784.79" y="399.45" width="0.71" height="3.64"/><path class="cls-2" d="M819.05,597.27h0Z" transform="translate(-80.5 -196)"/><rect class="cls-7" x="738.55" y="399.45" width="0.72" height="3.64"/><path class="cls-2" d="M835.51,597.27h0Z" transform="translate(-80.5 -196)"/><rect class="cls-7" x="754.36" y="399.45" width="0.81" height="3.64"/><path class="cls-2" d="M861.6,597.27h0Z" transform="translate(-80.5 -196)"/><rect class="cls-7" x="781.11" y="399.45" width="0.46" height="3.64"/><path class="cls-2" d="M807.28,597.27h0Z" transform="translate(-80.5 -196)"/><polygon class="cls-7" points="726.77 403.08 726.62 403.08 726.62 399.45 726.77 403.08"/><path class="cls-2" d="M347,597.27Z" transform="translate(-80.5 -196)"/><polygon class="cls-7" points="266.5 403.08 266.42 403.08 266.42 399.45 266.5 403.08"/><path class="cls-2" d="M327.93,597.27h0Z" transform="translate(-80.5 -196)"/><polygon class="cls-7" points="247.75 403.08 247.43 399.45 247.75 399.45 247.75 403.08"/><path class="cls-2" d="M725.47,597.27h0Z" transform="translate(-80.5 -196)"/><polygon class="cls-7" points="645.25 403.08 644.97 399.45 645.25 399.45 645.25 403.08"/><path class="cls-2" d="M585.94,597.27h0Z" transform="translate(-80.5 -196)"/><rect class="cls-7" x="504.49" y="399.45" width="1.73" height="3.64"/><path class="cls-2" d="M864.87,597.27h0Z" transform="translate(-80.5 -196)"/><rect class="cls-7" x="783.69" y="399.45" width="0.68" height="3.64"/><path class="cls-2" d="M585.74,597.27Z" transform="translate(-80.5 -196)"/><polygon class="cls-7" points="505.49 403.08 505.24 399.45 505.49 399.45 505.49 403.08"/><path class="cls-2" d="M690.45,597.27h0Z" transform="translate(-80.5 -196)"/><polygon class="cls-7" points="610.3 403.08 609.95 399.45 610.3 399.45 610.3 403.08"/><path class="cls-2" d="M716.53,597.27h0Z" transform="translate(-80.5 -196)"/><rect class="cls-7" x="635.39" y="399.45" width="0.64" height="3.64"/><path class="cls-2" d="M676.9,597.27h0Z" transform="translate(-80.5 -196)"/><rect class="cls-7" x="595.45" y="399.45" width="0.95" height="3.64"/><path class="cls-2" d="M662.8,597.27h0Z" transform="translate(-80.5 -196)"/><rect class="cls-7" x="582.3" y="399.45" width="0.71" height="3.64"/><path class="cls-2" d="M389.85,597.27h0Z" transform="translate(-80.5 -196)"/><polygon class="cls-7" points="309.35 403.08 308.1 403.08 308.1 399.45 308.7 402.99 308.1 399.45 309.35 399.45 309.35 403.08"/><path class="cls-2" d="M865.28,597.27h0Z" transform="translate(-80.5 -196)"/><rect class="cls-7" x="784.37" y="399.45" width="0.5" height="3.64"/><path class="cls-2" d="M676.33,597.27h0Z" transform="translate(-80.5 -196)"/><rect class="cls-7" x="593.59" y="399.45" width="2.24" height="3.64"/><path class="cls-2" d="M491,597.27h0Z" transform="translate(-80.5 -196)"/><rect class="cls-7" x="409.98" y="399.45" width="0.51" height="3.64"/><path class="cls-2" d="M667.44,597.27h0Z" transform="translate(-80.5 -196)"/><rect class="cls-7" x="585.42" y="399.45" width="1.52" height="3.64"/><path class="cls-2" d="M389.19,597.27h0Z" transform="translate(-80.5 -196)"/><circle class="cls-7" cx="308.7" cy="401.27" r="1.82"/><path class="cls-2" d="M374.44,597.27h0Zm49.85,0Zm4.19,0h0Zm-8.86,0h0Z" transform="translate(-80.5 -196)"/><path class="cls-7" d="M873.49,599.08H337.82l.15-1.32-.46-2.31h536Zm-24.11,0,.12-1.31-.34-2.14ZM728.69,596.7v2.38l.06-1.43Zm-330.08,2.38-.09-3.63Zm-.86-2.15v2.15l.17-1.35Zm-59.93,2.15h-.77l.23-1.85-.26-.9,0,2.75h-9.2l0-3.63h9.61Z" transform="translate(-80.5 -196)"/><path class="cls-2" d="M418.43,597.27h0Z" transform="translate(-80.5 -196)"/><rect class="cls-7" x="337.65" y="399.45" width="0.63" height="3.64"/><path class="cls-2" d="M798.21,597.27h0Z" transform="translate(-80.5 -196)"/><polygon class="cls-7" points="717.8 403.08 717.62 403.08 717.8 399.45 717.8 403.08"/><polygon class="cls-2" points="405.83 401.27 405.83 401.27 405.46 401.27 405.83 401.27"/><polygon class="cls-7" points="405.83 403.08 405.46 403.08 405.46 399.45 405.83 403.08"/><path class="cls-2" d="M821.28,597.27h0Z" transform="translate(-80.5 -196)"/><polygon class="cls-7" points="741.08 403.08 740.78 399.45 741.08 399.45 741.08 403.08"/><path class="cls-2" d="M831.25,597.27h0Z" transform="translate(-80.5 -196)"/><rect class="cls-7" x="750.75" y="399.45" width="1.41" height="3.64"/><path class="cls-2" d="M838.91,597.27h0Z" transform="translate(-80.5 -196)"/><polygon class="cls-7" points="758.56 403.08 758.41 399.45 758.56 399.45 758.56 403.08"/><path class="cls-2" d="M717.06,597.27h0Z" transform="translate(-80.5 -196)"/><rect class="cls-7" x="635.92" y="399.45" width="0.64" height="3.64"/><path class="cls-2" d="M753.32,597.27h0Z" transform="translate(-80.5 -196)"/><rect class="cls-7" x="671.66" y="399.45" width="1.16" height="3.64"/><path class="cls-2" d="M676.57,597.27h0Z" transform="translate(-80.5 -196)"/><polygon class="cls-7" points="596.07 403.08 595.82 403.08 595.82 399.45 596.07 403.08"/><path class="cls-2" d="M750.47,597.27h0Z" transform="translate(-80.5 -196)"/><rect class="cls-7" x="669.97" y="399.45" width="1.69" height="3.64"/><path class="cls-2" d="M872.13,597.27h0Z" transform="translate(-80.5 -196)"/><polygon class="cls-7" points="792.04 403.08 791.62 399.45 792.04 399.45 792.04 403.08"/><path class="cls-2" d="M872.54,597.27h0Z" transform="translate(-80.5 -196)"/><polygon class="cls-7" points="792.45 403.08 792.04 399.45 792.45 399.45 792.45 403.08"/><path class="cls-2" d="M873.81,597.27h0Z" transform="translate(-80.5 -196)"/><rect class="cls-7" x="792.45" y="399.45" width="0.87" height="3.64"/><path class="cls-2" d="M862,597.27h0Z" transform="translate(-80.5 -196)"/><polygon class="cls-7" points="781.48 403.08 781.37 403.08 781.37 399.45 781.48 403.08"/><path class="cls-2" d="M858.9,597.27h0Z" transform="translate(-80.5 -196)"/><rect class="cls-7" x="778.4" y="399.45" width="2.97" height="3.64"/><path class="cls-2" d="M846,597.27h0Z" transform="translate(-80.5 -196)"/><rect class="cls-7" x="765.53" y="399.45" width="2.71" height="3.64"/><path class="cls-2" d="M838,597.27h0Z" transform="translate(-80.5 -196)"/><polygon class="cls-7" points="758.14 403.08 756.83 403.08 756.83 399.45 758.14 399.45 757.83 401.27 758.14 403.08"/><path class="cls-2" d="M780.13,597.27h0Z" transform="translate(-80.5 -196)"/><rect class="cls-7" x="699.29" y="399.45" width="0.48" height="3.64"/><polygon class="cls-2" points="688.57 401.27 689.61 401.27 690.1 401.27 688.57 401.27"/><rect class="cls-7" x="688.56" y="399.45" width="1.54" height="3.64"/><polygon class="cls-2" points="682.03 401.27 682.5 401.27 680.71 401.27 682.03 401.27"/><rect class="cls-7" x="680.71" y="399.45" width="1.78" height="3.64"/><path class="cls-2" d="M665.31,597.27h0Z" transform="translate(-80.5 -196)"/><rect class="cls-7" x="584.81" y="399.45" width="0.89" height="3.64"/><path class="cls-2" d="M623.34,597.27h0Z" transform="translate(-80.5 -196)"/><rect class="cls-7" x="540.47" y="399.45" width="2.37" height="3.64"/><polygon class="cls-2" points="416.96 401.27 417.81 401.27 416.22 401.27 416.96 401.27"/><rect class="cls-7" x="416.22" y="399.45" width="1.59" height="3.64"/><path class="cls-8" d="M159.48,773.82a12.47,12.47,0,0,1,9.31,3.61,6.18,6.18,0,0,1,1.94,3.6,1.6,1.6,0,0,1-1.56,1.62,10.2,10.2,0,0,0-9.69-6.57c-7.1,0-12.06,6.3-12.06,15.72,0,9.26,4.85,15.56,12.22,15.56,5.65,0,8.51-3.66,9.58-7.43a1.53,1.53,0,0,1,1.78,1.51,7.34,7.34,0,0,1-1.83,4c-1.94,2.53-5.49,4.15-9.69,4.15-9,0-14.86-7.38-14.86-17.82S150.6,773.82,159.48,773.82Z" transform="translate(-80.5 -196)"/><path class="cls-8" d="M186.44,783.19c6.78,0,11.36,5.33,11.36,13.35,0,7.75-4.63,13.08-11.36,13.08S175,804.24,175,796.43C175,788.46,179.61,783.19,186.44,783.19Zm.06,2.15c-5.28,0-8.78,4.26-8.78,11.09s3.5,11,8.78,11c5.11,0,8.61-4.2,8.61-11S191.66,785.34,186.5,785.34Z" transform="translate(-80.5 -196)"/><path class="cls-8" d="M237.47,793.63v14.48c0,.86-.43,1.19-1.08,1.19H236c-.65,0-1.08-.33-1.08-1.19V793.69c0-5.6-2.2-8.19-6-8.19-3.28,0-6,2.37-7,5.87v16.74c0,.86-.43,1.19-1.13,1.19h-.38c-.69,0-1.07-.33-1.07-1.19v-14.8c0-5.22-2.15-7.81-6-7.81-3.23,0-5.87,2.42-7.11,5.76v16.85c0,.86-.43,1.19-1.07,1.19h-.43c-.65,0-1.08-.33-1.08-1.19V783.78c0-.11.48-.27.92-.27,1.07,0,1.56.86,1.56,2.32v2.8a8.18,8.18,0,0,1,7.64-5.44,7.34,7.34,0,0,1,7.54,5.6,8.66,8.66,0,0,1,8.07-5.6C234.34,783.19,237.47,786.63,237.47,793.63Z" transform="translate(-80.5 -196)"/><path class="cls-8" d="M278.64,793.63v14.48c0,.86-.43,1.19-1.08,1.19h-.43c-.65,0-1.08-.33-1.08-1.19V793.69c0-5.6-2.2-8.19-6-8.19-3.28,0-6,2.37-7,5.87v16.74c0,.86-.43,1.19-1.13,1.19h-.38c-.69,0-1.07-.33-1.07-1.19v-14.8c0-5.22-2.15-7.81-6-7.81-3.23,0-5.87,2.42-7.1,5.76v16.85c0,.86-.43,1.19-1.08,1.19h-.43c-.65,0-1.08-.33-1.08-1.19V783.78c0-.11.49-.27.92-.27,1.07,0,1.56.86,1.56,2.32v2.8a8.18,8.18,0,0,1,7.64-5.44,7.34,7.34,0,0,1,7.54,5.6,8.66,8.66,0,0,1,8.07-5.6C275.51,783.19,278.64,786.63,278.64,793.63Z" transform="translate(-80.5 -196)"/><path class="cls-8" d="M287.46,773.88a1.7,1.7,0,0,1,1.88,1.88,1.73,1.73,0,0,1-1.94,1.83,1.67,1.67,0,0,1-1.83-1.83A1.7,1.7,0,0,1,287.46,773.88Zm-1.29,10.87c0-1,.43-1.24,1.13-1.24h.32c.65,0,1.13.27,1.13,1.24v23.31c0,1-.48,1.24-1.13,1.24h-.32c-.7,0-1.13-.28-1.13-1.24Z" transform="translate(-80.5 -196)"/><path class="cls-8" d="M297.52,802.41V785.88h-2.91c-.75,0-1-.32-1-.91v-.33c0-.59.22-1,1-1h2.91v-5.06c0-1,.49-1.24,1.13-1.24h.27c.65,0,1.13.28,1.13,1.24v5.06h6.19a.93.93,0,0,1,1.07,1v.27c0,.65-.37,1-1.07,1h-6.19V802.3c0,3.6,1.24,5.06,3.55,5.06a4.33,4.33,0,0,0,3.55-1.83c.11-.06.86.21.86,1.23a2.26,2.26,0,0,1-1.18,1.89,4.92,4.92,0,0,1-3.34,1C300,809.67,297.52,807.68,297.52,802.41Z" transform="translate(-80.5 -196)"/><path class="cls-8" d="M313.45,802.41V785.88h-2.91c-.75,0-1-.32-1-.91v-.33c0-.59.22-1,1-1h2.91v-5.06c0-1,.48-1.24,1.13-1.24h.27c.64,0,1.13.28,1.13,1.24v5.06h6.19a.93.93,0,0,1,1.07,1v.27c0,.65-.37,1-1.07,1H316V802.3c0,3.6,1.24,5.06,3.55,5.06a4.33,4.33,0,0,0,3.55-1.83c.11-.06.86.21.86,1.23a2.26,2.26,0,0,1-1.18,1.89,4.92,4.92,0,0,1-3.34,1C315.92,809.67,313.45,807.68,313.45,802.41Z" transform="translate(-80.5 -196)"/><path class="cls-8" d="M337.56,783.19c6.41,0,10.28,4.84,10.28,12.27v.32c0,.76-.37,1-1.13,1h-17.6v.65c.11,6.3,3.55,10,8.67,10a7.47,7.47,0,0,0,7.59-5.22,1.62,1.62,0,0,1,1.61,1.56,4.61,4.61,0,0,1-1.34,2.69,10.11,10.11,0,0,1-7.81,3.18c-6.89,0-11.36-5-11.36-13.08S331,783.19,337.56,783.19Zm0,2.15c-4.57,0-7.75,3.5-8.34,9.26h16C345.1,789.06,342.35,785.34,337.56,785.34Z" transform="translate(-80.5 -196)"/><path class="cls-8" d="M351.66,796.38c0-7.75,4.36-13.19,10.44-13.19a8.83,8.83,0,0,1,8.56,5.49V773c0-.16.43-.32.91-.32,1,0,1.62.54,1.62,2.31v33.21c0,.92-.49,1.14-1,1.14h-.43c-.54,0-1-.28-1-1.14V803.7a8.72,8.72,0,0,1-8.62,5.92C356,809.62,351.66,804.24,351.66,796.38Zm19-4.09c-1.24-4.15-4-6.89-8.13-6.89-4.68,0-8.23,4.35-8.23,10.87s3.44,11.14,8.29,11.14c4.68,0,8-4,8.07-9.09Z" transform="translate(-80.5 -196)"/><path class="cls-8" d="M389.76,802.41V785.88h-2.9c-.76,0-1-.32-1-.91v-.33c0-.59.21-1,1-1h2.9v-5.06c0-1,.49-1.24,1.13-1.24h.27c.65,0,1.13.28,1.13,1.24v5.06h6.19c.7,0,1.08.38,1.08,1v.27c0,.65-.38,1-1.08,1h-6.19V802.3c0,3.6,1.24,5.06,3.56,5.06a4.34,4.34,0,0,0,3.55-1.83c.11-.06.86.21.86,1.23a2.28,2.28,0,0,1-1.18,1.89,4.94,4.94,0,0,1-3.34,1C392.24,809.67,389.76,807.68,389.76,802.41Z" transform="translate(-80.5 -196)"/><path class="cls-8" d="M414.2,783.19c6.78,0,11.35,5.33,11.35,13.35,0,7.75-4.63,13.08-11.35,13.08s-11.41-5.38-11.41-13.19C402.79,788.46,407.36,783.19,414.2,783.19Zm.05,2.15c-5.27,0-8.77,4.26-8.77,11.09s3.5,11,8.77,11c5.11,0,8.61-4.2,8.61-11S419.42,785.34,414.25,785.34Z" transform="translate(-80.5 -196)"/><path class="cls-8" d="M440.35,807.52v-31.6a1.48,1.48,0,0,1,1.56-1.61h17.66c.86,0,1.34.32,1.34,1v.38c0,.69-.48,1-1.34,1H443v13.35h12.43c.87,0,1.3.32,1.3,1v.22c0,.75-.49,1.13-1.3,1.13H443v14.26H460.1c.81,0,1.3.33,1.3,1v.38c0,.7-.49,1.07-1.3,1.07H441.91A1.48,1.48,0,0,1,440.35,807.52Z" transform="translate(-80.5 -196)"/><path class="cls-8" d="M471.51,796.32l-8.07-11.84c-.11-.16.43-1,1.4-1,.75,0,1.18.43,1.67,1.23l6.61,10,6.57-9.86c.65-1,1.08-1.34,1.72-1.34,1,0,1.51.86,1.4,1l-8.18,11.84,8.18,11.95c.11.22-.48,1-1.4,1-.75,0-1.13-.37-1.67-1.24L473,797.94l-6.62,10c-.54.86-1,1.29-1.72,1.29-1,0-1.51-.8-1.4-1Z" transform="translate(-80.5 -196)"/><path class="cls-8" d="M497.13,783.19a9.34,9.34,0,0,1,7.64,3.33,5.33,5.33,0,0,1,1.45,3.18A1.37,1.37,0,0,1,504.5,791a7.38,7.38,0,0,0-7.43-5.59c-5.16,0-8.61,4.41-8.61,11,0,6.78,3.55,11,8.61,11a7.41,7.41,0,0,0,7.43-5.86,1.4,1.4,0,0,1,1.72,1.39,6.24,6.24,0,0,1-1.61,3.5,9.49,9.49,0,0,1-7.59,3.18c-6.89,0-11.25-5.49-11.25-13.19S490.29,783.19,497.13,783.19Z" transform="translate(-80.5 -196)"/><path class="cls-8" d="M521.08,783.19c6.4,0,10.27,4.84,10.27,12.27v.32c0,.76-.37,1-1.12,1h-17.6v.65c.1,6.3,3.55,10,8.66,10a7.46,7.46,0,0,0,7.59-5.22,1.62,1.62,0,0,1,1.61,1.56,4.61,4.61,0,0,1-1.34,2.69,10.1,10.1,0,0,1-7.8,3.18c-6.89,0-11.36-5-11.36-13.08S514.51,783.19,521.08,783.19Zm0,2.15c-4.58,0-7.76,3.5-8.35,9.26h16C528.61,789.06,525.87,785.34,521.08,785.34Z" transform="translate(-80.5 -196)"/><path class="cls-8" d="M537.17,808.06V773c0-.16.38-.32.91-.32.86,0,1.62.54,1.62,2.37v33c0,.91-.43,1.24-1.13,1.24h-.27C537.6,809.3,537.17,809,537.17,808.06Z" transform="translate(-80.5 -196)"/><path class="cls-8" d="M547.72,808.06V773c0-.16.37-.32.91-.32.86,0,1.61.54,1.61,2.37v33c0,.91-.43,1.24-1.12,1.24h-.28C548.15,809.3,547.72,809,547.72,808.06Z" transform="translate(-80.5 -196)"/><path class="cls-8" d="M567.31,783.19c6.4,0,10.28,4.84,10.28,12.27v.32c0,.76-.38,1-1.13,1h-17.6v.65c.1,6.3,3.55,10,8.67,10a7.45,7.45,0,0,0,7.58-5.22,1.62,1.62,0,0,1,1.62,1.56,4.57,4.57,0,0,1-1.35,2.69,10.09,10.09,0,0,1-7.8,3.18c-6.89,0-11.36-5-11.36-13.08S560.74,783.19,567.31,783.19Zm0,2.15c-4.58,0-7.75,3.5-8.35,9.26h16C574.85,789.06,572.1,785.34,567.31,785.34Z" transform="translate(-80.5 -196)"/><path class="cls-8" d="M602.5,793.74v14.32c0,1-.48,1.24-1.13,1.24h-.32c-.7,0-1.13-.28-1.13-1.24V793.79c0-5.59-2.37-8.29-6.51-8.29-3.83,0-6.35,2.42-7.7,5.71v16.85c0,1-.43,1.24-1.13,1.24h-.27c-.7,0-1.18-.28-1.18-1.24V783.78c0-.11.48-.27.91-.27,1.13,0,1.56.92,1.56,2.53v2.59a8.55,8.55,0,0,1,8.24-5.44C599.27,783.19,602.5,786.8,602.5,793.74Z" transform="translate(-80.5 -196)"/><path class="cls-8" d="M619.29,783.19a9.36,9.36,0,0,1,7.65,3.33,5.39,5.39,0,0,1,1.45,3.18,1.37,1.37,0,0,1-1.72,1.29,7.38,7.38,0,0,0-7.43-5.59c-5.17,0-8.61,4.41-8.61,11,0,6.78,3.55,11,8.61,11a7.43,7.43,0,0,0,7.43-5.86,1.4,1.4,0,0,1,1.72,1.39,6.24,6.24,0,0,1-1.61,3.5,9.51,9.51,0,0,1-7.6,3.18c-6.89,0-11.24-5.49-11.24-13.19S612.46,783.19,619.29,783.19Z" transform="translate(-80.5 -196)"/><path class="cls-8" d="M643.24,783.19c6.41,0,10.28,4.84,10.28,12.27v.32c0,.76-.38,1-1.13,1h-17.6v.65c.11,6.3,3.55,10,8.67,10a7.46,7.46,0,0,0,7.59-5.22,1.62,1.62,0,0,1,1.61,1.56,4.57,4.57,0,0,1-1.35,2.69,10.09,10.09,0,0,1-7.8,3.18c-6.89,0-11.35-5-11.35-13.08S636.68,783.19,643.24,783.19Zm0,2.15c-4.57,0-7.75,3.5-8.34,9.26h16C650.78,789.06,648,785.34,643.24,785.34Z" transform="translate(-80.5 -196)"/></svg>