<svg id="Layer_1" data-name="Layer 1" xmlns="http://www.w3.org/2000/svg" viewBox="0 0 500 500"><defs><style>.cls-1{fill:#ff4500;}.cls-2{fill:#fff;}.cls-3{fill:#404041;}.cls-4{fill:none;}.cls-5{fill:#0071bc;}.cls-6{fill:#ff0;}.cls-7{fill:#333;}.cls-8{fill:#58595b;}</style></defs><title>HM Melvin Logo Profile Pic</title><rect class="cls-1" width="500" height="500"/><circle class="cls-2" cx="250" cy="250" r="218"/><path class="cls-3" d="M196.64,168.4a106.44,106.44,0,0,1,49.94-17.18c-4.05-2-19.55-2.24-30.8-.55a106,106,0,0,0-29.37,9c16.23-14.38,35.12-23.33,56.3-27.67-23.74,1.5-45.27,9.24-65.16,23.33,30.1-33.25,82.76-51.07,136.54-27.79-7.67,27.68-17.13,54.68-31.3,80.44-9.3-10.57-19.92-18.51-32.79-23.21-12.7-4.64-25.86-5.73-39.27-5.26,15.64-7.08,32.06-8.78,49-7.6a92.51,92.51,0,0,0-31.35-7.17A101.82,101.82,0,0,0,196.64,168.4Z"/><path class="cls-3" d="M300.53,218.48l-16.13-7.87c16.2-26.27,24.81-55.2,32.58-85.08l16.59,4.89c-6,12.23-5.93,23.73-.12,35.1a30.13,30.13,0,0,0,17,14.9c9.06,3.2,18.54,5.25,27.86,7.69,5.87,1.53,11.88,2.54,17.66,4.34,12.39,3.85,19.61,12.86,23.73,24.78.7,2,.17,3.17-1.55,4.32-6.81,4.54-14.31,5.46-22.18,4.34-10-1.42-18.36-6.48-26.66-11.87-8.51-5.52-17.27-10.65-26.07-15.69-2.49-1.42-5.49-2-8.28-2.81-9.8-3-17,1.3-23,8.52C307.94,208.88,304.15,213.89,300.53,218.48Zm26.11-73.28c-4,15.38,4.36,31.25,17.21,39.3,10.35,6.49,22.45,7.69,34.19,9.4,14.83,2.16,28.52,6.11,38,19a15.09,15.09,0,0,0-1.68-3.65c-5.91-9.08-15-13.61-25-16.08-10.95-2.72-22.22-4.18-33.18-6.87C346,183.79,337.6,178.23,332,169a38.55,38.55,0,0,1-5.36-23.82Z"/><path class="cls-4" d="M326.64,145.2A38.55,38.55,0,0,0,332,169c5.6,9.17,14,14.73,24.18,17.23,11,2.69,22.23,4.15,33.18,6.87,10,2.47,19.05,7,25,16.08a15.09,15.09,0,0,1,1.68,3.65c-9.44-12.88-23.13-16.83-38-19-11.74-1.71-23.84-2.91-34.19-9.4C331,176.45,322.62,160.58,326.64,145.2Z"/><path class="cls-5" d="M158.39,165.26c-2.26.68-4.18,1.44-5.83,2.08-3.36,1.32-6.61,3-9.91,4.49a134.7,134.7,0,0,0-19.38,10.76,86.9,86.9,0,0,0-13.75,11.57c-6.89,7.19-13,16.24-15,26.84-2.18,11.8,1.65,24.37,10,31.73,7.33,6.49,17.54,8.65,26,3.57,4.58-2.75,8.14-7.39,10.64-12.56,3.52-7.28,5.41-15.71,6.32-23.88,1-8.88.92-18,2.74-26.72,1.93-9.26,3.59-17,9.29-22.57,6-5.85,13.18-6.11,13-7S165.08,163.23,158.39,165.26ZM147,175.87h0c-.33,1.06-2.91,2.25-3.72,2.81a218.92,218.92,0,0,0-17.44,13.67c-5.77,4.93-11.4,10.21-15.92,16.66a63.74,63.74,0,0,0-10.34,25.33c-.14.82-.49,1.86-1.22,1.83s-1-.9-1.09-1.63a35.69,35.69,0,0,1,1.44-16.25A48,48,0,0,1,104,206.72c9.68-15.36,25.73-24.13,40.34-31.69C145.18,174.61,147.5,174,147,175.87Z"/><path class="cls-1" d="M169.06,172.64c-.83.87-1.5,1.69-2.08,2.39-1.18,1.42-2.26,3-3.37,4.46a80.12,80.12,0,0,0-6.21,9.59,51.69,51.69,0,0,0-3.68,8.51c-1.58,4.87-2.48,10.34-1.33,15.43,1.28,5.66,5.26,10.13,10.17,11.2a10.84,10.84,0,0,0,11.72-5.08,16.91,16.91,0,0,0,2.17-8.14,37.47,37.47,0,0,0-1.79-12c-1.24-4.09-3-8-3.83-12.26-.92-4.51-1.66-8.28-.28-12.14,1.45-4.06,4.45-6,4.2-6.36S171.53,170,169.06,172.64Zm-2.85,7.5h0c.06.54-.82,1.71-1.06,2.16-1.78,3.35-3.34,6.83-4.84,10.36a53.25,53.25,0,0,0-3.64,11.26,33.5,33.5,0,0,0,.34,13.6c.1.39.14.93-.17,1.1s-.58-.14-.77-.42a16.79,16.79,0,0,1-2.43-7.41,26.12,26.12,0,0,1,.1-6.37c1.24-9.12,6.41-17,11.2-24,.26-.4,1.14-1.2,1.27-.28Z"/><path class="cls-6" d="M177.4,178.31v2.57c0,1.51.22,3,.34,4.55a66.65,66.65,0,0,0,1.34,9.23,42.41,42.41,0,0,0,2.3,7.22c1.62,3.87,4,7.75,7.34,10.32,3.76,2.87,8.5,3.58,12,1.68a8.62,8.62,0,0,0,4.33-9.28,14.42,14.42,0,0,0-3-6.22,31.84,31.84,0,0,0-7.37-6.52c-2.91-1.91-6-3.45-8.77-5.65s-5.36-4.3-6.57-7.42c-1.28-3.29-.51-6.07-.85-6.17S177.51,175.41,177.4,178.31Zm2.25,6.17h0c.33.31.42,1.5.51,1.9.7,3,1.6,6,2.57,9a44.39,44.39,0,0,0,3.77,8.93,28,28,0,0,0,7.38,8.31c.26.19.57.5.48.78s-.43.21-.69.13a13.85,13.85,0,0,1-5.36-3.35,21.49,21.49,0,0,1-3.3-4c-4.07-6.34-5.14-14-6-20.82,0-.41.07-1.34.64-.88Z"/><path class="cls-3" d="M199.9,254.66a4.33,4.33,0,0,0-2.57-2.81c2.83-5,5.39-9.27,7.37-12.72,2.76-4.79,3-7.79,2-9.65-.4-.83-1-.89-1.65-.06-2.63,3.39-8.42,13.55-12.69,21.79-4.34.26-8.42,1.34-13,1.92,2.89-5.31,5.59-9.84,7.5-13.42,2.43-4.54,2.63-7.67,1.64-9.46-.39-.7-1-.83-1.58-.06-2.69,3.7-8.81,14.76-13,23.26-.86,0-1.78-.13-2.76-.19s-1.25.19-.86,1a4.25,4.25,0,0,0,2.24,2,68.27,68.27,0,0,0-2.83,6.52c-1.12,3.9-.66,5.69.33,7,.39.57.92.38,1.18-.26,1.91-4.28,3.95-8.5,6-12.46,3.09,0,8.15-.83,13-1.4a63.54,63.54,0,0,0-2.77,6.13c-1.31,3.9-.72,5.75.2,7,.4.58.86.51,1.12-.13,2.17-4.79,4.47-9.39,6.71-13.55a16.78,16.78,0,0,1,3.68.2C199.83,255.49,200,255.17,199.9,254.66Z"/><path class="cls-3" d="M240.35,230c-7.23,10.93-16.84,20.45-24,31.82,2.5-8.94,4.87-16.42,7-22.56,1.71-5,1-7.28-1.57-9.45-.86-.71-1.52-.45-2.11.38-7.1,9.39-17.76,26.46-20.19,32.53-1.52,3.83-.79,6,.13,7,.46.51.85.51,1.12-.13,3.88-8.57,11.24-20,17.1-28.57a157.61,157.61,0,0,0-5.66,21c-.66,4,.33,6.2,2.5,7.74.53.38.86.19,1.19-.45,4.73-8.57,12.36-18.34,19.86-27.16-4.27,8-8.48,16.93-9.47,20.7-1.12,4.22-.33,6.14.72,7,.53.45.79.45,1.06-.19,3.28-9.21,9.86-22.12,14.47-30.42,1.77-3.2,2.43-6.71-.2-9.33C241.47,229.1,240.94,229.16,240.35,230Z"/><path class="cls-3" d="M294.42,229.87c-.78-.77-1.31-.71-1.9.19-7.24,10.93-16.84,20.45-24,31.82,2.5-8.94,4.86-16.42,7-22.56,1.71-5,1-7.28-1.58-9.45-.85-.71-1.51-.45-2.1.38-7.11,9.39-17.77,26.46-20.2,32.53-1.51,3.83-.79,6,.13,7,.46.51.86.51,1.12-.13,3.88-8.57,11.25-20,17.1-28.57a159.1,159.1,0,0,0-5.65,21c-.66,4,.33,6.2,2.5,7.74.52.38.85.19,1.18-.45,4.74-8.57,12.37-18.34,19.87-27.16-4.28,8-8.49,16.93-9.48,20.7-1.11,4.22-.32,6.14.73,7,.52.45.79.45,1-.19,3.29-9.21,9.87-22.12,14.47-30.42C296.4,236,297.06,232.49,294.42,229.87Z"/><path class="cls-3" d="M349.81,244c-.13-.83-.52-1-1.25-.25-4.47,4.47-13.22,15.72-17.89,23.2.92-7,2.24-10.55,3.42-15.47.92-3.9.59-6.26-1.58-8-.52-.45-1.05-.19-1.31.51a103.72,103.72,0,0,0-3.47,14,1.31,1.31,0,0,0-.61.6c-2.57,4.93-7.17,9.53-10.33,9.27-3-.25-2.24-5.56.4-11.82,5.85-3.71,13.22-11.38,15.26-19.24.79-3,.39-5.37-1.52-7-.92-.83-1.84-.7-2.82.32-6.64,6.7-14,18.08-16.56,29.08-2.85,4.17-7.56,9.07-12.91,8.82-3.49-.19-5.07-4.22-3-10.1,4.6,3.64,9,2,12.23-1.85,2.76-3.26,3.29-7.16,2.11-8.69a12.34,12.34,0,0,0-3.89-3.33c-3.28-1.85-10,1.47-14.27,9.72s-1.38,16.23,7,16.1a16.79,16.79,0,0,0,12.2-6c.2,3.91,2.43,5.71,5.89,5.81,4.23.1,8.15-3.29,10-5.63v.2c-.2,3.39.72,4.66,3.29,5.88.66.32,1-.13,1.32-.64,6.31-9.71,12.3-15.85,15.59-19.88C349.22,247,350,245.4,349.81,244ZM320,250.25c4.54-8.18,9.41-15.27,10.26-14.76s-2.83,10.74-11.84,17.83A19.9,19.9,0,0,1,320,250.25Zm-13.22-3.64c.92.7-.53,4-2.63,6.71-1.91,2.43-4.61,5.18-7.83,3.2,3-6.84,9-11,10.41-9.91Z"/><path class="cls-3" d="M359.88,243.8a3.78,3.78,0,0,0,.46-4.28c-.86-1.73-2.76-2.5-3.82-1.41a3.88,3.88,0,0,0-.32,4.73C357.18,244.5,359,244.69,359.88,243.8Z"/><path class="cls-3" d="M385.66,259.14c-.32-.52-.78-.52-1.11.06-2.5,4.47-5.73,8.69-8.42,8.82-2.37.13-2.77-2.88-1.06-6.58,1.52-3.33,4.74-8.06,6.12-10.87,1.65-3.32-.39-6.45-2.56-6.77S372,247,369,250c.73-2.3.79-4.47-.2-6.07-.39-.64-.92-.7-1.38,0-4,5.75-8.88,14.25-10.38,18.44-2,3-4.57,5.43-6.79,5.53s-2.23-2.37-.65-6.08c1.38-3.19,4.14-7.54,5.52-10.35,1.58-3.19,1.06-5.94.07-7-.53-.57-1-.38-1.58.39a78.3,78.3,0,0,0-8.42,15.53c-1.84,5.24-.59,9.33,4.41,9.33a10.71,10.71,0,0,0,6.77-2.77,4.11,4.11,0,0,0,1.19,2.39c.59.57,1,.32,1.25-.26,2.82-6,5.72-12.14,9.6-16.23,4.21-4.48,8-6.27,8.68-6,1.19.51-4.6,7.29-6.77,13.55-1.91,5.56-.59,9.52,5,9.52,3.81,0,8-3.26,9.73-6.84C386,261.31,386.13,259.84,385.66,259.14Z"/><path class="cls-3" d="M136.93,303.71c4.07-5.69,6.1-11.92,3.59-18.36-2.87-7.41-8.13-9.13-14.22-8.91-8.13.32-17.09,4.83-27,5.79-1.55.11-1.79.76-1.19,1.94,1.19,2.25,3.46,4.08,7.53,4.51C95.23,303.39,84,323.57,80.89,333.34c-1.79,5.8-.6,9,1.08,10.63.83.75,1.43.75,1.91-.32,4.18-8.91,7.77-16,11.11-21.9a11.93,11.93,0,0,0,7.41,1.07C118.05,320.14,131,312.08,136.93,303.71Zm-38.47,12c3.58-6,6.93-10.95,10-15.89,3.35-5.15,4.55-8.91,4.55-11.81,7.88-2,19.83-7.62,22.34-1.72,3.26,7.54-10.13,24.93-36.89,29.44Z"/><path class="cls-3" d="M204.09,301.24a6,6,0,0,0,.83-7.19c-1.55-2.9-5-4.19-6.93-2.37a6.15,6.15,0,0,0-.59,7.95C199.19,302.42,202.53,302.74,204.09,301.24Z"/><path class="cls-3" d="M300.16,301.24A6,6,0,0,0,301,294c-1.55-2.9-5-4.19-6.93-2.37a6.15,6.15,0,0,0-.59,8C295.26,302.42,298.6,302.74,300.16,301.24Z"/><path class="cls-3" d="M395.15,327.44c-.24-1.08-1.31-1.08-2-.22a58.37,58.37,0,0,1-21.39,16.11c5-10.42,12.55-23.41,16.13-29.85,3-5.26,2-9.88.24-11.81-.83-1-2-.86-3,.64l-3.95,5.91c.12-3.76-2.27-7.09-7.05-7.09-6.09,0-15.77,4.83-25.09,17.29a31.64,31.64,0,0,0-5.51,11c-4.29,6.6-9.45,12.32-13.85,12.51s-5-4.83-1.91-11.06c2.75-5.58,8.6-13.53,11.11-18.25,3-5.58-.71-10.84-4.66-11.38s-12.07,5.37-17.44,10.52c1.31-3.86,1.43-7.51-.36-10.2-.72-1.07-1.68-1.18-2.51,0-7.28,9.66-16.13,23.94-18.86,31-3.61,5.11-8.3,9.11-12.33,9.28-3.82.21-4.06-4-1.19-10.21,2.51-5.36,7.52-12.66,10-17.39,2.87-5.37,1.92-10,.12-11.7-.95-1-1.79-.65-2.86.64-4.41,5.56-12.25,18.16-15.26,26-4.37,7-10.3,13.06-15.09,12.87-5-.21-6.34-6.87-2.39-14.71,4.54-9,11.35-19.43,16-26.63a40.4,40.4,0,0,1,9.32-.43c1.79,0,2.27-.75,1.43-2s-2.75-3.33-7.41-3.22c2.87-5.58,2.87-9.12,1.56-12.13-.6-1.29-1.8-1.4-2.87,0A137.47,137.47,0,0,0,265,296.19a74.7,74.7,0,0,1-9.92.43c-1.79-.11-2.51.65-1.31,2.15.95,1.18,3.7,2.79,7.76,2.79-5.14,8.48-10.15,17.5-12.66,22.87a24.78,24.78,0,0,0-1.89,5.66c-4.2,6.31-9.16,11.66-13.41,11.84s-5-4.83-1.91-11.06c2.75-5.58,8.6-13.53,11.11-18.25,3-5.58-.71-10.84-4.66-11.38s-12.07,5.37-17.44,10.52c1.31-3.86,1.43-7.51-.36-10.2-.72-1.07-1.68-1.18-2.51,0-7.28,9.66-16.13,23.94-18.86,31-3.61,5.11-8.31,9.11-12.33,9.28-3.82.21-4.06-4-1.19-10.21,2.51-5.36,7.52-12.66,10-17.39,2.87-5.37,1.92-10,.12-11.7-.95-1-1.79-.65-2.86.64-4.43,5.59-12.31,18.26-15.3,26.09-.15.39-.28.78-.41,1.16-4.09,6.18-9.5,11.54-13.69,11.73s-3.94-4.4-1-10.42c2.86-5.69,8.84-13.74,11.47-18.57,2.87-5.37,1.91-10,.12-11.92-.84-1-1.8-.75-2.87.64a76.1,76.1,0,0,0-4.3,6.55c.24-4.18-2.15-7.73-7.29-7.73-6,0-15.42,4.83-25.1,17.5-9.91,13-7.64,26.63,3.47,26.63,5.74,0,11.11-4,14.94-8.37,0,5,3.34,8.48,9.79,8.8,4.7.23,9.89-2.72,13.6-6.58.83,3.83,3.82,6.26,9.23,6.26a20.34,20.34,0,0,0,12.29-4.66,6.75,6.75,0,0,0,2.16,4c1.08,1,1.8.53,2.27-.43,5.14-10.1,10.4-20.4,17.45-27.28,7.65-7.51,14.58-10.52,15.77-10.09,2.15.86-8.36,12.24-12.3,22.76-3.47,9.34-1.08,16,9.08,16,5.47,0,11.31-3.41,15.12-7.81a10.65,10.65,0,0,0,10.09,7.49c6,.2,11.26-3.39,14.79-6.88.64,4.18,3.65,6.88,9.35,6.88a20.34,20.34,0,0,0,12.29-4.66,6.75,6.75,0,0,0,2.16,4c1.08,1,1.8.53,2.28-.43,5.13-10.1,10.39-20.4,17.44-27.28,7.65-7.51,14.58-10.52,15.77-10.09,2.15.86-8.36,12.24-12.3,22.76-3.47,9.34-1.08,16,9.08,16,5.41,0,11.19-3.34,15-7.67,1,4.31,4.21,7.13,9.25,7.13,4.43,0,8.61-2.25,12.07-5.36-1.19,2.47-2.27,5-3.46,7.4-11.83,4.08-22.11,10.63-25.57,20.3-2.27,6.33-.12,10.09,2.39,13.31,2.15,2.79,4.54,3.12,6.93,2.26,9.68-3.44,18.16-20.51,24.73-34.9,9.92-3.22,18.52-7.51,23.18-14.06C394.8,330.77,395.39,328.4,395.15,327.44ZM139.2,341.29c-4.66-.11-3.1-9.56,3.23-18.79,6.57-9.56,15.3-16.54,19.12-16.21,3.46.32,2.39,7-5.14,18.79C150.32,334.52,144.1,341.4,139.2,341.29Zm201.11,35.32c-2-2.57,3.22-17.28,18.76-25.44C351.3,367.49,341.86,378.65,340.31,376.61Zm13.62-35.21c-4.78-.11-3.47-9.56,3-18.79s15.29-16.22,19-16c3.46.21,2.38,6.87-5.14,18.68C364.68,334.74,358.59,341.5,353.93,341.4Z"/><line class="cls-4" x1="159.87" y1="274.36" x2="395.15" y2="274.36"/><rect class="cls-7" x="159.87" y="273.58" width="235.28" height="1.55"/><path class="cls-3" d="M395.15,274.36Z"/><rect class="cls-7" x="394.62" y="273.59" width="0.59" height="1.55"/><path class="cls-3" d="M392.85,274.36Z"/><rect class="cls-7" x="392.17" y="273.59" width="2.25" height="1.55"/><path class="cls-3" d="M359.48,274.36Z"/><rect class="cls-7" x="359.48" y="273.59" width="0.22" height="1.55"/><path class="cls-3" d="M338.81,274.36Z"/><rect class="cls-7" x="338.81" y="273.59" width="0.23" height="1.55"/><path class="cls-3" d="M335.28,274.36Z"/><rect class="cls-7" x="335.28" y="273.59" width="0.21" height="1.55"/><path class="cls-3" d="M359.48,274.36Z"/><polygon class="cls-7" points="359.48 275.13 358.93 275.13 358.93 274.36 358.93 273.59 359.48 273.59 359.48 275.13"/><path class="cls-3" d="M388.25,274.36Z"/><rect class="cls-7" x="388.25" y="273.59" width="0.3" height="1.55"/><path class="cls-3" d="M368.6,274.36Z"/><rect class="cls-7" x="368.6" y="273.59" width="0.31" height="1.55"/><path class="cls-3" d="M375.59,274.36Z"/><rect class="cls-7" x="375.32" y="273.59" width="0.35" height="1.55"/><path class="cls-3" d="M386.68,274.36Z"/><rect class="cls-7" x="386.68" y="273.59" width="0.2" height="1.55"/><path class="cls-3" d="M363.59,274.36Z"/><polygon class="cls-7" points="363.59 275.13 363.53 275.13 363.53 273.59 363.59 275.13"/><path class="cls-3" d="M168,274.36"/><polygon class="cls-7" points="167.97 275.13 167.94 275.13 167.94 273.59 167.97 275.13"/><path class="cls-3" d="M159.87,274.36Z"/><polygon class="cls-7" points="160 275.13 159.87 273.59 160 273.59 160 275.13"/><path class="cls-3" d="M328.82,274.36Z"/><polygon class="cls-7" points="328.94 275.13 328.82 273.59 328.94 273.59 328.94 275.13"/><path class="cls-3" d="M269.52,274.36Z"/><rect class="cls-7" x="269.12" y="273.59" width="0.74" height="1.55"/><path class="cls-3" d="M388.07,274.36Z"/><rect class="cls-7" x="387.78" y="273.59" width="0.29" height="1.55"/><path class="cls-3" d="M269.44,274.36"/><polygon class="cls-7" points="269.55 275.13 269.44 273.59 269.55 273.59 269.55 275.13"/><path class="cls-3" d="M313.94,274.36Z"/><polygon class="cls-7" points="314.09 275.13 313.94 273.59 314.09 273.59 314.09 275.13"/><path class="cls-3" d="M325,274.36Z"/><rect class="cls-7" x="324.75" y="273.59" width="0.27" height="1.55"/><path class="cls-3" d="M308.18,274.36Z"/><rect class="cls-7" x="307.78" y="273.59" width="0.4" height="1.55"/><path class="cls-3" d="M302.19,274.36Z"/><rect class="cls-7" x="302.19" y="273.59" width="0.3" height="1.55"/><path class="cls-3" d="M186.19,274.36Z"/><polygon class="cls-7" points="186.19 275.13 185.65 275.13 185.65 273.59 185.91 275.09 185.65 273.59 186.19 273.59 186.19 275.13"/><path class="cls-3" d="M388.25,274.36Z"/><rect class="cls-7" x="388.07" y="273.59" width="0.21" height="1.55"/><path class="cls-3" d="M307.94,274.36Z"/><rect class="cls-7" x="306.99" y="273.59" width="0.95" height="1.55"/><path class="cls-3" d="M229.17,274.36Z"/><rect class="cls-7" x="228.96" y="273.59" width="0.22" height="1.55"/><path class="cls-3" d="M304.16,274.36Z"/><rect class="cls-7" x="303.52" y="273.59" width="0.65" height="1.55"/><path class="cls-3" d="M185.91,274.36"/><circle class="cls-7" cx="185.91" cy="274.36" r="0.77"/><path class="cls-3" d="M179.64,274.36Zm23,0Zm-3.77,0Z"/><path class="cls-7" d="M391.73,275.13H164.07l.07-.56-.2-1H391.73Zm-10.24,0,.05-.56-.15-.91Zm-51.3-1v0Zm-140.28,1v0Zm-.37-.91v.91l.08-.57Zm-25.47.91h-.32l.09-.79-.11-.38v1.17h-3.91v-1.54h4.08Z"/><path class="cls-3" d="M198.33,274.36Z"/><rect class="cls-7" x="198.22" y="273.59" width="0.27" height="1.55"/><path class="cls-3" d="M359.74,274.36Z"/><polygon class="cls-7" points="359.78 275.13 359.7 275.13 359.78 273.59 359.78 275.13"/><polygon class="cls-3" points="227.19 274.36 227.19 274.36 227.03 274.36 227.19 274.36"/><polygon class="cls-7" points="227.19 275.13 227.03 275.13 227.03 273.59 227.19 275.13"/><path class="cls-3" d="M369.54,274.36Z"/><polygon class="cls-7" points="369.67 275.13 369.54 273.59 369.67 273.59 369.67 275.13"/><path class="cls-3" d="M373.78,274.36Z"/><rect class="cls-7" x="373.78" y="273.59" width="0.6" height="1.55"/><path class="cls-3" d="M377,274.36Z"/><polygon class="cls-7" points="377.1 275.13 377.04 273.59 377.1 273.59 377.1 275.13"/><path class="cls-3" d="M325.25,274.36Z"/><rect class="cls-7" x="324.98" y="273.59" width="0.27" height="1.55"/><path class="cls-3" d="M340.66,274.36Z"/><rect class="cls-7" x="340.17" y="273.59" width="0.49" height="1.55"/><path class="cls-3" d="M308,274.36"/><polygon class="cls-7" points="308.04 275.13 307.94 275.13 307.94 273.59 308.04 275.13"/><path class="cls-3" d="M339.45,274.36Z"/><rect class="cls-7" x="339.45" y="273.59" width="0.72" height="1.55"/><path class="cls-3" d="M391.15,274.36Z"/><polygon class="cls-7" points="391.33 275.13 391.15 273.59 391.33 273.59 391.33 275.13"/><path class="cls-3" d="M391.33,274.36Z"/><polygon class="cls-7" points="391.5 275.13 391.33 273.59 391.5 273.59 391.5 275.13"/><path class="cls-3" d="M391.87,274.36Z"/><rect class="cls-7" x="391.5" y="273.59" width="0.37" height="1.55"/><path class="cls-3" d="M386.84,274.36Z"/><polygon class="cls-7" points="386.84 275.13 386.79 275.13 386.79 273.59 386.84 275.13"/><path class="cls-3" d="M385.53,274.36Z"/><rect class="cls-7" x="385.53" y="273.59" width="1.26" height="1.55"/><path class="cls-3" d="M380.06,274.36Z"/><rect class="cls-7" x="380.06" y="273.59" width="1.15" height="1.55"/><path class="cls-3" d="M376.66,274.36Z"/><polygon class="cls-7" points="376.92 275.13 376.36 275.13 376.36 273.59 376.92 273.59 376.79 274.36 376.92 275.13"/><path class="cls-3" d="M352.06,274.36Z"/><rect class="cls-7" x="351.91" y="273.59" width="0.21" height="1.55"/><polygon class="cls-3" points="347.35 274.36 347.8 274.36 348.01 274.36 347.35 274.36"/><rect class="cls-7" x="347.35" y="273.59" width="0.65" height="1.55"/><polygon class="cls-3" points="344.57 274.36 344.77 274.36 344.01 274.36 344.57 274.36"/><rect class="cls-7" x="344.01" y="273.59" width="0.76" height="1.55"/><path class="cls-3" d="M303.26,274.36Z"/><rect class="cls-7" x="303.26" y="273.59" width="0.38" height="1.55"/><path class="cls-3" d="M285.42,274.36Z"/><rect class="cls-7" x="284.41" y="273.59" width="1.01" height="1.55"/><polygon class="cls-3" points="231.92 274.36 232.28 274.36 231.6 274.36 231.92 274.36"/><rect class="cls-7" x="231.6" y="273.59" width="0.68" height="1.55"/><path class="cls-8" d="M88.28,349.4a5.36,5.36,0,0,1,4,1.53,2.66,2.66,0,0,1,.82,1.53.69.69,0,0,1-.66.69,4.36,4.36,0,0,0-4.12-2.79c-3,0-5.12,2.67-5.12,6.67s2,6.62,5.19,6.62a4,4,0,0,0,4.07-3.16.65.65,0,0,1,.74.55.28.28,0,0,1,0,.09,3.15,3.15,0,0,1-.77,1.72,5.11,5.11,0,0,1-4.12,1.76c-3.84,0-6.31-3.14-6.31-7.58S84.5,349.4,88.28,349.4Z"/><path class="cls-8" d="M99.74,353.38c2.88,0,4.82,2.26,4.82,5.67s-2,5.56-4.82,5.56-4.85-2.29-4.85-5.61S96.83,353.38,99.74,353.38Zm0,.91C97.5,354.29,96,356.1,96,359s1.49,4.69,3.73,4.69,3.66-1.78,3.66-4.66-1.4-4.74-3.64-4.74Z"/><path class="cls-8" d="M121.42,357.81V364c0,.36-.18.5-.46.5h-.18c-.27,0-.46-.14-.46-.5v-6.13c0-2.38-.93-3.48-2.56-3.48a3.23,3.23,0,0,0-3,2.49V364a.43.43,0,0,1-.35.5h-.3c-.29,0-.45-.14-.45-.5v-6.29c0-2.22-.92-3.32-2.56-3.32a3.38,3.38,0,0,0-3,2.45V364c0,.36-.19.5-.46.5h-.18c-.28,0-.46-.14-.46-.5V353.63c0-.05.2-.12.39-.12.45,0,.66.37.66,1v1.19a3.5,3.5,0,0,1,3.25-2.31,3.12,3.12,0,0,1,3.2,2.38,3.7,3.7,0,0,1,3.43-2.38C120.1,353.38,121.42,354.84,121.42,357.81Z"/><path class="cls-8" d="M138.92,357.81V364c0,.36-.18.5-.46.5h-.18c-.27,0-.46-.14-.46-.5v-6.13c0-2.38-.94-3.48-2.56-3.48a3.25,3.25,0,0,0-3,2.49V364c0,.36-.18.5-.48.5h-.16c-.29,0-.45-.14-.45-.5v-6.29c0-2.22-.92-3.32-2.57-3.32a3.4,3.4,0,0,0-3,2.45V364c0,.36-.18.5-.45.5H125c-.27,0-.45-.14-.45-.5V353.63c0-.05.2-.12.38-.12.46,0,.67.37.67,1v1.19a3.49,3.49,0,0,1,3.25-2.31,3.12,3.12,0,0,1,3.2,2.38,3.7,3.7,0,0,1,3.43-2.38C137.59,353.38,138.92,354.84,138.92,357.81Z"/><path class="cls-8" d="M142.67,349.42a.73.73,0,0,1,.8.63.48.48,0,0,1,0,.17.75.75,0,0,1-.69.79h-.13a.79.79,0,0,1-.79-.79.81.81,0,0,1,.79-.79Zm-.55,4.62c0-.41.18-.53.48-.53h.14c.27,0,.48.12.48.53v9.9c0,.41-.21.53-.48.53h-.14c-.3,0-.48-.12-.48-.53Z"/><path class="cls-8" d="M147,361.54v-7h-1.24c-.32,0-.41-.14-.41-.39V354c0-.25.09-.41.41-.41H147v-2.15c0-.41.2-.53.48-.53h.11c.28,0,.48.12.48.53v2.15h2.63c.3,0,.46.16.46.41v.12c0,.27-.16.41-.46.41H148v7c0,1.53.53,2.15,1.51,2.15a1.85,1.85,0,0,0,1.51-.78.47.47,0,0,1,.37.52,1,1,0,0,1-.51.81,2,2,0,0,1-1.41.43C148,364.63,147,363.78,147,361.54Z"/><path class="cls-8" d="M153.72,361.54v-7h-1.24c-.32,0-.41-.14-.41-.39V354c0-.25.09-.41.41-.41h1.24v-2.15c0-.41.2-.53.48-.53h.11c.28,0,.48.12.48.53v2.15h2.63c.3,0,.46.16.46.41v.12c0,.27-.16.41-.46.41h-2.63v7c0,1.53.53,2.15,1.51,2.15a1.85,1.85,0,0,0,1.51-.78.47.47,0,0,1,.37.52,1,1,0,0,1-.51.81,2,2,0,0,1-1.41.43C154.77,364.63,153.72,363.78,153.72,361.54Z"/><path class="cls-8" d="M164,353.38c2.73,0,4.37,2.05,4.37,5.21v.14c0,.32-.16.41-.48.41h-7.48v.27c0,2.68,1.51,4.26,3.68,4.26a3.17,3.17,0,0,0,3.23-2.22.7.7,0,0,1,.69.66,2,2,0,0,1-.57,1.15,4.29,4.29,0,0,1-3.32,1.35c-2.93,0-4.83-2.13-4.83-5.56S161.17,353.38,164,353.38Zm0,.91c-1.94,0-3.29,1.49-3.54,3.93h6.79C167.17,355.87,166,354.29,164,354.29Z"/><path class="cls-8" d="M170,359c0-3.29,1.85-5.6,4.43-5.6a3.77,3.77,0,0,1,3.64,2.33V349c0-.07.18-.14.39-.14.41,0,.69.23.69,1V364c0,.39-.21.48-.42.48h-.18c-.23,0-.41-.12-.43-.48v-1.9a3.71,3.71,0,0,1-3.66,2.52C171.79,364.61,170,362.32,170,359Zm8.07-1.74c-.53-1.76-1.69-2.93-3.45-2.93-2,0-3.5,1.86-3.5,4.63s1.46,4.73,3.52,4.73S178,362,178,359.8Z"/><path class="cls-8" d="M186.15,361.54v-7h-1.24c-.32,0-.41-.14-.41-.39V354c0-.25.09-.41.41-.41h1.24v-2.15c0-.41.21-.53.48-.53h.11c.28,0,.48.12.48.53v2.15h2.64a.41.41,0,0,1,.45.35v.18c0,.27-.16.41-.45.41h-2.64v7c0,1.53.53,2.15,1.51,2.15a1.79,1.79,0,0,0,1.51-.78.52.52,0,0,1,.37.52,1,1,0,0,1-.5.81,2.08,2.08,0,0,1-1.42.43C187.2,364.63,186.15,363.78,186.15,361.54Z"/><path class="cls-8" d="M196.53,353.38c2.89,0,4.83,2.26,4.83,5.67s-2,5.56-4.83,5.56-4.85-2.29-4.85-5.61S193.63,353.38,196.53,353.38Zm0,.91c-2.25,0-3.73,1.81-3.73,4.71s1.48,4.69,3.73,4.69,3.66-1.78,3.66-4.66-1.44-4.74-3.63-4.74Z"/><path class="cls-8" d="M207.65,363.72V350.29a.63.63,0,0,1,.57-.68h7.6c.36,0,.57.14.57.44v.16c0,.29-.21.43-.57.43h-7v5.67h5.29c.36,0,.55.14.55.44v.09c0,.32-.21.48-.55.48h-5.29v6.06H216c.35,0,.55.14.55.41v.16c0,.3-.2.46-.55.46h-7.73a.61.61,0,0,1-.62-.61Z"/><path class="cls-8" d="M220.89,359l-3.43-5c-.05-.06.18-.43.6-.43s.5.18.7.52l2.82,4.24,2.79-4.19c.27-.43.46-.57.73-.57s.64.37.6.43l-3.48,5L225.7,364a.61.61,0,0,1-.6.41c-.39,0-.48-.16-.71-.53l-2.86-4.28-2.81,4.26c-.23.36-.41.55-.73.55s-.64-.35-.6-.41Z"/><path class="cls-8" d="M231.78,353.38a4,4,0,0,1,3.25,1.41,2.33,2.33,0,0,1,.61,1.35.57.57,0,0,1-.59.57.34.34,0,0,1-.14,0,3.14,3.14,0,0,0-3.15-2.38c-2.2,0-3.66,1.88-3.66,4.67s1.51,4.69,3.66,4.69a3.15,3.15,0,0,0,3.15-2.49.59.59,0,0,1,.71.44.39.39,0,0,1,0,.15,2.66,2.66,0,0,1-.68,1.49,4,4,0,0,1-3.23,1.35c-2.92,0-4.78-2.34-4.78-5.61S228.87,353.38,231.78,353.38Z"/><path class="cls-8" d="M242,353.38c2.72,0,4.37,2.05,4.37,5.21v.14c0,.32-.16.41-.48.41h-7.48v.27c0,2.68,1.5,4.26,3.68,4.26a3.14,3.14,0,0,0,3.22-2.22.7.7,0,0,1,.69.66,2,2,0,0,1-.57,1.15,4.29,4.29,0,0,1-3.32,1.35c-2.93,0-4.82-2.13-4.82-5.56S239.17,353.38,242,353.38Zm0,.91c-2,0-3.3,1.49-3.55,3.93h6.79C245.16,355.87,244,354.29,242,354.29Z"/><path class="cls-8" d="M248.8,363.94V349c0-.07.16-.14.38-.14.37,0,.69.23.69,1v14c0,.39-.18.53-.48.53h-.11C249,364.47,248.8,364.33,248.8,363.94Z"/><path class="cls-8" d="M253.28,363.94V349c0-.07.16-.14.39-.14s.68.23.68,1v14c0,.39-.18.53-.48.53h-.11C253.46,364.47,253.28,364.33,253.28,363.94Z"/><path class="cls-8" d="M261.61,353.38c2.72,0,4.36,2.05,4.36,5.21v.14c0,.32-.16.41-.47.41H258v.27c.05,2.68,1.51,4.26,3.69,4.26a3.14,3.14,0,0,0,3.22-2.22.7.7,0,0,1,.69.66,2,2,0,0,1-.57,1.15,4.29,4.29,0,0,1-3.32,1.35c-2.93,0-4.83-2.13-4.83-5.56S258.81,353.38,261.61,353.38Zm0,.91c-1.95,0-3.3,1.49-3.55,3.93h6.79C264.81,355.87,263.64,354.29,261.61,354.29Z"/><path class="cls-8" d="M276.56,357.86v6.08c0,.41-.2.53-.48.53H276c-.3,0-.48-.12-.48-.53v-6.06c0-2.38-1-3.52-2.77-3.52a3.49,3.49,0,0,0-3.27,2.42v7.16c0,.41-.19.53-.48.53h-.12c-.29,0-.5-.12-.5-.53V353.63c0-.05.21-.12.39-.12.48,0,.66.39.66,1.08v1.1a3.64,3.64,0,0,1,3.5-2.31C275.19,353.38,276.56,354.91,276.56,357.86Z"/><path class="cls-8" d="M283.7,353.38a4,4,0,0,1,3.25,1.41,2.31,2.31,0,0,1,.62,1.35.59.59,0,0,1-.59.58l-.15,0a3.14,3.14,0,0,0-3.15-2.38c-2.2,0-3.66,1.88-3.66,4.67s1.51,4.69,3.66,4.69a3.15,3.15,0,0,0,3.15-2.49.61.61,0,0,1,.72.45.36.36,0,0,1,0,.14,2.67,2.67,0,0,1-.69,1.49,4,4,0,0,1-3.23,1.35c-2.93,0-4.78-2.34-4.78-5.61S280.79,353.38,283.7,353.38Z"/><path class="cls-8" d="M293.88,353.38c2.72,0,4.37,2.05,4.37,5.21v.14c0,.32-.16.41-.48.41h-7.48v.27c0,2.68,1.51,4.26,3.68,4.26a3.14,3.14,0,0,0,3.22-2.22.7.7,0,0,1,.69.66,2,2,0,0,1-.57,1.15,4.29,4.29,0,0,1-3.32,1.35c-2.93,0-4.82-2.13-4.82-5.56S291.09,353.38,293.88,353.38Zm0,.91c-1.95,0-3.3,1.49-3.55,3.93h6.8C297.08,355.87,295.91,354.29,293.88,354.29Z"/></svg>