<svg id="Layer_1" data-name="Layer 1" xmlns="http://www.w3.org/2000/svg" viewBox="0 0 500 500"><defs><style>.cls-1{fill:#ff4500;}.cls-2{fill:#fff;}.cls-3{fill:#404041;}.cls-4{fill:none;}.cls-5{fill:#0071bc;}.cls-6{fill:#ff0;}.cls-7{fill:#333;}.cls-8{fill:#58595b;}</style></defs><title>HM Melvin Logo Profile Pic</title><rect class="cls-1" width="500" height="500"/><circle class="cls-2" cx="250" cy="250" r="238"/><path class="cls-3" d="M189.58,145.61a120.4,120.4,0,0,1,56.55-19.46c-4.59-2.26-22.14-2.54-34.88-.62A120.13,120.13,0,0,0,178,135.72c18.38-16.28,39.77-26.42,63.76-31.33-26.89,1.7-51.27,10.46-73.79,26.42C202.05,93.15,261.68,73,322.57,99.34c-8.68,31.34-19.39,61.91-35.44,91.08-10.53-12-22.56-21-37.13-26.28-14.38-5.25-29.28-6.49-44.47-5.95,17.71-8,36.31-9.95,55.49-8.61a104.63,104.63,0,0,0-35.5-8.12A115.1,115.1,0,0,0,189.58,145.61Z"/><path class="cls-3" d="M307.22,202.31,289,193.4c18.35-29.75,28.1-62.5,36.9-96.34l18.78,5.54c-6.79,13.85-6.71,26.87-.13,39.74a34.12,34.12,0,0,0,19.25,16.88c10.25,3.62,21,5.94,31.54,8.7,6.65,1.74,13.45,2.88,20,4.92,14,4.36,22.21,14.56,26.87,28.06.79,2.26.19,3.59-1.75,4.89-7.72,5.14-16.21,6.18-25.12,4.91-11.32-1.6-20.79-7.33-30.19-13.44-9.63-6.25-19.55-12.06-29.52-17.76-2.82-1.61-6.22-2.27-9.37-3.19-11.1-3.39-19.25,1.48-26,9.65C315.61,191.44,311.32,197.12,307.22,202.31Zm29.56-83c-4.53,17.42,4.94,35.39,19.49,44.51,11.72,7.34,25.42,8.7,38.72,10.64,16.79,2.45,32.29,6.92,43,21.51a17.2,17.2,0,0,0-1.91-4.13c-6.69-10.28-17-15.41-28.3-18.21-12.4-3.08-25.17-4.73-37.58-7.78-11.52-2.84-21-9.13-27.38-19.59a43.67,43.67,0,0,1-6.07-27Z"/><path class="cls-4" d="M336.78,119.33a43.73,43.73,0,0,0,6.07,27c6.34,10.39,15.86,16.68,27.38,19.51,12.46,3.05,25.18,4.7,37.58,7.78,11.32,2.8,21.57,7.93,28.3,18.21a17.09,17.09,0,0,1,1.91,4.14c-10.69-14.59-26.2-19.06-43-21.52-13.3-1.94-27-3.29-38.72-10.64C341.72,154.72,332.23,136.75,336.78,119.33Z"/><path class="cls-5" d="M146.27,142.05c-2.56.77-4.74,1.63-6.61,2.35-3.8,1.5-7.48,3.4-11.22,5.09a153.53,153.53,0,0,0-21.94,12.18,98.52,98.52,0,0,0-15.57,13.1c-7.8,8.15-14.72,18.39-17,30.4-2.47,13.36,1.87,27.59,11.33,35.93,8.3,7.35,19.86,9.79,29.44,4,5.18-3.12,9.21-8.37,12.05-14.22,4-8.25,6.12-17.79,7.15-27,1.13-10.06,1-20.39,3.1-30.26,2.19-10.49,4.07-19.25,10.52-25.56,6.8-6.62,14.93-6.92,14.72-7.92S153.84,139.75,146.27,142.05Zm-12.9,12h0c-.37,1.2-3.3,2.55-4.21,3.19a249.84,249.84,0,0,0-19.75,15.47c-6.54,5.59-12.91,11.57-18,18.87a72.23,72.23,0,0,0-11.71,28.68c-.16.93-.55,2.11-1.38,2.07s-1.13-1-1.23-1.84a40.28,40.28,0,0,1,1.63-18.4,53.92,53.92,0,0,1,6-13.1c11-17.4,29.13-27.33,45.68-35.89C131.31,152.64,133.93,152,133.37,154.06Z"/><path class="cls-1" d="M158.35,150.41c-.94,1-1.7,1.91-2.36,2.7-1.33,1.61-2.56,3.4-3.81,5a90.7,90.7,0,0,0-7,10.86,58.34,58.34,0,0,0-4.17,9.64c-1.79,5.51-2.81,11.71-1.51,17.47,1.45,6.41,6,11.47,11.52,12.68a12.27,12.27,0,0,0,13.27-5.75,19.23,19.23,0,0,0,2.46-9.22,42.62,42.62,0,0,0-2-13.59c-1.4-4.63-3.4-9.05-4.34-13.88-1-5.1-1.88-9.37-.31-13.74,1.64-4.6,5-6.8,4.75-7.21S161.15,147.42,158.35,150.41Zm-3.23,8.49h0c.07.61-.93,1.94-1.2,2.44-2,3.8-3.78,7.74-5.48,11.74a60.08,60.08,0,0,0-4.12,12.75,37.88,37.88,0,0,0,.38,15.4c.12.44.16,1.05-.19,1.24s-.66-.16-.87-.47a19,19,0,0,1-2.75-8.39,29.56,29.56,0,0,1,.11-7.22c1.4-10.32,7.26-19.25,12.68-27.17.3-.46,1.29-1.36,1.44-.32Z"/><path class="cls-6" d="M167.79,156.83v2.91c0,1.71.25,3.39.39,5.15a76.7,76.7,0,0,0,1.51,10.45,49,49,0,0,0,2.61,8.18c1.83,4.38,4.53,8.77,8.31,11.68,4.26,3.25,9.63,4.06,13.59,1.9a9.75,9.75,0,0,0,4.9-10.5,16.26,16.26,0,0,0-3.4-7,35.8,35.8,0,0,0-8.34-7.38c-3.3-2.16-6.79-3.91-9.93-6.4s-6.07-4.87-7.44-8.4c-1.45-3.73-.58-6.87-1-7S167.92,153.54,167.79,156.83Zm2.55,7h0c.37.35.48,1.7.58,2.15.79,3.4,1.81,6.8,2.91,10.2a50.43,50.43,0,0,0,4.27,10.11,31.87,31.87,0,0,0,8.35,9.41c.3.21.65.56.55.88s-.49.24-.78.15a15.61,15.61,0,0,1-6.07-3.8,24.18,24.18,0,0,1-3.74-4.52c-4.61-7.18-5.82-15.86-6.79-23.58,0-.46.07-1.52.72-1Z"/><path class="cls-3" d="M193.27,243.28a4.9,4.9,0,0,0-2.91-3.18c3.2-5.66,6.1-10.5,8.35-14.4,3.12-5.43,3.39-8.82,2.26-10.93-.45-.94-1.13-1-1.87-.07-3,3.84-9.53,15.34-14.37,24.68-4.91.29-9.53,1.51-14.72,2.17,3.27-6,6.33-11.14,8.49-15.2,2.76-5.14,3-8.68,1.86-10.71-.44-.79-1.13-.94-1.79-.07-3,4.19-10,16.72-14.72,26.34-1,0-2-.15-3.12-.21s-1.42.21-1,1.13a4.8,4.8,0,0,0,2.54,2.26,76.7,76.7,0,0,0-3.21,7.39c-1.26,4.41-.74,6.44.38,7.92.44.65,1,.43,1.33-.29,2.17-4.85,4.48-9.63,6.8-14.11,3.5,0,9.23-.94,14.72-1.59a71,71,0,0,0-3.14,7c-1.48,4.41-.81,6.51.23,7.92.45.66,1,.58,1.27-.15,2.45-5.42,5.06-10.63,7.6-15.34a18.69,18.69,0,0,1,4.16.23C193.19,244.22,193.38,243.86,193.27,243.28Z"/><path class="cls-3" d="M239.07,215.36c-8.18,12.37-19.07,23.15-27.17,36,2.83-10.12,5.51-18.59,7.92-25.55,1.94-5.66,1.14-8.24-1.77-10.7-1-.8-1.73-.51-2.39.43-8,10.64-20.11,30-22.87,36.84-1.72,4.34-.89,6.79.15,7.92.52.58,1,.58,1.27-.14,4.39-9.71,12.73-22.65,19.36-32.35a179.06,179.06,0,0,0-6.41,23.78c-.74,4.53.38,7,2.83,8.76.61.43,1,.22,1.35-.51,5.36-9.7,14-20.77,22.49-30.75-4.83,9-9.6,19.17-10.72,23.44-1.27,4.77-.38,6.95.81,7.92.6.51.9.51,1.2-.21,3.72-10.43,11.17-25,16.39-34.45,2-3.62,2.75-7.6-.23-10.56C240.34,214.34,239.74,214.41,239.07,215.36Z"/><path class="cls-3" d="M300.3,215.21c-.88-.87-1.48-.8-2.15.22-8.2,12.37-19.07,23.15-27.18,36,2.83-10.13,5.51-18.6,7.93-25.55,1.93-5.66,1.13-8.24-1.79-10.7-1-.8-1.71-.51-2.38.43-8.05,10.63-20.12,30-22.87,36.84-1.71,4.33-.9,6.79.15,7.92.52.58,1,.58,1.26-.14,4.4-9.71,12.74-22.65,19.37-32.36a179.85,179.85,0,0,0-6.4,23.78c-.75,4.53.37,7,2.83,8.77.59.43,1,.21,1.34-.51,5.36-9.71,14-20.77,22.5-30.76-4.85,9.06-9.62,19.17-10.74,23.44-1.26,4.78-.36,7,.83,7.93.59.51.89.51,1.13-.22,3.73-10.42,11.18-25,16.38-34.44C302.54,222.15,303.29,218.18,300.3,215.21Z"/><path class="cls-3" d="M363,231.21c-.15-.94-.59-1.13-1.41-.28-5.07,5.06-15,17.8-20.26,26.27,1-7.93,2.53-11.95,3.87-17.52,1-4.42.67-7.09-1.79-9.06-.59-.51-1.19-.21-1.48.58A116.86,116.86,0,0,0,338,247.05a1.51,1.51,0,0,0-.69.68c-2.91,5.58-8.12,10.79-11.7,10.5-3.4-.28-2.54-6.3.45-13.39,6.63-4.2,15-12.88,17.28-21.78.9-3.4.44-6.08-1.72-7.93-1-.94-2.08-.79-3.19.36-7.52,7.59-15.85,20.48-18.75,32.93-3.23,4.72-8.56,10.27-14.62,10-3.95-.22-5.74-4.78-3.4-11.44,5.21,4.12,10.19,2.27,13.85-2.09,3.13-3.69,3.73-8.11,2.39-9.84a13.91,13.91,0,0,0-4.41-3.77c-3.71-2.1-11.32,1.66-16.15,11s-1.57,18.38,7.92,18.23a19,19,0,0,0,13.82-6.79c.22,4.43,2.75,6.47,6.67,6.58,4.79.11,9.23-3.73,11.32-6.38v.23c-.23,3.84.82,5.28,3.73,6.66.74.36,1.13-.15,1.49-.73,7.15-11,13.93-17.94,17.65-22.51C362.35,234.61,363.24,232.8,363,231.21Zm-33.75,7.08c5.14-9.26,10.65-17.29,11.61-16.72s-3.2,12.17-13.4,20.19A21.9,21.9,0,0,1,329.27,238.29Zm-15-4.12c1,.79-.6,4.53-3,7.59-2.17,2.76-5.22,5.87-8.87,3.63,3.4-7.75,10.19-12.46,11.79-11.22Z"/><path class="cls-3" d="M374.42,231a4.25,4.25,0,0,0,.52-4.84c-1-2-3.12-2.83-4.32-1.6a4.39,4.39,0,0,0-.36,5.36C371.37,231.78,373.43,232,374.42,231Z"/><path class="cls-3" d="M403.62,248.35c-.37-.58-.89-.58-1.26.07-2.83,5.06-6.49,9.84-9.54,10-2.68.15-3.13-3.26-1.2-7.45,1.72-3.77,5.37-9.13,6.93-12.31,1.87-3.76-.44-7.3-2.9-7.67s-7.5,3.63-10.9,7c.83-2.6.9-5.06-.23-6.87-.44-.72-1-.79-1.56,0-4.53,6.51-10,16.14-11.75,20.88-2.27,3.4-5.18,6.15-7.69,6.26s-2.53-2.68-.74-6.88c1.57-3.61,4.69-8.54,6.25-11.72,1.79-3.61,1.2-6.73.08-7.93-.6-.64-1.13-.43-1.79.44a88.77,88.77,0,0,0-9.53,17.59c-2.08,5.93-.67,10.56,5,10.56a12.12,12.12,0,0,0,7.67-3.13,4.57,4.57,0,0,0,1.35,2.7c.66.65,1.13.37,1.41-.29,3.2-6.79,6.48-13.75,10.87-18.38,4.77-5.07,9.06-7.1,9.83-6.79,1.35.58-5.21,8.25-7.66,15.34-2.17,6.3-.67,10.78,5.66,10.78,4.31,0,9.06-3.69,11-7.74C404,250.81,404.15,249.15,403.62,248.35Z"/><path class="cls-3" d="M122,298.82c4.6-6.44,6.9-13.49,4.06-20.79-3.25-8.39-9.2-10.33-16.1-10.09-9.21.37-19.35,5.47-30.57,6.56-1.76.12-2,.86-1.35,2.2,1.35,2.55,3.92,4.62,8.52,5.1-11.78,16.66-24.5,39.51-28,50.57-2,6.57-.68,10.2,1.22,12,.94.85,1.62.85,2.16-.36,4.74-10.09,8.8-18.12,12.59-24.8a13.5,13.5,0,0,0,8.39,1.21C100.59,317.43,115.25,308.3,122,298.82ZM78.4,312.41c4.06-6.79,7.85-12.4,11.33-18,3.79-5.83,5.15-10.09,5.15-13.37,8.92-2.27,22.45-8.63,25.3-1.95,3.69,8.54-11.47,28.23-41.78,33.33Z"/><path class="cls-3" d="M198,296a6.8,6.8,0,0,0,.94-8.15c-1.75-3.28-5.66-4.74-7.84-2.68a7,7,0,0,0-.67,9C192.47,297.36,196.25,297.72,198,296Z"/><path class="cls-3" d="M306.8,296a6.8,6.8,0,0,0,.95-8.2c-1.75-3.29-5.66-4.75-7.85-2.69a7,7,0,0,0-.66,9.06C301.25,297.36,305,297.72,306.8,296Z"/><path class="cls-3" d="M414.36,325.69c-.27-1.22-1.48-1.22-2.26-.25a66.11,66.11,0,0,1-24.22,18.25c5.66-11.8,14.21-26.51,18.26-33.8,3.4-6,2.27-11.19.27-13.38-.94-1.13-2.26-1-3.39.73l-4.48,6.69c.14-4.26-2.57-8-8-8-6.9,0-17.86,5.47-28.41,19.58a35.65,35.65,0,0,0-6.24,12.46c-4.86,7.47-10.7,13.95-15.68,14.16s-5.67-5.47-2.17-12.52c3.12-6.32,9.74-15.32,12.58-20.67,3.4-6.32-.8-12.27-5.27-12.88s-13.67,6.08-19.75,11.91c1.48-4.37,1.62-8.51-.41-11.55-.81-1.21-1.9-1.34-2.84,0-8.24,10.94-18.27,27.11-21.36,35.1-4.08,5.79-9.4,10.32-14,10.51-4.32.24-4.6-4.53-1.35-11.56,2.85-6.07,8.52-14.34,11.33-19.69,3.25-6.08,2.17-11.33.13-13.25-1.07-1.13-2-.74-3.24.72-5,6.3-13.87,20.57-17.28,29.44-4.94,7.93-11.66,14.79-17.08,14.58-5.66-.24-7.18-7.78-2.71-16.66,5.14-10.19,12.85-22,18.12-30.15a45.47,45.47,0,0,1,10.55-.49c2,0,2.57-.85,1.62-2.27S284,288.9,278.75,289c3.25-6.32,3.25-10.33,1.77-13.74-.68-1.46-2-1.58-3.25,0a155.05,155.05,0,0,0-10.28,15,84.41,84.41,0,0,1-11.24.48c-2-.12-2.84.74-1.48,2.44,1.08,1.34,4.19,3.16,8.79,3.16-5.82,9.6-11.5,19.81-14.34,25.9a27.85,27.85,0,0,0-2.14,6.4c-4.75,7.15-10.37,13.21-15.18,13.41s-5.67-5.47-2.17-12.52c3.12-6.32,9.74-15.32,12.58-20.67,3.4-6.32-.8-12.27-5.27-12.88s-13.67,6.08-19.75,11.91c1.48-4.37,1.62-8.51-.41-11.55-.81-1.21-1.9-1.34-2.84,0-8.24,10.94-18.27,27.11-21.36,35.1-4.08,5.79-9.41,10.32-14,10.51-4.32.24-4.6-4.53-1.35-11.56,2.85-6.07,8.52-14.34,11.33-19.69,3.25-6.08,2.17-11.33.13-13.25-1.07-1.13-2-.74-3.24.72-5,6.33-13.93,20.68-17.32,29.55-.17.44-.32.88-.46,1.31-4.64,7-10.76,13.07-15.51,13.28s-4.46-5-1.13-11.8c3.24-6.44,10-15.56,13-21,3.25-6.09,2.16-11.33.13-13.5-.95-1.13-2-.85-3.24.72a86.1,86.1,0,0,0-4.87,7.42c.27-4.73-2.44-8.75-8.26-8.75-6.79,0-17.46,5.47-28.42,19.81-11.22,14.72-8.65,30.16,3.93,30.16,6.5,0,12.58-4.53,16.92-9.48,0,5.66,3.78,9.6,11.08,10,5.32.26,11.2-3.08,15.4-7.45.94,4.34,4.33,7.09,10.45,7.09a23,23,0,0,0,13.92-5.28,7.62,7.62,0,0,0,2.45,4.53c1.22,1.14,2,.6,2.57-.48,5.82-11.44,11.77-23.1,19.76-30.89,8.66-8.51,16.51-11.92,17.85-11.43,2.44,1-9.46,13.86-13.93,25.77-3.92,10.58-1.22,18.12,10.29,18.12,6.19,0,12.8-3.86,17.12-8.84a12,12,0,0,0,11.42,8.48c6.8.23,12.75-3.84,16.75-7.79.73,4.73,4.13,7.79,10.59,7.79a23,23,0,0,0,13.91-5.28,7.68,7.68,0,0,0,2.45,4.53c1.22,1.13,2,.6,2.58-.49,5.81-11.43,11.77-23.1,19.75-30.89,8.66-8.5,16.51-11.91,17.86-11.42,2.43,1-9.47,13.86-13.93,25.77-3.93,10.58-1.22,18.12,10.28,18.12,6.13,0,12.67-3.78,17-8.69,1.13,4.88,4.76,8.08,10.47,8.08,5,0,9.75-2.55,13.67-6.07-1.35,2.79-2.57,5.66-3.92,8.38-13.4,4.62-25,12-28.95,23-2.57,7.17-.14,11.43,2.7,15.08,2.44,3.15,5.14,3.53,7.85,2.55,11-3.89,20.56-23.22,28-39.51,11.24-3.65,21-8.51,26.25-15.93C414,329.46,414.63,326.78,414.36,325.69ZM124.54,341.38c-5.28-.13-3.51-10.83,3.65-21.28,7.44-10.83,17.33-18.73,21.65-18.36,3.92.37,2.71,7.93-5.82,21.28C137.13,333.71,130.08,341.5,124.54,341.38Zm227.72,40c-2.26-2.91,3.65-19.57,21.25-28.81-8.8,18.48-19.49,31.12-21.25,28.81Zm15.43-39.87c-5.42-.12-3.93-10.82,3.39-21.28s17.32-18.36,21.52-18.11c3.92.23,2.69,7.78-5.82,21.15C379.86,334,373,341.61,367.69,341.5Z"/><line class="cls-4" x1="147.94" y1="265.59" x2="414.36" y2="265.59"/><rect class="cls-7" x="147.94" y="264.71" width="266.42" height="1.76"/><path class="cls-3" d="M414.36,265.59"/><rect class="cls-7" x="413.76" y="264.72" width="0.67" height="1.76"/><path class="cls-3" d="M411.76,265.59"/><rect class="cls-7" x="410.99" y="264.72" width="2.55" height="1.76"/><path class="cls-3" d="M374,265.59"/><rect class="cls-7" x="373.97" y="264.72" width="0.25" height="1.76"/><path class="cls-3" d="M350.56,265.59"/><rect class="cls-7" x="350.56" y="264.72" width="0.26" height="1.76"/><path class="cls-3" d="M346.57,265.59"/><rect class="cls-7" x="346.57" y="264.72" width="0.24" height="1.76"/><path class="cls-3" d="M374,265.59"/><polygon class="cls-7" points="373.97 266.46 373.35 266.46 373.35 265.59 373.35 264.72 373.97 264.72 373.97 266.46"/><path class="cls-3" d="M406.55,265.59"/><rect class="cls-7" x="406.55" y="264.72" width="0.34" height="1.76"/><path class="cls-3" d="M384.3,265.59"/><rect class="cls-7" x="384.3" y="264.72" width="0.35" height="1.76"/><path class="cls-3" d="M392.21,265.59"/><rect class="cls-7" x="391.91" y="264.72" width="0.4" height="1.76"/><path class="cls-3" d="M404.77,265.59"/><rect class="cls-7" x="404.77" y="264.72" width="0.23" height="1.76"/><path class="cls-3" d="M378.62,265.59"/><polygon class="cls-7" points="378.62 266.46 378.56 266.46 378.56 264.72 378.62 266.46"/><path class="cls-3" d="M157.15,265.59"/><polygon class="cls-7" points="157.11 266.46 157.08 266.46 157.08 264.72 157.11 266.46"/><path class="cls-3" d="M147.94,265.59"/><polygon class="cls-7" points="148.09 266.46 147.94 264.72 148.09 264.72 148.09 266.46"/><path class="cls-3" d="M339.25,265.59"/><polygon class="cls-7" points="339.39 266.46 339.25 264.72 339.39 264.72 339.39 266.46"/><path class="cls-3" d="M272.1,265.59"/><rect class="cls-7" x="271.65" y="264.72" width="0.84" height="1.76"/><path class="cls-3" d="M406.34,265.59"/><rect class="cls-7" x="406.02" y="264.72" width="0.33" height="1.76"/><path class="cls-3" d="M272,265.59"/><polygon class="cls-7" points="272.14 266.46 272.01 264.72 272.14 264.72 272.14 266.46"/><path class="cls-3" d="M322.4,265.59"/><polygon class="cls-7" points="322.57 266.46 322.4 264.72 322.57 264.72 322.57 266.46"/><path class="cls-3" d="M334.93,265.59"/><rect class="cls-7" x="334.64" y="264.72" width="0.31" height="1.76"/><path class="cls-3" d="M315.88,265.59"/><rect class="cls-7" x="315.43" y="264.72" width="0.45" height="1.76"/><path class="cls-3" d="M309.1,265.59"/><rect class="cls-7" x="309.1" y="264.72" width="0.34" height="1.76"/><path class="cls-3" d="M177.75,265.59"/><polygon class="cls-7" points="177.75 266.46 177.13 266.46 177.13 264.72 177.43 266.42 177.13 264.72 177.75 264.72 177.75 266.46"/><path class="cls-3" d="M406.55,265.59"/><rect class="cls-7" x="406.34" y="264.72" width="0.24" height="1.76"/><path class="cls-3" d="M315.61,265.59"/><rect class="cls-7" x="314.53" y="264.72" width="1.08" height="1.76"/><path class="cls-3" d="M226.41,265.59"/><rect class="cls-7" x="226.18" y="264.72" width="0.25" height="1.76"/><path class="cls-3" d="M311.33,265.59"/><rect class="cls-7" x="310.6" y="264.72" width="0.74" height="1.76"/><path class="cls-3" d="M177.43,265.59"/><circle class="cls-7" cx="177.43" cy="265.59" r="0.87"/><path class="cls-3" d="M192.1,265.59"/><path class="cls-7" d="M410.49,266.46H152.7l.08-.63-.23-1.14H410.49Zm-11.6,0,.06-.63-.17-1Zm-58.09-1.13ZM182,266.46Zm-.42-1v1l.09-.64Zm-28.84,1h-.36l.1-.89-.13-.43v1.32h-4.42v-1.74h4.62Z"/><path class="cls-3" d="M191.49,265.59"/><rect class="cls-7" x="191.37" y="264.72" width="0.31" height="1.76"/><path class="cls-3" d="M374.26,265.59"/><polygon class="cls-7" points="374.31 266.46 374.22 266.46 374.31 264.72 374.31 266.46"/><polygon class="cls-3" points="224.17 265.59 224.17 265.59 223.99 265.59 224.17 265.59"/><polygon class="cls-7" points="224.17 266.46 223.99 266.46 223.99 264.72 224.17 266.46"/><path class="cls-3" d="M385.36,265.59"/><polygon class="cls-7" points="385.51 266.46 385.36 264.72 385.51 264.72 385.51 266.46"/><path class="cls-3" d="M390.16,265.59"/><rect class="cls-7" x="390.16" y="264.72" width="0.68" height="1.76"/><path class="cls-3" d="M393.81,265.59"/><polygon class="cls-7" points="393.92 266.46 393.86 264.72 393.92 264.72 393.92 266.46"/><path class="cls-3" d="M335.21,265.59"/><rect class="cls-7" x="334.9" y="264.72" width="0.31" height="1.76"/><path class="cls-3" d="M352.66,265.59"/><rect class="cls-7" x="352.1" y="264.72" width="0.55" height="1.76"/><path class="cls-3" d="M315.68,265.59"/><polygon class="cls-7" points="315.72 266.46 315.61 266.46 315.61 264.72 315.72 266.46"/><path class="cls-3" d="M351.29,265.59"/><rect class="cls-7" x="351.29" y="264.72" width="0.82" height="1.76"/><path class="cls-3" d="M409.83,265.59"/><polygon class="cls-7" points="410.04 266.46 409.83 264.72 410.04 264.72 410.04 266.46"/><path class="cls-3" d="M410,265.59"/><polygon class="cls-7" points="410.23 266.46 410.04 264.72 410.23 264.72 410.23 266.46"/><path class="cls-3" d="M410.65,265.59"/><rect class="cls-7" x="410.23" y="264.72" width="0.42" height="1.76"/><path class="cls-3" d="M405,265.59"/><polygon class="cls-7" points="404.95 266.46 404.89 266.46 404.89 264.72 404.95 266.46"/><path class="cls-3" d="M403.47,265.59"/><rect class="cls-7" x="403.47" y="264.72" width="1.43" height="1.76"/><path class="cls-3" d="M397.27,265.59"/><rect class="cls-7" x="397.27" y="264.72" width="1.3" height="1.76"/><path class="cls-3" d="M393.42,265.59"/><polygon class="cls-7" points="393.72 266.46 393.08 266.46 393.08 264.72 393.72 264.72 393.57 265.59 393.72 266.46"/><path class="cls-3" d="M365.57,265.59"/><rect class="cls-7" x="365.4" y="264.72" width="0.24" height="1.76"/><polygon class="cls-3" points="360.24 265.59 360.75 265.59 360.98 265.59 360.24 265.59"/><rect class="cls-7" x="360.24" y="264.72" width="0.74" height="1.76"/><polygon class="cls-3" points="357.09 265.59 357.31 265.59 356.45 265.59 357.09 265.59"/><rect class="cls-7" x="356.45" y="264.72" width="0.86" height="1.76"/><path class="cls-3" d="M310.31,265.59"/><rect class="cls-7" x="310.31" y="264.72" width="0.43" height="1.76"/><path class="cls-3" d="M290.11,265.59"/><rect class="cls-7" x="288.96" y="264.72" width="1.14" height="1.76"/><polygon class="cls-3" points="229.53 265.59 229.94 265.59 229.17 265.59 229.53 265.59"/><rect class="cls-7" x="229.17" y="264.72" width="0.77" height="1.76"/><path class="cls-8" d="M66.88,350.56a6.08,6.08,0,0,1,4.53,1.73,3.07,3.07,0,0,1,.93,1.74.79.79,0,0,1-.75.78,4.93,4.93,0,0,0-4.67-3.16c-3.39,0-5.8,3-5.8,7.55s2.27,7.5,5.88,7.5a4.55,4.55,0,0,0,4.61-3.58.74.74,0,0,1,.84.62h0v.1a3.59,3.59,0,0,1-.87,2,5.79,5.79,0,0,1-4.67,2c-4.35,0-7.14-3.55-7.14-8.58S62.6,350.56,66.88,350.56Z"/><path class="cls-8" d="M79.85,355.07c3.27,0,5.46,2.56,5.46,6.42s-2.26,6.29-5.46,6.29-5.49-2.59-5.49-6.35S76.56,355.07,79.85,355.07Zm0,1c-2.53,0-4.23,2-4.23,5.33s1.69,5.31,4.22,5.31,4.15-2,4.15-5.28-1.59-5.36-4.12-5.36Z"/><path class="cls-8" d="M104.4,360.08v7c0,.41-.2.57-.52.57h-.2c-.31,0-.52-.16-.52-.57v-6.94c0-2.69-1.06-3.94-2.9-3.94a3.66,3.66,0,0,0-3.4,2.82v8.06a.49.49,0,0,1-.39.57h-.34c-.33,0-.51-.16-.51-.57V360c0-2.51-1.05-3.76-2.9-3.76a3.83,3.83,0,0,0-3.4,2.78v8.1c0,.41-.21.57-.52.57h-.2c-.32,0-.53-.16-.53-.57V355.35c0-.06.23-.14.45-.14.51,0,.74.42.74,1.14v1.34a4,4,0,0,1,3.68-2.61,3.54,3.54,0,0,1,3.63,2.69,4.18,4.18,0,0,1,3.88-2.69C102.91,355.07,104.4,356.72,104.4,360.08Z"/><path class="cls-8" d="M124.22,360.08v7c0,.41-.2.57-.52.57h-.21c-.3,0-.52-.16-.52-.57v-6.94c0-2.69-1.06-3.94-2.9-3.94a3.67,3.67,0,0,0-3.39,2.82v8.06c0,.41-.21.57-.55.57H116c-.33,0-.51-.16-.51-.57V360c0-2.51-1-3.76-2.91-3.76a3.84,3.84,0,0,0-3.39,2.78v8.1c0,.41-.21.57-.51.57h-.17c-.31,0-.51-.16-.51-.57V355.35c0-.06.22-.14.43-.14.52,0,.76.42.76,1.14v1.34a3.94,3.94,0,0,1,3.68-2.61,3.53,3.53,0,0,1,3.62,2.69,4.19,4.19,0,0,1,3.88-2.69C122.71,355.07,124.22,356.72,124.22,360.08Z"/><path class="cls-8" d="M128.47,350.58a.83.83,0,0,1,.9.72.61.61,0,0,1,0,.19.84.84,0,0,1-.78.89h-.15a.89.89,0,0,1-.89-.89h0a.92.92,0,0,1,.89-.9Zm-.63,5.23c0-.46.21-.6.55-.6h.15c.31,0,.55.14.55.6V367c0,.47-.24.6-.55.6h-.15c-.34,0-.55-.13-.55-.6Z"/><path class="cls-8" d="M133.37,364.31v-7.93H132c-.36,0-.46-.16-.46-.44v-.17c0-.28.1-.47.46-.47h1.41v-2.43c0-.46.23-.6.54-.6H134c.31,0,.54.14.54.6v2.43h3a.46.46,0,0,1,.52.47v.14c0,.3-.18.46-.52.46H134.5v7.93c0,1.73.6,2.43,1.71,2.43a2.1,2.1,0,0,0,1.71-.88.53.53,0,0,1,.42.59,1.1,1.1,0,0,1-.58.91,2.24,2.24,0,0,1-1.59.49C134.5,367.81,133.37,366.84,133.37,364.31Z"/><path class="cls-8" d="M141,364.31v-7.93h-1.41c-.36,0-.46-.16-.46-.44v-.17c0-.28.1-.47.46-.47H141v-2.43c0-.46.22-.6.54-.6h.13c.31,0,.54.14.54.6v2.43h3a.46.46,0,0,1,.52.47v.14c0,.3-.18.46-.52.46h-3v7.93c0,1.73.6,2.43,1.71,2.43a2.1,2.1,0,0,0,1.71-.88.53.53,0,0,1,.42.59,1.12,1.12,0,0,1-.58.91,2.25,2.25,0,0,1-1.6.49C142.17,367.81,141,366.84,141,364.31Z"/><path class="cls-8" d="M152.62,355.07c3.09,0,4.95,2.32,4.95,5.9v.16c0,.36-.18.46-.55.46h-8.47v.31c0,3,1.71,4.82,4.17,4.82a3.59,3.59,0,0,0,3.66-2.51.79.79,0,0,1,.78.74,2.22,2.22,0,0,1-.65,1.3,4.81,4.81,0,0,1-3.76,1.53c-3.31,0-5.46-2.41-5.46-6.29S149.41,355.07,152.62,355.07Zm0,1c-2.2,0-3.73,1.68-4,4.45h7.69C156.21,357.89,154.88,356.1,152.62,356.1Z"/><path class="cls-8" d="M159.41,361.43c0-3.72,2.1-6.34,5-6.34a4.27,4.27,0,0,1,4.12,2.64v-7.62c0-.08.2-.16.44-.16.47,0,.78.26.78,1.13v16c0,.44-.23.55-.47.55h-.21c-.26,0-.46-.14-.48-.55v-2.15a4.19,4.19,0,0,1-4.15,2.85C161.44,367.78,159.41,365.19,159.41,361.43Zm9.14-2c-.6-2-1.91-3.32-3.91-3.32-2.26,0-4,2.11-4,5.25s1.65,5.35,4,5.35,3.8-1.91,3.8-4.4Z"/><path class="cls-8" d="M177.7,364.31v-7.93h-1.4c-.37,0-.47-.16-.47-.44v-.17c0-.28.1-.47.47-.47h1.4v-2.43c0-.46.24-.6.54-.6h.13c.32,0,.54.14.54.6v2.43h3a.47.47,0,0,1,.51.4v.21c0,.3-.18.46-.51.46h-3v7.93c0,1.73.6,2.43,1.71,2.43a2,2,0,0,0,1.71-.88.58.58,0,0,1,.42.59,1.1,1.1,0,0,1-.57.91,2.31,2.31,0,0,1-1.6.49C178.89,367.81,177.7,366.84,177.7,364.31Z"/><path class="cls-8" d="M189.45,355.07c3.28,0,5.47,2.56,5.47,6.42s-2.26,6.29-5.47,6.29-5.49-2.59-5.49-6.35S186.17,355.07,189.45,355.07Zm0,1c-2.54,0-4.22,2-4.22,5.33s1.68,5.31,4.22,5.31,4.15-2,4.15-5.28-1.63-5.36-4.11-5.36Z"/><path class="cls-8" d="M202.05,366.78V351.57a.7.7,0,0,1,.64-.77h8.61c.4,0,.64.16.64.5v.18c0,.33-.24.48-.64.48h-7.93v6.42h6c.41,0,.62.16.62.5V359c0,.36-.23.54-.62.54h-6v6.86h8.13c.4,0,.62.16.62.46V367c0,.34-.22.52-.62.52h-8.75a.69.69,0,0,1-.7-.68h0Z"/><path class="cls-8" d="M217,361.43l-3.89-5.66c-.05-.07.21-.49.68-.49s.57.21.8.59l3.19,4.8,3.16-4.74c.3-.49.52-.65.83-.65s.72.42.67.49l-3.94,5.66,3.94,5.66a.68.68,0,0,1-.67.47c-.45,0-.55-.18-.81-.6l-3.24-4.85-3.18,4.82c-.26.41-.46.63-.83.63s-.72-.4-.68-.47Z"/><path class="cls-8" d="M229.37,355.07a4.54,4.54,0,0,1,3.68,1.59,2.66,2.66,0,0,1,.69,1.53.65.65,0,0,1-.64.65h0a.43.43,0,0,1-.16,0,3.55,3.55,0,0,0-3.56-2.7c-2.49,0-4.15,2.13-4.15,5.29s1.71,5.31,4.15,5.31a3.55,3.55,0,0,0,3.56-2.82.68.68,0,0,1,.81.5h0a.49.49,0,0,1,0,.17,3.06,3.06,0,0,1-.77,1.69,4.55,4.55,0,0,1-3.66,1.53c-3.31,0-5.41-2.65-5.41-6.36S226.07,355.07,229.37,355.07Z"/><path class="cls-8" d="M240.94,355.07c3.08,0,4.95,2.32,4.95,5.9v.16c0,.36-.18.46-.54.46h-8.47v.31c0,3,1.7,4.82,4.16,4.82a3.56,3.56,0,0,0,3.65-2.51.78.78,0,0,1,.78.74,2.21,2.21,0,0,1-.64,1.3,4.82,4.82,0,0,1-3.76,1.53c-3.32,0-5.46-2.41-5.46-6.29S237.74,355.07,240.94,355.07Zm0,1c-2.26,0-3.73,1.68-4,4.45h7.69C244.52,357.89,243.21,356.1,240.94,356.1Z"/><path class="cls-8" d="M248.64,367V350.11c0-.08.18-.16.43-.16.42,0,.78.26.78,1.13v15.85c0,.45-.2.6-.54.6h-.12C248.87,367.62,248.64,367.47,248.64,367Z"/><path class="cls-8" d="M253.71,367V350.11c0-.08.19-.16.45-.16s.77.26.77,1.13v15.85c0,.45-.21.6-.55.6h-.12C253.92,367.62,253.71,367.47,253.71,367Z"/><path class="cls-8" d="M263.15,355.07c3.08,0,4.93,2.32,4.93,5.9v.16c0,.36-.18.46-.53.46h-8.49v.31c.06,3,1.71,4.82,4.18,4.82a3.56,3.56,0,0,0,3.64-2.51.8.8,0,0,1,.79.74,2.28,2.28,0,0,1-.65,1.3,4.81,4.81,0,0,1-3.76,1.53c-3.32,0-5.47-2.41-5.47-6.29S260,355.07,263.15,355.07Zm0,1c-2.21,0-3.74,1.68-4,4.45h7.69C266.77,357.89,265.45,356.1,263.15,356.1Z"/><path class="cls-8" d="M280.08,360.14V367c0,.47-.23.6-.55.6h-.09c-.34,0-.54-.13-.54-.6v-6.86c0-2.69-1.13-4-3.14-4a3.94,3.94,0,0,0-3.7,2.74V367c0,.47-.22.6-.54.6h-.14c-.33,0-.57-.13-.57-.6V355.35c0-.06.24-.14.45-.14.54,0,.74.45.74,1.23v1.24a4.11,4.11,0,0,1,4-2.61C278.52,355.07,280.08,356.8,280.08,360.14Z"/><path class="cls-8" d="M288.16,355.07a4.54,4.54,0,0,1,3.68,1.59,2.61,2.61,0,0,1,.7,1.53.66.66,0,0,1-.66.66h-.17a3.57,3.57,0,0,0-3.57-2.7c-2.49,0-4.15,2.13-4.15,5.29s1.71,5.31,4.15,5.31a3.57,3.57,0,0,0,3.57-2.82.7.7,0,0,1,.81.51.43.43,0,0,1,0,.16,3.07,3.07,0,0,1-.78,1.69,4.55,4.55,0,0,1-3.66,1.53c-3.32,0-5.41-2.65-5.41-6.35S284.87,355.07,288.16,355.07Z"/><path class="cls-8" d="M299.69,355.07c3.08,0,4.95,2.32,4.95,5.9v.16c0,.36-.18.46-.55.46h-8.47v.31c0,3,1.71,4.82,4.17,4.82a3.58,3.58,0,0,0,3.65-2.51.79.79,0,0,1,.78.74,2.28,2.28,0,0,1-.65,1.3,4.81,4.81,0,0,1-3.76,1.53c-3.31,0-5.46-2.41-5.46-6.29S296.53,355.07,299.69,355.07Zm0,1c-2.21,0-3.74,1.68-4,4.45h7.7C303.31,357.89,302,356.1,299.69,356.1Z"/></svg>