<svg id="Layer_1" data-name="Layer 1" xmlns="http://www.w3.org/2000/svg" viewBox="0 0 500 500"><defs><style>.cls-1{fill:#ff4500;}.cls-2{fill:#fff;}.cls-3{fill:#404041;}.cls-4{fill:none;}.cls-5{fill:#0071bc;}.cls-6{fill:#ff0;}.cls-7{fill:#333;}.cls-8{fill:#58595b;}</style></defs><title>HM Melvin Logo Profile Pic</title><rect class="cls-1" width="500" height="500"/><rect class="cls-2" x="12.5" y="12.5" width="475" height="475"/><path class="cls-3" d="M181,144.41a137.73,137.73,0,0,1,64.63-22.24c-5.25-2.59-25.3-2.9-39.86-.71a137.13,137.13,0,0,0-38,11.65c21-18.61,45.45-30.19,72.86-35.81-30.73,1.94-58.59,12-84.33,30.19,39-43,107.1-66.09,176.7-36-9.93,35.82-22.17,70.76-40.51,104.1-12-13.68-25.77-24-42.43-30-16.43-6-33.46-7.41-50.82-6.81,20.24-9.16,41.49-11.36,63.41-9.83A119.67,119.67,0,0,0,222,139.67,131.82,131.82,0,0,0,181,144.41Z"/><path class="cls-3" d="M315.39,209.22,294.52,199c21-34,32.11-71.43,42.16-110.1l21.47,6.33c-7.76,15.82-7.67,30.7-.16,45.42A39,39,0,0,0,380,160c11.73,4.14,24,6.8,36.06,9.95,7.6,2,15.37,3.29,22.85,5.62,16,5,25.38,16.64,30.71,32.07.91,2.59.22,4.1-2,5.59-8.82,5.87-18.52,7.06-28.71,5.61-12.94-1.83-23.76-8.38-34.5-15.36-11-7.14-22.35-13.78-33.74-20.3-3.22-1.84-7.1-2.59-10.71-3.64-12.68-3.88-22,1.68-29.77,11C325,196.79,320.08,203.28,315.39,209.22Zm33.79-94.84c-5.17,19.91,5.64,40.44,22.27,50.86,13.4,8.4,29.06,9.95,44.25,12.17,19.19,2.79,36.91,7.9,49.18,24.58a20,20,0,0,0-2.18-4.72c-7.65-11.75-19.41-17.61-32.35-20.81-14.17-3.52-28.76-5.41-42.94-8.89-13.17-3.25-24-10.44-31.29-22.39a49.88,49.88,0,0,1-6.94-30.82Z"/><path class="cls-4" d="M349.18,114.38a49.87,49.87,0,0,0,6.94,30.8c7.25,11.87,18.12,19.06,31.29,22.3,14.24,3.48,28.77,5.37,42.94,8.89,12.94,3.2,24.65,9.06,32.35,20.81a20,20,0,0,1,2.18,4.72c-12.22-16.66-29.94-21.78-49.18-24.58-15.19-2.22-30.85-3.77-44.25-12.17C354.82,154.82,344,134.29,349.18,114.38Z"/><path class="cls-5" d="M131.45,140.34c-2.93.88-5.41,1.87-7.55,2.69-4.35,1.71-8.55,3.89-12.82,5.81A174.87,174.87,0,0,0,86,162.77a112.25,112.25,0,0,0-17.8,15c-8.91,9.31-16.82,21-19.41,34.74C46,227.75,50.93,244,61.73,253.54c9.49,8.4,22.7,11.19,33.65,4.62,5.93-3.56,10.53-9.56,13.77-16.26,4.55-9.42,7-20.33,8.18-30.9,1.29-11.49,1.19-23.29,3.54-34.58,2.5-12,4.65-22,12-29.21,7.76-7.57,17-7.9,16.82-9.05S140.1,137.72,131.45,140.34Zm-14.74,13.73h0c-.43,1.37-3.77,2.91-4.82,3.64A285.09,285.09,0,0,0,89.32,175.4c-7.46,6.38-14.75,13.21-20.6,21.56a82.55,82.55,0,0,0-13.38,32.78c-.18,1.06-.63,2.41-1.58,2.37s-1.29-1.17-1.41-2.11a46.28,46.28,0,0,1,1.86-21,62,62,0,0,1,6.85-15c12.53-19.88,33.3-31.23,52.2-41C114.35,152.44,117.35,151.65,116.71,154.07Z"/><path class="cls-1" d="M145.26,149.89c-1.08,1.13-1.95,2.19-2.7,3.1-1.52,1.83-2.92,3.88-4.36,5.77a103.91,103.91,0,0,0-8,12.41,66.71,66.71,0,0,0-4.77,11c-2,6.3-3.21,13.38-1.72,20,1.66,7.32,6.81,13.11,13.16,14.49A14,14,0,0,0,152,210.07a21.85,21.85,0,0,0,2.81-10.53A48.39,48.39,0,0,0,152.5,184c-1.6-5.3-3.88-10.36-4.95-15.87-1.19-5.84-2.15-10.72-.37-15.71,1.88-5.25,5.76-7.77,5.44-8.23S148.45,146.48,145.26,149.89Zm-3.69,9.71h0c.07.7-1.06,2.21-1.37,2.79-2.31,4.34-4.33,8.84-6.27,13.41a69.82,69.82,0,0,0-4.71,14.57,43.3,43.3,0,0,0,.44,17.6c.13.51.18,1.21-.22,1.43s-.75-.18-1-.55a21.76,21.76,0,0,1-3.14-9.59,33.91,33.91,0,0,1,.13-8.24c1.6-11.8,8.29-22,14.49-31.06.34-.52,1.48-1.55,1.65-.36Z"/><path class="cls-6" d="M156.05,157.23v3.33c0,1.95.28,3.88.44,5.88a87.54,87.54,0,0,0,1.73,11.95,54.58,54.58,0,0,0,3,9.34c2.1,5,5.18,10,9.5,13.36,4.86,3.71,11,4.63,15.53,2.17a11.15,11.15,0,0,0,5.6-12A18.58,18.58,0,0,0,188,183.2a41,41,0,0,0-9.54-8.43c-3.77-2.48-7.76-4.47-11.35-7.32s-6.94-5.56-8.5-9.6c-1.66-4.26-.66-7.85-1.1-8S156.19,153.48,156.05,157.23Zm2.91,8h0c.43.4.54,1.94.66,2.45.91,3.89,2.07,7.77,3.33,11.65a57.56,57.56,0,0,0,4.87,11.56,36.43,36.43,0,0,0,9.56,10.75c.33.25.73.65.62,1s-.56.27-.9.17a17.89,17.89,0,0,1-6.93-4.34,27.52,27.52,0,0,1-4.27-5.17c-5.27-8.21-6.66-18.12-7.77-27,0-.53.09-1.73.83-1.13Z"/><path class="cls-3" d="M185.17,256a5.62,5.62,0,0,0-3.33-3.64c3.66-6.47,7-12,9.54-16.46,3.57-6.2,3.88-10.08,2.59-12.49-.52-1.07-1.3-1.15-2.14-.08-3.4,4.39-10.9,17.54-16.42,28.2-5.62.34-10.9,1.74-16.83,2.49,3.74-6.88,7.24-12.74,9.71-17.37,3.15-5.88,3.4-9.93,2.12-12.24-.5-.91-1.29-1.08-2-.08-3.48,4.79-11.4,19.1-16.83,30.1-1.11,0-2.3-.17-3.57-.25s-1.61.25-1.11,1.3a5.49,5.49,0,0,0,2.9,2.59,86.17,86.17,0,0,0-3.66,8.43c-1.45,5-.86,7.37.42,9.06.51.74,1.19.49,1.53-.33,2.47-5.54,5.11-11,7.77-16.13,4,0,10.54-1.07,16.82-1.81a83,83,0,0,0-3.59,7.93c-1.69,5.05-.93,7.44.26,9.06.52.75,1.12.66,1.45-.17,2.81-6.2,5.79-12.15,8.69-17.53a21.71,21.71,0,0,1,4.76.26C185.08,257.11,185.3,256.7,185.17,256Z"/><path class="cls-3" d="M237.51,224.12c-9.35,14.15-21.79,26.47-31.06,41.18,3.24-11.57,6.31-21.25,9.06-29.19,2.22-6.47,1.3-9.42-2-12.23-1.11-.92-2-.58-2.73.49-9.19,12.15-23,34.24-26.13,42.1-2,4.95-1,7.76.17,9.06.6.66,1.1.66,1.45-.17,5-11.09,14.55-25.88,22.13-37A204.16,204.16,0,0,0,201,265.56c-.85,5.18.43,8,3.24,10,.69.49,1.11.24,1.54-.59,6.12-11.09,16-23.73,25.7-35.14-5.52,10.35-11,21.91-12.25,26.79-1.45,5.46-.43,7.94.93,9.05.68.59,1,.59,1.37-.24,4.24-11.92,12.76-28.63,18.73-39.37,2.29-4.14,3.14-8.68-.26-12.07C239,223,238.28,223,237.51,224.12Z"/><path class="cls-3" d="M307.49,224c-1-1-1.7-.92-2.46.24-9.37,14.15-21.8,26.47-31.06,41.18,3.23-11.57,6.29-21.25,9.06-29.2,2.21-6.47,1.29-9.42-2-12.22-1.1-.92-2-.59-2.72.49-9.2,12.15-23,34.24-26.14,42.09-2,5-1,7.77.17,9.06.6.66,1.11.66,1.45-.16,5-11.1,14.56-25.89,22.13-37a205.62,205.62,0,0,0-7.31,27.18c-.86,5.18.43,8,3.23,10,.68.5,1.1.25,1.53-.58,6.13-11.09,16-23.73,25.71-35.15-5.53,10.36-11,21.91-12.26,26.79-1.44,5.46-.42,8,.94,9.06.67.58,1,.58,1.3-.24,4.25-11.92,12.77-28.63,18.72-39.37C310.05,231.89,310.9,227.35,307.49,224Z"/><path class="cls-3" d="M379.17,242.24c-.17-1.07-.68-1.29-1.62-.32-5.79,5.78-17.11,20.34-23.15,30,1.19-9.06,2.9-13.65,4.42-20,1.19-5,.77-8.1-2-10.35-.67-.58-1.36-.25-1.7.66a135.84,135.84,0,0,0-4.49,18.12,1.69,1.69,0,0,0-.79.77c-3.32,6.38-9.28,12.33-13.37,12-3.88-.33-2.89-7.2.52-15.3,7.57-4.8,17.11-14.72,19.75-24.9,1-3.88.51-6.95-2-9.06-1.19-1.07-2.38-.9-3.65.42-8.59,8.67-18.11,23.4-21.43,37.63-3.68,5.4-9.78,11.74-16.7,11.42-4.52-.25-6.56-5.47-3.89-13.08,6,4.72,11.65,2.59,15.83-2.39,3.57-4.22,4.26-9.26,2.73-11.24a15.78,15.78,0,0,0-5-4.31c-4.25-2.4-12.94,1.9-18.47,12.57s-1.79,21,9.06,20.84A21.74,21.74,0,0,0,329,268c.26,5.06,3.14,7.39,7.62,7.52,5.47.13,10.55-4.25,12.94-7.28v.26c-.26,4.38.93,6,4.26,7.61.85.41,1.29-.17,1.71-.83,8.16-12.57,15.91-20.51,20.17-25.73C378.4,246.12,379.41,244.05,379.17,242.24Zm-38.58,8.09c5.87-10.59,12.18-19.76,13.28-19.1s-3.67,13.9-15.33,23.07A25.7,25.7,0,0,1,340.59,250.33Zm-17.11-4.71c1.19.9-.69,5.18-3.4,8.68-2.47,3.15-6,6.71-10.14,4.14,3.89-8.85,11.65-14.23,13.48-12.82Z"/><path class="cls-3" d="M392.2,242a4.89,4.89,0,0,0,.59-5.54c-1.11-2.24-3.57-3.23-4.94-1.82a5,5,0,0,0-.41,6.12C388.7,242.89,391.06,243.13,392.2,242Z"/><path class="cls-3" d="M425.56,261.83c-.41-.67-1-.67-1.44.08-3.23,5.79-7.41,11.25-10.89,11.42-3.07.16-3.59-3.73-1.37-8.52,2-4.31,6.13-10.43,7.92-14.07,2.13-4.29-.51-8.34-3.32-8.76s-8.58,4.14-12.46,8c.95-3,1-5.79-.26-7.86-.5-.83-1.19-.91-1.78,0-5.18,7.44-11.5,18.44-13.44,23.86-2.59,3.89-5.91,7-8.78,7.16s-2.89-3.07-.85-7.87c1.79-4.13,5.36-9.76,7.15-13.39,2-4.13,1.37-7.69.09-9.06-.69-.74-1.3-.49-2.05.5a101.7,101.7,0,0,0-10.89,20.1c-2.38,6.78-.77,12.08,5.7,12.08a13.85,13.85,0,0,0,8.77-3.59A5.25,5.25,0,0,0,389.2,275c.76.74,1.29.42,1.61-.33,3.65-7.77,7.41-15.71,12.43-21,5.45-5.79,10.35-8.11,11.23-7.76,1.54.66-6,9.43-8.76,17.53-2.47,7.2-.76,12.32,6.47,12.32,4.93,0,10.35-4.21,12.59-8.85C426,264.64,426.17,262.74,425.56,261.83Z"/><path class="cls-3" d="M103.68,319.51c5.26-7.36,7.89-15.42,4.64-23.76-3.71-9.59-10.52-11.81-18.4-11.53-10.52.42-22.12,6.25-34.94,7.49-2,.15-2.32,1-1.54,2.52,1.54,2.91,4.48,5.28,9.74,5.83-13.47,19-28,45.15-32,57.8-2.31,7.5-.77,11.64,1.4,13.75,1.07,1,1.85,1,2.47-.41,5.41-11.53,10.06-20.71,14.38-28.34A15.43,15.43,0,0,0,59,344.24C79.24,340.77,96,330.34,103.68,319.51ZM53.89,335c4.63-7.76,9-14.17,12.94-20.56,4.34-6.67,5.89-11.53,5.89-15.29,10.2-2.58,25.66-9.86,28.91-2.22,4.22,9.76-13.11,32.26-47.74,38.1Z"/><path class="cls-3" d="M190.59,316.32a7.76,7.76,0,0,0,1.07-9.31c-2-3.75-6.47-5.42-9-3.07a8,8,0,0,0-.76,10.29C184.25,317.84,188.57,318.26,190.59,316.32Z"/><path class="cls-3" d="M314.91,316.32A7.76,7.76,0,0,0,316,307c-2-3.76-6.47-5.43-9-3.07a8,8,0,0,0-.76,10.35C308.57,317.84,312.89,318.26,314.91,316.32Z"/><path class="cls-3" d="M437.84,350.22c-.31-1.4-1.69-1.4-2.59-.28a75.58,75.58,0,0,1-27.68,20.85c6.47-13.49,16.24-30.3,20.88-38.63,3.88-6.81,2.58-12.79.31-15.29-1.08-1.29-2.59-1.11-3.89.83l-5.11,7.65c.16-4.87-2.93-9.18-9.12-9.18-7.88,0-20.41,6.25-32.47,22.38A40.82,40.82,0,0,0,371,352.78c-5.55,8.55-12.23,16-17.92,16.19s-6.47-6.25-2.48-14.31c3.56-7.22,11.13-17.51,14.38-23.62,3.88-7.22-.92-14-6-14.72s-15.62,6.95-22.57,13.61c1.7-5,1.85-9.72-.46-13.2-.94-1.38-2.18-1.53-3.25,0-9.42,12.5-20.88,31-24.41,40.12-4.67,6.61-10.74,11.79-16,12-4.94.27-5.25-5.18-1.54-13.22,3.25-6.93,9.74-16.38,12.95-22.5,3.71-6.95,2.48-12.94.15-15.14-1.23-1.3-2.32-.84-3.7.83-5.71,7.19-15.85,23.5-19.75,33.64-5.65,9.06-13.33,16.9-19.53,16.66-6.47-.27-8.2-8.89-3.09-19,5.88-11.64,14.69-25.14,20.71-34.46a52.34,52.34,0,0,1,12.06-.56c2.31,0,2.93-1,1.85-2.58s-3.56-4.31-9.59-4.17c3.71-7.22,3.71-11.8,2-15.7-.78-1.67-2.33-1.81-3.72,0a180.64,180.64,0,0,0-11.75,17.16,96.5,96.5,0,0,1-12.83.56c-2.32-.15-3.25.84-1.7,2.78,1.23,1.53,4.79,3.61,10,3.61-6.65,11-13.13,22.65-16.38,29.6a32,32,0,0,0-2.45,7.32c-5.43,8.17-11.85,15.09-17.35,15.32s-6.47-6.25-2.47-14.31c3.56-7.22,11.13-17.51,14.37-23.62,3.89-7.22-.91-14-6-14.72S219,323.27,212,329.93c1.7-5,1.86-9.72-.46-13.2-.93-1.38-2.18-1.53-3.25,0-9.42,12.5-20.87,31-24.41,40.12-4.67,6.61-10.75,11.79-15.95,12-4.95.27-5.26-5.18-1.54-13.22,3.25-6.93,9.73-16.38,12.94-22.5,3.71-6.95,2.48-12.94.15-15.14-1.23-1.3-2.31-.84-3.7.83-5.73,7.23-15.93,23.63-19.8,33.76-.19.5-.36,1-.53,1.5-5.29,8-12.29,14.94-17.71,15.18s-5.1-5.69-1.3-13.48c3.7-7.37,11.44-17.78,14.84-24,3.72-6.94,2.48-12.94.16-15.42-1.09-1.3-2.33-1-3.71.83a98.87,98.87,0,0,0-5.57,8.47c.31-5.41-2.78-10-9.43-10-7.77,0-20,6.25-32.49,22.65-12.82,16.82-9.88,34.46,4.5,34.46,7.42,0,14.37-5.18,19.33-10.83,0,6.47,4.32,11,12.67,11.39,6.08.29,12.8-3.52,17.6-8.52,1.07,5,4.94,8.1,11.94,8.1a26.26,26.26,0,0,0,15.91-6A8.71,8.71,0,0,0,185,372c1.4,1.29,2.33.68,2.94-.56,6.65-13.07,13.46-26.4,22.58-35.3,9.9-9.72,18.87-13.62,20.41-13.06,2.78,1.11-10.82,15.84-15.92,29.45-4.49,12.09-1.39,20.71,11.75,20.71,7.08,0,14.64-4.41,19.57-10.11a13.79,13.79,0,0,0,13.06,9.7c7.76.25,14.57-4.39,19.14-8.91.83,5.41,4.72,8.91,12.1,8.91a26.36,26.36,0,0,0,15.9-6,8.78,8.78,0,0,0,2.8,5.17c1.4,1.3,2.33.69,2.95-.55,6.64-13.08,13.45-26.4,22.57-35.31,9.9-9.72,18.87-13.61,20.41-13.06,2.78,1.12-10.82,15.84-15.92,29.46-4.49,12.09-1.4,20.7,11.75,20.7,7,0,14.48-4.32,19.41-9.92,1.3,5.58,5.45,9.23,12,9.23,5.74,0,11.14-2.92,15.62-6.94-1.54,3.2-2.94,6.47-4.48,9.58-15.3,5.28-28.61,13.75-33.09,26.27-2.93,8.19-.15,13.05,3.1,17.22,2.78,3.61,5.87,4,9,2.93,12.52-4.46,23.5-26.55,32-45.17,12.84-4.17,24-9.72,30-18.19C437.39,354.53,438.15,351.46,437.84,350.22ZM106.61,368.15c-6-.15-4-12.38,4.18-24.32,8.51-12.37,19.8-21.41,24.75-21,4.47.42,3.09,9.06-6.66,24.32C121,359.38,113,368.29,106.61,368.15Zm260.26,45.7c-2.59-3.32,4.17-22.36,24.28-32.92-10.06,21.12-22.27,35.56-24.28,32.92Zm17.63-45.56c-6.19-.14-4.49-12.37,3.88-24.32s19.79-21,24.59-20.7c4.48.27,3.08,8.89-6.65,24.17-7.91,12.23-15.79,21-21.82,20.85Z"/><line class="cls-4" x1="133.36" y1="281.53" x2="437.84" y2="281.53"/><rect class="cls-7" x="133.36" y="280.52" width="304.48" height="2.01"/><path class="cls-3" d="M437.84,281.53"/><rect class="cls-7" x="437.16" y="280.53" width="0.76" height="2.01"/><path class="cls-3" d="M434.87,281.53"/><rect class="cls-7" x="433.99" y="280.53" width="2.91" height="2.01"/><path class="cls-3" d="M391.68,281.53"/><rect class="cls-7" x="391.68" y="280.53" width="0.28" height="2.01"/><path class="cls-3" d="M364.93,281.53"/><rect class="cls-7" x="364.93" y="280.53" width="0.3" height="2.01"/><path class="cls-3" d="M360.36,281.53"/><rect class="cls-7" x="360.36" y="280.53" width="0.27" height="2.01"/><path class="cls-3" d="M391.68,281.53"/><polygon class="cls-7" points="391.68 282.53 390.97 282.53 390.97 281.53 390.97 280.53 391.68 280.53 391.68 282.53"/><path class="cls-3" d="M428.91,281.53"/><rect class="cls-7" x="428.91" y="280.53" width="0.39" height="2.01"/><path class="cls-3" d="M403.48,281.53"/><rect class="cls-7" x="403.48" y="280.53" width="0.4" height="2.01"/><path class="cls-3" d="M412.53,281.53"/><rect class="cls-7" x="412.18" y="280.53" width="0.45" height="2.01"/><path class="cls-3" d="M426.88,281.53"/><rect class="cls-7" x="426.88" y="280.53" width="0.26" height="2.01"/><path class="cls-3" d="M397,281.53"/><polygon class="cls-7" points="397 282.53 396.92 282.53 396.92 280.53 397 282.53"/><path class="cls-3" d="M143.88,281.53"/><polygon class="cls-7" points="143.84 282.53 143.81 282.53 143.81 280.53 143.84 282.53"/><path class="cls-3" d="M133.36,281.53"/><polygon class="cls-7" points="133.53 282.53 133.36 280.53 133.53 280.53 133.53 282.53"/><path class="cls-3" d="M352,281.53"/><polygon class="cls-7" points="352.16 282.53 352 280.53 352.16 280.53 352.16 282.53"/><path class="cls-3" d="M275.26,281.53"/><rect class="cls-7" x="274.74" y="280.53" width="0.96" height="2.01"/><path class="cls-3" d="M428.68,281.53"/><rect class="cls-7" x="428.3" y="280.53" width="0.38" height="2.01"/><path class="cls-3" d="M275.16,281.53"/><polygon class="cls-7" points="275.3 282.53 275.16 280.53 275.3 280.53 275.3 282.53"/><path class="cls-3" d="M332.75,281.53"/><polygon class="cls-7" points="332.94 282.53 332.75 280.53 332.94 280.53 332.94 282.53"/><path class="cls-3" d="M347.06,281.53"/><rect class="cls-7" x="346.74" y="280.53" width="0.35" height="2.01"/><path class="cls-3" d="M325.29,281.53"/><rect class="cls-7" x="324.77" y="280.53" width="0.52" height="2.01"/><path class="cls-3" d="M317.54,281.53"/><rect class="cls-7" x="317.54" y="280.53" width="0.39" height="2.01"/><path class="cls-3" d="M167.42,281.53"/><polygon class="cls-7" points="167.42 282.53 166.72 282.53 166.72 280.53 167.06 282.48 166.72 280.53 167.42 280.53 167.42 282.53"/><path class="cls-3" d="M428.91,281.53"/><rect class="cls-7" x="428.68" y="280.53" width="0.27" height="2.01"/><path class="cls-3" d="M325,281.53"/><rect class="cls-7" x="323.75" y="280.53" width="1.23" height="2.01"/><path class="cls-3" d="M223,281.53"/><rect class="cls-7" x="222.77" y="280.53" width="0.28" height="2.01"/><path class="cls-3" d="M320.09,281.53"/><rect class="cls-7" x="319.26" y="280.53" width="0.84" height="2.01"/><path class="cls-3" d="M167.06,281.53"/><circle class="cls-7" cx="167.06" cy="281.53" r="1"/><path class="cls-3" d="M183.83,281.53"/><path class="cls-7" d="M433.42,282.53H138.8l.09-.73-.26-1.29H433.42Zm-13.26,0,.07-.73-.2-1.18Zm-66.38-1.3Zm-181.54,1.3Zm-.48-1.18v1.18l.1-.74Zm-33,1.18h-.42l.12-1-.14-.49v1.52H133.3v-2h5.28Z"/><path class="cls-3" d="M183.13,281.53"/><rect class="cls-7" x="182.99" y="280.53" width="0.35" height="2.01"/><path class="cls-3" d="M392,281.53"/><polygon class="cls-7" points="392.07 282.53 391.96 282.53 392.07 280.53 392.07 282.53"/><polygon class="cls-3" points="220.48 281.53 220.48 281.53 220.28 281.53 220.48 281.53"/><polygon class="cls-7" points="220.48 282.53 220.28 282.53 220.28 280.53 220.48 282.53"/><path class="cls-3" d="M404.7,281.53"/><polygon class="cls-7" points="404.87 282.53 404.7 280.53 404.87 280.53 404.87 282.53"/><path class="cls-3" d="M410.19,281.53"/><rect class="cls-7" x="410.19" y="280.53" width="0.78" height="2.01"/><path class="cls-3" d="M414.35,281.53"/><polygon class="cls-7" points="414.48 282.53 414.4 280.53 414.48 280.53 414.48 282.53"/><path class="cls-3" d="M347.38,281.53"/><rect class="cls-7" x="347.03" y="280.53" width="0.35" height="2.01"/><path class="cls-3" d="M367.33,281.53"/><rect class="cls-7" x="366.69" y="280.53" width="0.63" height="2.01"/><path class="cls-3" d="M325.06,281.53"/><polygon class="cls-7" points="325.11 282.53 324.98 282.53 324.98 280.53 325.11 282.53"/><path class="cls-3" d="M365.76,281.53"/><rect class="cls-7" x="365.76" y="280.53" width="0.93" height="2.01"/><path class="cls-3" d="M432.67,281.53"/><polygon class="cls-7" points="432.9 282.53 432.67 280.53 432.9 280.53 432.9 282.53"/><path class="cls-3" d="M432.9,281.53"/><polygon class="cls-7" points="433.12 282.53 432.9 280.53 433.12 280.53 433.12 282.53"/><path class="cls-3" d="M433.6,281.53"/><rect class="cls-7" x="433.12" y="280.53" width="0.48" height="2.01"/><path class="cls-3" d="M427.09,281.53"/><polygon class="cls-7" points="427.09 282.53 427.02 282.53 427.02 280.53 427.09 282.53"/><path class="cls-3" d="M425.39,281.53"/><rect class="cls-7" x="425.39" y="280.53" width="1.63" height="2.01"/><path class="cls-3" d="M418.31,281.53"/><rect class="cls-7" x="418.31" y="280.53" width="1.49" height="2.01"/><path class="cls-3" d="M413.91,281.53"/><polygon class="cls-7" points="414.25 282.53 413.52 282.53 413.52 280.53 414.25 280.53 414.08 281.53 414.25 282.53"/><path class="cls-3" d="M382.08,281.53"/><rect class="cls-7" x="381.88" y="280.53" width="0.27" height="2.01"/><polygon class="cls-3" points="375.98 281.53 376.56 281.53 376.84 281.53 375.98 281.53"/><rect class="cls-7" x="375.98" y="280.53" width="0.84" height="2.01"/><polygon class="cls-3" points="372.38 281.53 372.64 281.53 371.66 281.53 372.38 281.53"/><rect class="cls-7" x="371.66" y="280.53" width="0.98" height="2.01"/><path class="cls-3" d="M318.93,281.53"/><rect class="cls-7" x="318.93" y="280.53" width="0.49" height="2.01"/><path class="cls-3" d="M295.84,281.53"/><rect class="cls-7" x="294.53" y="280.53" width="1.31" height="2.01"/><polygon class="cls-3" points="226.6 281.53 227.07 281.53 226.19 281.53 226.6 281.53"/><rect class="cls-7" x="226.19" y="280.53" width="0.88" height="2.01"/><path class="cls-8" d="M40.72,378.64a6.92,6.92,0,0,1,5.17,2,3.39,3.39,0,0,1,1.06,2,.88.88,0,0,1-.85.89,5.63,5.63,0,0,0-5.33-3.61c-3.88,0-6.63,3.46-6.63,8.63s2.59,8.57,6.72,8.57A5.17,5.17,0,0,0,46.13,393a.84.84,0,0,1,.95.71h0a.24.24,0,0,1,0,.12,4.05,4.05,0,0,1-1,2.23,6.58,6.58,0,0,1-5.33,2.27c-5,0-8.17-4.06-8.17-9.81S35.82,378.64,40.72,378.64Z"/><path class="cls-8" d="M55.55,383.79c3.72,0,6.23,2.93,6.23,7.34s-2.58,7.19-6.23,7.19-6.28-3-6.28-7.26S51.78,383.79,55.55,383.79Zm0,1.18c-2.9,0-4.84,2.34-4.84,6.09s1.93,6.07,4.82,6.07,4.74-2.3,4.74-6S58.46,385,55.56,385Z"/><path class="cls-8" d="M83.6,389.52v8c0,.47-.23.65-.59.65h-.23c-.35,0-.6-.18-.6-.65V389.6c0-3.08-1.2-4.5-3.31-4.5A4.19,4.19,0,0,0,75,388.32v9.21a.55.55,0,0,1-.44.65h-.4c-.37,0-.58-.18-.58-.65v-8.14c0-2.87-1.19-4.29-3.31-4.29a4.37,4.37,0,0,0-3.88,3.17v9.26c0,.47-.25.65-.6.65h-.23c-.36,0-.6-.18-.6-.65V384.11c0-.06.26-.15.51-.15.58,0,.85.48.85,1.29v1.54a4.55,4.55,0,0,1,4.21-3,4,4,0,0,1,4.14,3.08,4.79,4.79,0,0,1,4.44-3.08C81.9,383.79,83.6,385.68,83.6,389.52Z"/><path class="cls-8" d="M106.25,389.52v8c0,.47-.23.65-.59.65h-.24c-.35,0-.59-.18-.59-.65V389.6c0-3.08-1.22-4.5-3.32-4.5a4.21,4.21,0,0,0-3.88,3.22v9.21c0,.47-.23.65-.62.65H96.8c-.37,0-.58-.18-.58-.65v-8.14c0-2.87-1.19-4.29-3.32-4.29A4.41,4.41,0,0,0,89,388.27v9.26c0,.47-.23.65-.58.65h-.19c-.35,0-.59-.18-.59-.65V384.11c0-.06.26-.15.5-.15.59,0,.86.48.86,1.29v1.54a4.54,4.54,0,0,1,4.21-3,4,4,0,0,1,4.14,3.08,4.8,4.8,0,0,1,4.44-3.08C104.53,383.79,106.25,385.68,106.25,389.52Z"/><path class="cls-8" d="M111.1,378.67a.94.94,0,0,1,1,.81.81.81,0,0,1,0,.22,1,1,0,0,1-.89,1h-.17a1,1,0,0,1-1-1h0a1,1,0,0,1,1-1Zm-.71,6c0-.54.23-.69.62-.69h.18c.35,0,.63.15.63.69v12.81c0,.53-.28.68-.63.68H111c-.39,0-.62-.15-.62-.68Z"/><path class="cls-8" d="M116.71,394.35v-9.06H115.1c-.41,0-.53-.18-.53-.5v-.2c0-.32.12-.53.53-.53h1.61v-2.78c0-.53.26-.69.62-.69h.14c.36,0,.62.16.62.69v2.78h3.41a.52.52,0,0,1,.59.53v.16c0,.35-.21.53-.59.53H118v9.06c0,2,.69,2.78,2,2.78a2.41,2.41,0,0,0,2-1,.61.61,0,0,1,.48.67,1.3,1.3,0,0,1-.66,1.05,2.63,2.63,0,0,1-1.83.56C118,398.35,116.71,397.25,116.71,394.35Z"/><path class="cls-8" d="M125.4,394.35v-9.06h-1.6c-.42,0-.53-.18-.53-.5v-.2c0-.32.11-.53.53-.53h1.6v-2.78c0-.53.26-.69.62-.69h.15c.36,0,.62.16.62.69v2.78h3.4c.39,0,.6.21.6.53v.16c0,.35-.21.53-.6.53h-3.4v9.06c0,2,.68,2.78,2,2.78a2.41,2.41,0,0,0,2-1,.61.61,0,0,1,.48.67,1.3,1.3,0,0,1-.66,1.05,2.63,2.63,0,0,1-1.83.56C126.76,398.35,125.4,397.25,125.4,394.35Z"/><path class="cls-8" d="M138.71,383.79c3.53,0,5.65,2.65,5.65,6.74v.18c0,.42-.2.54-.62.54h-9.68v.34c0,3.47,2,5.52,4.76,5.52a4.1,4.1,0,0,0,4.18-2.88.92.92,0,0,1,.9.86,2.65,2.65,0,0,1-.74,1.49,5.53,5.53,0,0,1-4.3,1.74c-3.79,0-6.25-2.75-6.25-7.19S135,383.79,138.71,383.79Zm0,1.18c-2.51,0-4.26,1.93-4.58,5.08h8.78C142.81,387,141.3,385,138.71,385Z"/><path class="cls-8" d="M146.47,391.06c0-4.25,2.4-7.24,5.73-7.24a4.89,4.89,0,0,1,4.72,3v-8.71c0-.09.23-.18.5-.18.53,0,.89.3.89,1.3v18.29c0,.51-.27.63-.54.63h-.23c-.3,0-.53-.16-.56-.63v-2.45a4.81,4.81,0,0,1-4.74,3.26C148.79,398.32,146.47,395.36,146.47,391.06Zm10.45-2.25c-.69-2.28-2.19-3.79-4.47-3.79-2.59,0-4.53,2.41-4.53,6s1.89,6.12,4.56,6.12,4.34-2.18,4.34-5Z"/><path class="cls-8" d="M167.37,394.35v-9.06h-1.6c-.42,0-.53-.18-.53-.5v-.2c0-.32.11-.53.53-.53h1.6v-2.78c0-.53.27-.69.62-.69h.15c.36,0,.62.16.62.69v2.78h3.41a.54.54,0,0,1,.59.46v.23c0,.35-.21.53-.59.53h-3.41v9.06c0,2,.68,2.78,2,2.78a2.3,2.3,0,0,0,1.95-1,.66.66,0,0,1,.48.67,1.27,1.27,0,0,1-.64,1.05,2.67,2.67,0,0,1-1.84.56C168.73,398.35,167.37,397.25,167.37,394.35Z"/><path class="cls-8" d="M180.8,383.79c3.74,0,6.26,2.93,6.26,7.34s-2.59,7.19-6.26,7.19-6.27-3-6.27-7.26S177.05,383.79,180.8,383.79Zm0,1.18c-2.91,0-4.82,2.34-4.82,6.09s1.91,6.07,4.82,6.07,4.74-2.3,4.74-6-1.86-6.13-4.7-6.13Z"/><path class="cls-8" d="M195.2,397.17V379.79a.81.81,0,0,1,.73-.88h9.84c.46,0,.74.18.74.57v.21c0,.37-.28.56-.74.56h-9.06v7.33h6.85c.46,0,.71.18.71.57v.12c0,.41-.27.62-.71.62h-6.85v7.84H206c.45,0,.71.18.71.53v.21c0,.39-.26.6-.71.6H196a.79.79,0,0,1-.8-.78h0Z"/><path class="cls-8" d="M212.33,391.06l-4.44-6.47c-.06-.07.23-.55.78-.55s.64.23.9.67l3.65,5.49,3.61-5.43c.35-.55.6-.73.95-.73s.83.48.77.55l-4.5,6.47,4.5,6.47a.8.8,0,0,1-.77.54c-.51,0-.62-.21-.92-.69l-3.7-5.54-3.64,5.51c-.3.47-.53.72-.94.72s-.83-.46-.78-.54Z"/><path class="cls-8" d="M226.42,383.79a5.18,5.18,0,0,1,4.21,1.83,3.07,3.07,0,0,1,.79,1.74.74.74,0,0,1-.74.74h-.21A4.06,4.06,0,0,0,226.4,385c-2.85,0-4.74,2.43-4.74,6s2,6.07,4.74,6.07a4.07,4.07,0,0,0,4.07-3.22.77.77,0,0,1,.92.57h0a.61.61,0,0,1,0,.19,3.4,3.4,0,0,1-.88,1.93,5.16,5.16,0,0,1-4.18,1.75c-3.78,0-6.18-3-6.18-7.26S222.66,383.79,226.42,383.79Z"/><path class="cls-8" d="M239.65,383.79c3.52,0,5.65,2.65,5.65,6.74v.18c0,.42-.2.54-.62.54H235v.34c0,3.47,1.94,5.52,4.76,5.52a4.06,4.06,0,0,0,4.17-2.88.9.9,0,0,1,.89.86,2.57,2.57,0,0,1-.73,1.49,5.53,5.53,0,0,1-4.3,1.74c-3.79,0-6.24-2.75-6.24-7.19S236,383.79,239.65,383.79Zm0,1.18c-2.59,0-4.27,1.93-4.6,5.08h8.79C243.74,387,242.24,385,239.65,385Z"/><path class="cls-8" d="M248.45,397.46V378.12c0-.09.21-.18.49-.18.48,0,.89.3.89,1.3v18.11c0,.51-.23.69-.62.69h-.14C248.71,398.14,248.45,398,248.45,397.46Z"/><path class="cls-8" d="M254.25,397.46V378.12c0-.09.2-.18.5-.18s.88.3.88,1.3v18.11c0,.51-.23.69-.62.69h-.14C254.48,398.14,254.25,398,254.25,397.46Z"/><path class="cls-8" d="M265,383.79c3.52,0,5.64,2.65,5.64,6.74v.18c0,.42-.21.54-.61.54h-9.71v.34c.07,3.47,2,5.52,4.78,5.52a4.06,4.06,0,0,0,4.17-2.88.91.91,0,0,1,.89.86,2.65,2.65,0,0,1-.74,1.49,5.53,5.53,0,0,1-4.3,1.74c-3.79,0-6.25-2.75-6.25-7.19S261.4,383.79,265,383.79Zm0,1.18c-2.53,0-4.28,1.93-4.6,5.08h8.79C269.17,387,267.65,385,265,385Z"/><path class="cls-8" d="M284.37,389.59v7.87c0,.53-.26.68-.62.68h-.1c-.39,0-.62-.15-.62-.68v-7.85c0-3.08-1.3-4.55-3.59-4.55a4.52,4.52,0,0,0-4.23,3.13v9.27c0,.53-.25.68-.62.68h-.16c-.37,0-.64-.15-.64-.68V384.11c0-.06.27-.15.5-.15.62,0,.86.5.86,1.4v1.42a4.71,4.71,0,0,1,4.52-3C282.6,383.79,284.37,385.77,284.37,389.59Z"/><path class="cls-8" d="M293.61,383.79a5.18,5.18,0,0,1,4.21,1.83,3,3,0,0,1,.8,1.74.76.76,0,0,1-.76.75h-.2a4.06,4.06,0,0,0-4.07-3.08c-2.85,0-4.74,2.44-4.74,6.05s1.95,6.07,4.74,6.07a4.08,4.08,0,0,0,4.07-3.23.78.78,0,0,1,.93.59.28.28,0,0,1,0,.18,3.45,3.45,0,0,1-.89,1.93,5.18,5.18,0,0,1-4.18,1.74c-3.79,0-6.18-3-6.18-7.26S289.85,383.79,293.61,383.79Z"/><path class="cls-8" d="M306.79,383.79c3.52,0,5.65,2.65,5.65,6.74v.18c0,.42-.21.54-.62.54h-9.68v.34c0,3.47,1.95,5.52,4.76,5.52a4.06,4.06,0,0,0,4.17-2.88.9.9,0,0,1,.89.86,2.57,2.57,0,0,1-.73,1.49,5.53,5.53,0,0,1-4.3,1.74c-3.79,0-6.24-2.75-6.24-7.19S303.18,383.79,306.79,383.79Zm0,1.18c-2.53,0-4.27,1.93-4.6,5.08H311C310.93,387,309.41,385,306.79,385Z"/></svg>