<svg id="Layer_1" data-name="Layer 1" xmlns="http://www.w3.org/2000/svg" viewBox="0 0 500 500"><defs><style>.cls-1{fill:#ff4500;}.cls-2{fill:#fff;}.cls-3{fill:#404041;}.cls-4{fill:none;}.cls-5{fill:#0071bc;}.cls-6{fill:#ff0;}.cls-7{fill:#333;}.cls-8{fill:#58595b;}</style></defs><title>HM Melvin Logo Profile Pic</title><rect class="cls-1" width="500" height="500"/><rect class="cls-2" x="25" y="25" width="450" height="450" rx="36"/><path class="cls-3" d="M187.22,154A125.3,125.3,0,0,1,246,133.79c-4.77-2.35-23-2.63-36.24-.64a124.83,124.83,0,0,0-34.55,10.58c19.09-16.91,41.32-27.44,66.23-32.55-27.92,1.77-53.25,10.87-76.65,27.45,35.41-39.12,97.36-60.08,160.63-32.7-9,32.57-20.15,64.33-36.82,94.64-10.94-12.44-23.44-21.78-38.58-27.31-14.94-5.45-30.42-6.74-46.2-6.18,18.4-8.33,37.72-10.33,57.65-9a109,109,0,0,0-36.88-8.43A119.56,119.56,0,0,0,187.22,154Z"/><path class="cls-3" d="M309.45,212.92l-19-9.26c19.06-30.9,29.19-64.94,38.33-100.09l19.52,5.75c-7.06,14.39-7,27.92-.14,41.3a35.49,35.49,0,0,0,20,17.53c10.66,3.76,21.81,6.17,32.77,9,6.91,1.8,14,3,20.78,5.11,14.58,4.53,23.07,15.13,27.92,29.15.82,2.36.2,3.73-1.83,5.08-8,5.35-16.83,6.43-26.09,5.11-11.76-1.67-21.6-7.62-31.36-14-10-6.5-20.32-12.53-30.68-18.46-2.92-1.67-6.45-2.36-9.74-3.31-11.53-3.53-20,1.53-27.06,10C318.17,201.63,313.71,207.52,309.45,212.92Zm30.72-86.21c-4.71,18.1,5.12,36.77,20.24,46.24,12.18,7.63,26.41,9,40.23,11.06,17.44,2.54,33.55,7.18,44.7,22.35a18,18,0,0,0-2-4.3c-7-10.68-17.65-16-29.42-18.91-12.88-3.2-26.14-4.92-39-8.09-12-2.95-21.86-9.49-28.45-20.35a45.35,45.35,0,0,1-6.3-28Z"/><path class="cls-4" d="M340.17,126.71a45.29,45.29,0,0,0,6.3,28C353.06,165.5,362.94,172,374.92,175c12.94,3.17,26.15,4.88,39,8.08,11.77,2.91,22.42,8.24,29.42,18.92a17.81,17.81,0,0,1,2,4.3c-11.1-15.16-27.21-19.8-44.7-22.36-13.82-2-28.05-3.42-40.23-11.06C345.29,163.48,335.44,144.81,340.17,126.71Z"/><path class="cls-5" d="M142.22,150.31c-2.65.8-4.91,1.7-6.85,2.45-4,1.55-7.78,3.53-11.66,5.28a158.51,158.51,0,0,0-22.8,12.66,102.72,102.72,0,0,0-16.18,13.61c-8.11,8.46-15.29,19.11-17.65,31.58-2.56,13.88,1.94,28.67,11.77,37.33,8.62,7.63,20.63,10.17,30.59,4.2,5.38-3.24,9.57-8.7,12.51-14.78,4.15-8.56,6.37-18.48,7.44-28.09,1.18-10.45,1.08-21.18,3.22-31.44,2.27-10.89,4.23-20,10.93-26.55,7.06-6.88,15.51-7.19,15.3-8.24S150.1,147.92,142.22,150.31Zm-13.4,12.48h0c-.38,1.25-3.42,2.65-4.37,3.31a256.92,256.92,0,0,0-20.52,16.08c-6.79,5.8-13.41,12-18.73,19.6A75,75,0,0,0,73,231.58c-.17,1-.58,2.19-1.44,2.15s-1.18-1-1.28-1.91A42,42,0,0,1,72,212.7a56.44,56.44,0,0,1,6.23-13.61C89.62,181,108.51,170.7,125.7,161.81,126.68,161.31,129.41,160.59,128.82,162.79Z"/><path class="cls-1" d="M154.78,159c-1,1-1.77,2-2.45,2.82-1.39,1.67-2.66,3.52-4,5.24a93.71,93.71,0,0,0-7.31,11.28,61.23,61.23,0,0,0-4.33,10c-1.86,5.73-2.92,12.16-1.56,18.15,1.5,6.66,6.18,11.92,12,13.18a12.76,12.76,0,0,0,13.79-6,20,20,0,0,0,2.55-9.58,44.13,44.13,0,0,0-2.1-14.11c-1.46-4.82-3.53-9.42-4.51-14.43-1.08-5.3-2-9.74-.33-14.28,1.71-4.78,5.24-7.06,4.94-7.48S157.68,155.89,154.78,159Zm-3.36,8.83h0c.08.63-1,2-1.24,2.54-2.1,3.94-3.93,8-5.7,12.19a62.8,62.8,0,0,0-4.28,13.24,39.39,39.39,0,0,0,.4,16c.12.46.17,1.1-.2,1.3s-.68-.17-.9-.5a19.57,19.57,0,0,1-2.86-8.71,30.85,30.85,0,0,1,.11-7.5c1.46-10.73,7.55-20,13.18-28.23.31-.47,1.34-1.42,1.49-.33Z"/><path class="cls-6" d="M164.59,165.66v3c0,1.77.26,3.53.4,5.35a78.08,78.08,0,0,0,1.58,10.86,49.32,49.32,0,0,0,2.7,8.49c1.91,4.56,4.71,9.12,8.64,12.14,4.42,3.38,10,4.22,14.11,2a10.15,10.15,0,0,0,5.1-10.92,17,17,0,0,0-3.53-7.31,37.52,37.52,0,0,0-8.67-7.67c-3.42-2.25-7.06-4.06-10.32-6.65s-6.3-5.06-7.73-8.73c-1.5-3.87-.6-7.14-1-7.26S164.72,162.25,164.59,165.66Zm2.65,7.26h0c.38.37.49,1.77.6,2.24.82,3.53,1.88,7.06,3,10.59a52.11,52.11,0,0,0,4.44,10.5A32.9,32.9,0,0,0,184,206c.3.22.67.59.56.92s-.5.24-.81.15a16.31,16.31,0,0,1-6.31-3.94,25.81,25.81,0,0,1-3.88-4.71c-4.79-7.46-6-16.47-7.06-24.49,0-.48.09-1.58.76-1Z"/><path class="cls-3" d="M191.06,255.49a5.11,5.11,0,0,0-3-3.31c3.33-5.88,6.34-10.9,8.67-15,3.24-5.64,3.53-9.17,2.35-11.36-.47-1-1.18-1-1.94-.07-3.1,4-9.91,15.94-14.93,25.64-5.11.3-9.91,1.58-15.29,2.26,3.4-6.25,6.57-11.58,8.82-15.79,2.86-5.34,3.09-9,1.93-11.13-.46-.82-1.18-1-1.86-.07-3.17,4.35-10.37,17.36-15.29,27.36-1,0-2.1-.15-3.25-.22s-1.47.22-1,1.18a5,5,0,0,0,2.63,2.35,82.61,82.61,0,0,0-3.33,7.67c-1.32,4.59-.77,6.69.39,8.24.46.67,1.08.44,1.39-.31,2.25-5,4.65-10,7.06-14.66,3.63,0,9.59-1,15.29-1.65a76.64,76.64,0,0,0-3.26,7.22c-1.54,4.58-.84,6.76.24,8.23.47.68,1,.6,1.32-.15,2.55-5.64,5.25-11,7.89-15.94a20.23,20.23,0,0,1,4.33.23C191,256.46,191.18,256.09,191.06,255.49Z"/><path class="cls-3" d="M238.65,226.48c-8.51,12.85-19.81,24.05-28.24,37.43,2.94-10.52,5.73-19.32,8.24-26.54,2-5.88,1.17-8.56-1.85-11.12-1-.83-1.79-.53-2.48.45-8.35,11.05-20.9,31.13-23.75,38.27-1.79,4.51-.93,7.06.15,8.24.54.6,1,.6,1.32-.16,4.56-10.08,13.22-23.53,20.11-33.61a185,185,0,0,0-6.65,24.71c-.78,4.7.38,7.29,2.94,9.1.62.45,1,.23,1.4-.53,5.56-10.08,14.54-21.57,23.36-32-5,9.41-10,19.92-11.14,24.35-1.32,5-.39,7.23.85,8.24.62.53.93.53,1.24-.23,3.86-10.83,11.6-26,17-35.78,2.08-3.77,2.86-7.9-.24-11C240,225.42,239.34,225.49,238.65,226.48Z"/><path class="cls-3" d="M302.26,226.32c-.92-.9-1.54-.83-2.24.23-8.51,12.86-19.81,24.06-28.23,37.43,2.94-10.52,5.72-19.32,8.23-26.54,2-5.88,1.18-8.56-1.85-11.12-1-.83-1.78-.53-2.48.45-8.36,11-20.9,31.13-23.76,38.27-1.78,4.51-.93,7.06.15,8.24.54.6,1,.6,1.32-.16,4.57-10.08,13.24-23.53,20.12-33.61a186.91,186.91,0,0,0-6.65,24.71c-.78,4.7.39,7.29,2.94,9.1.61.45,1,.23,1.39-.53,5.58-10.08,14.55-21.57,23.38-32-5,9.41-10,19.92-11.16,24.35-1.3,5-.37,7.23.86,8.24.61.53.93.53,1.18-.22,3.87-10.84,11.61-26,17-35.79C304.59,233.53,305.37,229.41,302.26,226.32Z"/><path class="cls-3" d="M367.42,243c-.15-1-.61-1.18-1.47-.3-5.26,5.26-15.55,18.5-21,27.3,1.08-8.24,2.63-12.42,4-18.2,1.08-4.59.69-7.37-1.86-9.42-.61-.52-1.23-.22-1.54.6a121.29,121.29,0,0,0-4.08,16.48,1.48,1.48,0,0,0-.72.7c-3,5.8-8.44,11.21-12.15,10.91-3.53-.3-2.64-6.54.47-13.91,6.88-4.36,15.55-13.39,17.95-22.63.93-3.53.46-6.32-1.79-8.24-1.08-1-2.16-.82-3.32.38-7.81,7.88-16.47,21.27-19.48,34.21-3.35,4.9-8.89,10.67-15.19,10.38-4.1-.23-6-5-3.53-11.89,5.42,4.29,10.59,2.36,14.39-2.17,3.25-3.84,3.87-8.43,2.49-10.23A14.59,14.59,0,0,0,316,243c-3.86-2.18-11.77,1.72-16.79,11.43s-1.62,19.09,8.24,18.94a19.76,19.76,0,0,0,14.35-7.06c.23,4.6,2.86,6.72,6.93,6.84,5,.12,9.59-3.87,11.76-6.63v.24c-.23,4,.85,5.48,3.87,6.92.78.37,1.18-.16,1.56-.76,7.42-11.42,14.47-18.64,18.34-23.38C366.73,246.48,367.65,244.59,367.42,243Zm-35.07,7.35c5.34-9.62,11.07-18,12.07-17.37s-3.33,12.64-13.93,21A24.63,24.63,0,0,1,332.35,250.3ZM316.8,246c1.08.82-.62,4.7-3.09,7.89-2.25,2.86-5.43,6.1-9.22,3.77,3.53-8.05,10.59-13,12.25-11.66Z"/><path class="cls-3" d="M379.27,242.71a4.44,4.44,0,0,0,.54-5c-1-2-3.24-3-4.49-1.66a4.56,4.56,0,0,0-.38,5.56C376.09,243.53,378.24,243.76,379.27,242.71Z"/><path class="cls-3" d="M409.6,260.76c-.38-.61-.92-.61-1.31.07-2.94,5.26-6.74,10.22-9.9,10.38-2.79.15-3.26-3.39-1.25-7.75,1.79-3.91,5.58-9.48,7.2-12.78,1.94-3.91-.46-7.59-3-8s-7.8,3.77-11.33,7.3c.86-2.71.93-5.26-.23-7.15-.46-.75-1.09-.82-1.63,0-4.7,6.77-10.45,16.77-12.21,21.7-2.35,3.53-5.38,6.39-8,6.5s-2.62-2.78-.76-7.15c1.62-3.75,4.87-8.87,6.49-12.18,1.86-3.75,1.25-7,.08-8.23-.62-.67-1.17-.45-1.86.46a91.94,91.94,0,0,0-9.9,18.27c-2.17,6.16-.7,11,5.19,11a12.65,12.65,0,0,0,8-3.26,4.9,4.9,0,0,0,1.4,2.81c.7.67,1.18.37,1.47-.31,3.32-7.06,6.73-14.28,11.3-19.09,4.95-5.27,9.41-7.38,10.21-7.06,1.4.6-5.41,8.58-8,15.94-2.24,6.54-.69,11.2,5.89,11.2,4.48,0,9.41-3.83,11.44-8.05C410,263.31,410.15,261.58,409.6,260.76Z"/><path class="cls-3" d="M117,313.19c4.79-6.69,7.17-14,4.22-21.6-3.38-8.71-9.56-10.74-16.73-10.48-9.56.38-20.1,5.68-31.76,6.81-1.83.13-2.11.9-1.4,2.28,1.4,2.65,4.07,4.8,8.86,5.31-12.25,17.31-25.46,41.05-29.12,52.54-2.11,6.83-.71,10.59,1.27,12.51,1,.88,1.68.88,2.25-.38,4.91-10.48,9.14-18.82,13.07-25.76a14.09,14.09,0,0,0,8.71,1.26C94.77,332.52,110,323,117,313.19ZM71.72,327.31c4.21-7.06,8.15-12.88,11.76-18.69,3.94-6.06,5.36-10.49,5.36-13.9,9.27-2.35,23.33-9,26.28-2,3.83,8.87-11.92,29.33-43.4,34.63Z"/><path class="cls-3" d="M196,310.29a7.07,7.07,0,0,0,1-8.46c-1.83-3.41-5.89-4.93-8.16-2.79a7.23,7.23,0,0,0-.69,9.35C190.22,311.68,194.15,312.05,196,310.29Z"/><path class="cls-3" d="M309,310.29a7.05,7.05,0,0,0,1-8.52c-1.82-3.41-5.88-4.93-8.15-2.79a7.24,7.24,0,0,0-.7,9.41C303.25,311.68,307.18,312.05,309,310.29Z"/><path class="cls-3" d="M420.77,341.11c-.29-1.27-1.55-1.27-2.36-.26a68.63,68.63,0,0,1-25.16,18.95c5.88-12.25,14.76-27.54,19-35.11,3.53-6.19,2.36-11.63.29-13.9-1-1.17-2.36-1-3.53.76l-4.65,6.95c.14-4.42-2.67-8.34-8.29-8.34-7.17,0-18.56,5.68-29.52,20.34A37.09,37.09,0,0,0,360,343.44c-5.05,7.76-11.12,14.49-16.3,14.72s-5.88-5.68-2.25-13c3.24-6.57,10.12-15.92,13.08-21.47,3.52-6.57-.84-12.76-5.49-13.39s-14.2,6.32-20.51,12.37c1.54-4.54,1.68-8.83-.43-12-.85-1.26-2-1.38-2.95,0-8.57,11.37-19,28.17-22.19,36.47-4.25,6-9.76,10.72-14.51,10.92-4.49.25-4.77-4.7-1.4-12,3-6.31,8.85-14.89,11.77-20.46,3.38-6.32,2.26-11.76.14-13.76-1.12-1.18-2.11-.77-3.36.75-5.19,6.54-14.42,21.36-18,30.59-5.14,8.23-12.11,15.36-17.75,15.14-5.88-.25-7.46-8.08-2.81-17.31,5.34-10.59,13.35-22.86,18.82-31.33a47.4,47.4,0,0,1,11-.5c2.1,0,2.67-.88,1.68-2.35s-3.24-3.92-8.72-3.79c3.38-6.57,3.38-10.73,1.84-14.27-.71-1.52-2.12-1.65-3.38,0a159.79,159.79,0,0,0-10.68,15.6,89.28,89.28,0,0,1-11.67.5c-2.11-.13-3,.77-1.54,2.53,1.11,1.39,4.35,3.28,9.13,3.28-6.05,10-11.95,20.59-14.9,26.91a29,29,0,0,0-2.22,6.66c-4.94,7.42-10.78,13.72-15.78,13.93s-5.88-5.68-2.25-13c3.24-6.57,10.12-15.92,13.07-21.47,3.53-6.57-.83-12.76-5.48-13.39s-14.2,6.31-20.51,12.37c1.54-4.54,1.68-8.83-.43-12-.85-1.26-2-1.38-2.95,0-8.57,11.37-19,28.17-22.19,36.47-4.25,6-9.78,10.72-14.51,10.92-4.49.25-4.77-4.7-1.4-12,3-6.31,8.85-14.89,11.77-20.46,3.38-6.32,2.26-11.76.14-13.76-1.12-1.18-2.11-.77-3.36.75-5.22,6.58-14.49,21.48-18,30.69-.18.46-.33.92-.49,1.37-4.81,7.27-11.17,13.57-16.1,13.8s-4.64-5.18-1.18-12.26c3.37-6.69,10.4-16.17,13.5-21.85,3.37-6.32,2.24-11.76.14-14-1-1.18-2.12-.88-3.38.75a87.43,87.43,0,0,0-5.06,7.71c.28-4.92-2.53-9.1-8.58-9.1-7,0-18.14,5.69-29.52,20.59-11.66,15.3-9,31.33,4.08,31.33,6.75,0,13.07-4.7,17.57-9.85,0,5.89,3.93,10,11.52,10.36,5.53.27,11.64-3.2,16-7.74,1,4.5,4.5,7.36,10.86,7.36a23.94,23.94,0,0,0,14.46-5.48,7.91,7.91,0,0,0,2.54,4.7c1.27,1.18,2.12.63,2.67-.5,6.05-11.88,12.24-24,20.53-32.1,9-8.83,17.15-12.37,18.55-11.87,2.53,1-9.83,14.4-14.47,26.78-4.08,11-1.27,18.82,10.68,18.82,6.44,0,13.31-4,17.79-9.18a12.54,12.54,0,0,0,11.87,8.81c7.06.23,13.25-4,17.4-8.1.76,4.92,4.3,8.1,11,8.1a23.93,23.93,0,0,0,14.46-5.49,8,8,0,0,0,2.54,4.71c1.27,1.18,2.12.62,2.69-.51,6-11.88,12.22-24,20.51-32.09,9-8.83,17.16-12.38,18.56-11.87,2.53,1-9.84,14.4-14.47,26.78C327.15,354.2,330,362,341.92,362c6.36,0,13.16-3.93,17.65-9,1.17,5.07,4.95,8.38,10.88,8.38,5.21,0,10.13-2.64,14.2-6.3-1.4,2.9-2.67,5.88-4.07,8.7-13.92,4.8-26,12.51-30.09,23.89-2.67,7.44-.14,11.87,2.82,15.66,2.53,3.28,5.34,3.67,8.15,2.65,11.39-4,21.36-24.12,29.09-41.05,11.67-3.79,21.79-8.84,27.27-16.55C420.35,345,421.05,342.24,420.77,341.11ZM119.65,357.4c-5.48-.12-3.65-11.24,3.8-22.1,7.73-11.25,18-19.46,22.49-19.07,4.07.37,2.81,8.23-6,22.1C132.73,349.44,125.41,357.53,119.65,357.4ZM356.25,399c-2.36-3,3.79-20.33,22.07-29.93-9.14,19.2-20.25,32.33-22.07,29.93Zm16-41.43c-5.62-.13-4.08-11.24,3.53-22.1s18-19.08,22.35-18.83c4.07.25,2.8,8.09-6,22-7.19,11.12-14.36,19.07-19.84,18.95Z"/><line class="cls-4" x1="143.97" y1="278.66" x2="420.77" y2="278.66"/><rect class="cls-7" x="143.97" y="277.75" width="276.8" height="1.82"/><path class="cls-3" d="M420.77,278.66"/><rect class="cls-7" x="420.14" y="277.76" width="0.69" height="1.82"/><path class="cls-3" d="M418.06,278.66"/><rect class="cls-7" x="417.26" y="277.76" width="2.65" height="1.82"/><path class="cls-3" d="M378.8,278.66"/><rect class="cls-7" x="378.8" y="277.76" width="0.26" height="1.82"/><path class="cls-3" d="M354.48,278.66"/><rect class="cls-7" x="354.48" y="277.76" width="0.27" height="1.82"/><path class="cls-3" d="M350.33,278.66"/><rect class="cls-7" x="350.33" y="277.76" width="0.25" height="1.82"/><path class="cls-3" d="M378.8,278.66"/><polygon class="cls-7" points="378.8 279.57 378.15 279.57 378.15 278.66 378.15 277.76 378.8 277.76 378.8 279.57"/><path class="cls-3" d="M412.65,278.66"/><rect class="cls-7" x="412.65" y="277.76" width="0.35" height="1.82"/><path class="cls-3" d="M389.53,278.66"/><rect class="cls-7" x="389.53" y="277.76" width="0.36" height="1.82"/><path class="cls-3" d="M397.75,278.66"/><rect class="cls-7" x="397.44" y="277.76" width="0.41" height="1.82"/><path class="cls-3" d="M410.8,278.66"/><rect class="cls-7" x="410.8" y="277.76" width="0.24" height="1.82"/><path class="cls-3" d="M383.64,278.66"/><polygon class="cls-7" points="383.64 279.57 383.56 279.57 383.56 277.76 383.64 279.57"/><path class="cls-3" d="M153.53,278.66"/><polygon class="cls-7" points="153.5 279.57 153.46 279.57 153.46 277.76 153.5 279.57"/><path class="cls-3" d="M144,278.66"/><polygon class="cls-7" points="144.12 279.57 143.97 277.76 144.12 277.76 144.12 279.57"/><path class="cls-3" d="M342.73,278.66"/><polygon class="cls-7" points="342.87 279.57 342.73 277.76 342.87 277.76 342.87 279.57"/><path class="cls-3" d="M273,278.66"/><rect class="cls-7" x="272.49" y="277.76" width="0.87" height="1.82"/><path class="cls-3" d="M412.44,278.66"/><rect class="cls-7" x="412.09" y="277.76" width="0.34" height="1.82"/><path class="cls-3" d="M272.87,278.66"/><polygon class="cls-7" points="273 279.57 272.87 277.76 273 277.76 273 279.57"/><path class="cls-3" d="M325.22,278.66"/><polygon class="cls-7" points="325.4 279.57 325.22 277.76 325.4 277.76 325.4 279.57"/><path class="cls-3" d="M338.24,278.66"/><rect class="cls-7" x="337.94" y="277.76" width="0.32" height="1.82"/><path class="cls-3" d="M318.45,278.66"/><rect class="cls-7" x="317.98" y="277.76" width="0.47" height="1.82"/><path class="cls-3" d="M311.4,278.66"/><rect class="cls-7" x="311.4" y="277.76" width="0.35" height="1.82"/><path class="cls-3" d="M174.93,278.66"/><polygon class="cls-7" points="174.93 279.57 174.29 279.57 174.29 277.76 174.6 279.52 174.29 277.76 174.93 277.76 174.93 279.57"/><path class="cls-3" d="M412.65,278.66"/><rect class="cls-7" x="412.44" y="277.76" width="0.25" height="1.82"/><path class="cls-3" d="M318.17,278.66"/><rect class="cls-7" x="317.05" y="277.76" width="1.12" height="1.82"/><path class="cls-3" d="M225.5,278.66"/><rect class="cls-7" x="225.25" y="277.76" width="0.26" height="1.82"/><path class="cls-3" d="M313.72,278.66"/><rect class="cls-7" x="312.97" y="277.76" width="0.76" height="1.82"/><path class="cls-3" d="M174.6,278.66"/><circle class="cls-7" cx="174.6" cy="278.66" r="0.91"/><path class="cls-3" d="M189.85,278.66"/><path class="cls-7" d="M416.74,279.57H148.91l.08-.66-.24-1.18h268Zm-12.05,0,.06-.66-.17-1.07Zm-60.35-1.18Zm-165,1.18Zm-.44-1.07v1.07l.1-.67Zm-30,1.07h-.38l.11-.93-.13-.45v1.38h-4.6v-1.81h4.8Z"/><path class="cls-3" d="M189.21,278.66"/><rect class="cls-7" x="189.08" y="277.76" width="0.32" height="1.82"/><path class="cls-3" d="M379.11,278.66"/><polygon class="cls-7" points="379.15 279.57 379.06 279.57 379.15 277.76 379.15 279.57"/><polygon class="cls-3" points="223.17 278.66 223.17 278.66 222.98 278.66 223.17 278.66"/><polygon class="cls-7" points="223.17 279.57 222.98 279.57 222.98 277.76 223.17 279.57"/><path class="cls-3" d="M390.64,278.66"/><polygon class="cls-7" points="390.79 279.57 390.64 277.76 390.79 277.76 390.79 279.57"/><path class="cls-3" d="M395.62,278.66"/><rect class="cls-7" x="395.62" y="277.76" width="0.71" height="1.82"/><path class="cls-3" d="M399.41,278.66"/><polygon class="cls-7" points="399.53 279.57 399.46 277.76 399.53 277.76 399.53 279.57"/><path class="cls-3" d="M338.53,278.66"/><rect class="cls-7" x="338.21" y="277.76" width="0.32" height="1.82"/><path class="cls-3" d="M356.66,278.66"/><rect class="cls-7" x="356.08" y="277.76" width="0.58" height="1.82"/><path class="cls-3" d="M318.24,278.66"/><polygon class="cls-7" points="318.28 279.57 318.17 279.57 318.17 277.76 318.28 279.57"/><path class="cls-3" d="M355.24,278.66"/><rect class="cls-7" x="355.24" y="277.76" width="0.85" height="1.82"/><path class="cls-3" d="M416.06,278.66"/><polygon class="cls-7" points="416.27 279.57 416.06 277.76 416.27 277.76 416.27 279.57"/><path class="cls-3" d="M416.27,278.66"/><polygon class="cls-7" points="416.47 279.57 416.27 277.76 416.47 277.76 416.47 279.57"/><path class="cls-3" d="M416.91,278.66"/><rect class="cls-7" x="416.47" y="277.76" width="0.44" height="1.82"/><path class="cls-3" d="M411,278.66"/><polygon class="cls-7" points="410.99 279.57 410.93 279.57 410.93 277.76 410.99 279.57"/><path class="cls-3" d="M409.45,278.66"/><rect class="cls-7" x="409.45" y="277.76" width="1.48" height="1.82"/><path class="cls-3" d="M403,278.66"/><rect class="cls-7" x="403.01" y="277.76" width="1.35" height="1.82"/><path class="cls-3" d="M399,278.66"/><polygon class="cls-7" points="399.32 279.57 398.66 279.57 398.66 277.76 399.32 277.76 399.17 278.66 399.32 279.57"/><path class="cls-3" d="M370.07,278.66"/><rect class="cls-7" x="369.89" y="277.76" width="0.25" height="1.82"/><polygon class="cls-3" points="364.53 278.66 365.06 278.66 365.31 278.66 364.53 278.66"/><rect class="cls-7" x="364.53" y="277.76" width="0.76" height="1.82"/><polygon class="cls-3" points="361.26 278.66 361.5 278.66 360.6 278.66 361.26 278.66"/><rect class="cls-7" x="360.6" y="277.76" width="0.89" height="1.82"/><path class="cls-3" d="M312.66,278.66"/><rect class="cls-7" x="312.66" y="277.76" width="0.45" height="1.82"/><path class="cls-3" d="M291.67,278.66"/><rect class="cls-7" x="290.48" y="277.76" width="1.19" height="1.82"/><polygon class="cls-3" points="228.73 278.66 229.15 278.66 228.35 278.66 228.73 278.66"/><rect class="cls-7" x="228.35" y="277.76" width="0.8" height="1.82"/><path class="cls-8" d="M59.74,367a6.31,6.31,0,0,1,4.71,1.8,3.09,3.09,0,0,1,1,1.8.81.81,0,0,1-.77.81,5.13,5.13,0,0,0-4.85-3.28c-3.53,0-6,3.14-6,7.84s2.35,7.79,6.1,7.79A4.71,4.71,0,0,0,64.66,380a.77.77,0,0,1,.87.65h0a.21.21,0,0,1,0,.11,3.67,3.67,0,0,1-.91,2,6,6,0,0,1-4.84,2.07c-4.52,0-7.43-3.69-7.43-8.92S55.3,367,59.74,367Z"/><path class="cls-8" d="M73.22,371.63c3.39,0,5.68,2.66,5.68,6.67s-2.36,6.54-5.68,6.54-5.7-2.69-5.7-6.6S69.8,371.63,73.22,371.63Zm0,1.07c-2.63,0-4.4,2.13-4.4,5.54s1.76,5.52,4.39,5.52,4.31-2.1,4.31-5.48-1.65-5.58-4.28-5.58Z"/><path class="cls-8" d="M98.73,376.84v7.28c0,.43-.21.59-.54.59H98c-.32,0-.54-.16-.54-.59v-7.21c0-2.8-1.1-4.09-3-4.09a3.78,3.78,0,0,0-3.52,2.93v8.37a.52.52,0,0,1-.41.59h-.36c-.34,0-.53-.16-.53-.59v-7.4c0-2.61-1.08-3.9-3-3.9a4,4,0,0,0-3.53,2.88v8.42c0,.43-.22.59-.54.59h-.21c-.33,0-.54-.16-.54-.59v-12.2c0-.06.23-.14.45-.14.53,0,.78.44.78,1.18v1.4a4.11,4.11,0,0,1,3.82-2.72,3.67,3.67,0,0,1,3.77,2.8,4.34,4.34,0,0,1,4-2.8C97.18,371.63,98.73,373.35,98.73,376.84Z"/><path class="cls-8" d="M119.32,376.84v7.28c0,.43-.21.59-.54.59h-.21c-.32,0-.55-.16-.55-.59v-7.21c0-2.8-1.1-4.09-3-4.09a3.82,3.82,0,0,0-3.53,2.93v8.37c0,.43-.21.59-.56.59h-.19c-.34,0-.53-.16-.53-.59v-7.4c0-2.61-1.08-3.9-3-3.9a4,4,0,0,0-3.53,2.88v8.42c0,.43-.21.59-.53.59h-.18c-.32,0-.53-.16-.53-.59v-12.2c0-.06.24-.14.45-.14.54,0,.79.44.79,1.18v1.4a4.1,4.1,0,0,1,3.82-2.72,3.67,3.67,0,0,1,3.77,2.8,4.34,4.34,0,0,1,4-2.8C117.75,371.63,119.32,373.35,119.32,376.84Z"/><path class="cls-8" d="M123.73,367a.86.86,0,0,1,.94.74.67.67,0,0,1,0,.2.88.88,0,0,1-.81.93h-.15a.93.93,0,0,1-.93-.93h0a1,1,0,0,1,.93-.93Zm-.65,5.43c0-.48.22-.62.57-.62h.16c.32,0,.57.14.57.62v11.65c0,.48-.25.63-.57.63h-.16c-.35,0-.57-.15-.57-.63Z"/><path class="cls-8" d="M128.82,381.23V373h-1.45c-.38,0-.49-.16-.49-.46v-.17c0-.3.11-.48.49-.48h1.45v-2.53c0-.49.24-.63.57-.63h.13c.33,0,.56.14.56.63v2.53h3.1c.35,0,.54.18.54.48v.14c0,.32-.19.48-.54.48H130v8.24c0,1.8.62,2.53,1.78,2.53a2.18,2.18,0,0,0,1.77-.92.54.54,0,0,1,.44.61,1.17,1.17,0,0,1-.6.95,2.32,2.32,0,0,1-1.66.51C130,384.86,128.82,383.86,128.82,381.23Z"/><path class="cls-8" d="M136.73,381.23V373h-1.46c-.37,0-.48-.16-.48-.46v-.17c0-.3.11-.48.48-.48h1.46v-2.53c0-.49.24-.63.57-.63h.12c.33,0,.57.14.57.63v2.53h3.09c.36,0,.54.18.54.48v.14q0,.48-.54.48H138v8.24c0,1.8.62,2.53,1.78,2.53a2.19,2.19,0,0,0,1.77-.92.56.56,0,0,1,.44.61,1.17,1.17,0,0,1-.6.95,2.32,2.32,0,0,1-1.66.51C138,384.86,136.73,383.86,136.73,381.23Z"/><path class="cls-8" d="M148.82,371.63c3.22,0,5.15,2.41,5.15,6.13v.16c0,.38-.19.48-.57.48h-8.8v.32c0,3.16,1.78,5,4.33,5a3.72,3.72,0,0,0,3.8-2.61.83.83,0,0,1,.81.78,2.32,2.32,0,0,1-.67,1.35,5,5,0,0,1-3.9,1.59c-3.45,0-5.69-2.51-5.69-6.54S145.5,371.63,148.82,371.63Zm0,1.07c-2.28,0-3.87,1.75-4.16,4.62h8C152.55,374.56,151.18,372.7,148.82,372.7Z"/><path class="cls-8" d="M155.88,378.24c0-3.87,2.18-6.59,5.22-6.59a4.45,4.45,0,0,1,4.28,2.74v-7.91c0-.09.21-.17.46-.17.48,0,.81.27.81,1.18v16.63c0,.46-.25.57-.5.57h-.21c-.27,0-.48-.14-.5-.57v-2.23a4.37,4.37,0,0,1-4.31,3C158,384.84,155.88,382.15,155.88,378.24Zm9.5-2.05c-.63-2.07-2-3.44-4.06-3.44-2.35,0-4.12,2.18-4.12,5.44s1.72,5.57,4.14,5.57,4-2,4-4.58Z"/><path class="cls-8" d="M174.88,381.23V373h-1.46c-.37,0-.48-.16-.48-.46v-.17c0-.3.11-.48.48-.48h1.46v-2.53c0-.49.25-.63.57-.63h.13c.33,0,.56.14.56.63v2.53h3.11a.48.48,0,0,1,.53.41v.21c0,.32-.19.48-.53.48h-3.11v8.24c0,1.8.63,2.53,1.78,2.53a2.13,2.13,0,0,0,1.78-.92.62.62,0,0,1,.43.61,1.14,1.14,0,0,1-.59.95,2.44,2.44,0,0,1-1.67.51C176.12,384.86,174.88,383.86,174.88,381.23Z"/><path class="cls-8" d="M187.1,371.63c3.4,0,5.68,2.66,5.68,6.67s-2.36,6.54-5.68,6.54-5.71-2.69-5.71-6.6S183.68,371.63,187.1,371.63Zm0,1.07c-2.65,0-4.39,2.13-4.39,5.54s1.74,5.52,4.39,5.52,4.3-2.1,4.3-5.48-1.69-5.58-4.27-5.58Z"/><path class="cls-8" d="M200.18,383.79V368a.74.74,0,0,1,.67-.8h8.94c.42,0,.67.17.67.52v.19c0,.34-.25.5-.67.5h-8.24v6.68h6.23c.42,0,.64.16.64.51v.11c0,.38-.24.56-.64.56h-6.23v7.13H210c.41,0,.65.17.65.49v.18c0,.36-.24.54-.65.54h-9.09a.7.7,0,0,1-.73-.7h0Z"/><path class="cls-8" d="M215.75,378.24l-4-5.88c-.06-.07.21-.51.7-.51s.59.21.83.61l3.32,5,3.28-4.93c.32-.5.54-.67.86-.67s.75.44.7.51l-4.09,5.88,4.09,5.88a.7.7,0,0,1-.7.48c-.46,0-.57-.18-.84-.62l-3.36-5-3.31,5c-.27.42-.48.64-.86.64s-.75-.41-.7-.48Z"/><path class="cls-8" d="M228.57,371.63a4.71,4.71,0,0,1,3.82,1.66,2.74,2.74,0,0,1,.72,1.59.67.67,0,0,1-.67.67h-.19a3.7,3.7,0,0,0-3.71-2.8c-2.59,0-4.3,2.21-4.3,5.49s1.77,5.52,4.3,5.52a3.71,3.71,0,0,0,3.71-2.93.69.69,0,0,1,.83.51h0a.48.48,0,0,1,0,.17,3.07,3.07,0,0,1-.8,1.76,4.68,4.68,0,0,1-3.8,1.58c-3.43,0-5.62-2.75-5.62-6.6S225.14,371.63,228.57,371.63Z"/><path class="cls-8" d="M240.59,371.63c3.2,0,5.14,2.41,5.14,6.13v.16c0,.38-.19.48-.56.48h-8.8v.32c0,3.16,1.76,5,4.32,5a3.69,3.69,0,0,0,3.79-2.61.82.82,0,0,1,.81.78,2.26,2.26,0,0,1-.67,1.35,5,5,0,0,1-3.9,1.59c-3.45,0-5.67-2.51-5.67-6.54S237.26,371.63,240.59,371.63Zm0,1.07c-2.35,0-3.88,1.75-4.18,4.62h8C244.31,374.56,242.94,372.7,240.59,372.7Z"/><path class="cls-8" d="M248.59,384.05V366.48c0-.09.19-.17.45-.17.43,0,.81.27.81,1.18V384c0,.46-.21.62-.57.62h-.13C248.82,384.68,248.59,384.51,248.59,384.05Z"/><path class="cls-8" d="M253.86,384.05V366.48c0-.09.19-.17.46-.17s.8.27.8,1.18V384c0,.46-.21.62-.57.62h-.13C254.07,384.68,253.86,384.51,253.86,384.05Z"/><path class="cls-8" d="M263.66,371.63c3.2,0,5.13,2.41,5.13,6.13v.16c0,.38-.19.48-.55.48h-8.83v.32c.06,3.16,1.78,5,4.34,5a3.69,3.69,0,0,0,3.79-2.61.83.83,0,0,1,.81.78,2.32,2.32,0,0,1-.67,1.35,5,5,0,0,1-3.9,1.59c-3.45,0-5.69-2.51-5.69-6.54S260.37,371.63,263.66,371.63Zm0,1.07c-2.29,0-3.88,1.75-4.18,4.62h8C267.42,374.56,266.05,372.7,263.66,372.7Z"/><path class="cls-8" d="M281.25,376.9v7.15c0,.48-.24.63-.57.63h-.09c-.35,0-.57-.15-.57-.63v-7.13c0-2.8-1.17-4.14-3.25-4.14a4.11,4.11,0,0,0-3.85,2.85v8.42c0,.48-.23.63-.57.63h-.14c-.34,0-.59-.15-.59-.63V371.92c0-.06.25-.14.46-.14.57,0,.78.46.78,1.27v1.3a4.27,4.27,0,0,1,4.12-2.72C279.64,371.63,281.25,373.43,281.25,376.9Z"/><path class="cls-8" d="M289.65,371.63a4.71,4.71,0,0,1,3.82,1.66,2.7,2.7,0,0,1,.73,1.59.7.7,0,0,1-.69.68h-.18a3.69,3.69,0,0,0-3.71-2.8c-2.58,0-4.3,2.21-4.3,5.49s1.77,5.52,4.3,5.52a3.71,3.71,0,0,0,3.71-2.93.72.72,0,0,1,.85.53.43.43,0,0,1,0,.16,3.22,3.22,0,0,1-.81,1.76,4.74,4.74,0,0,1-3.8,1.59c-3.45,0-5.63-2.76-5.63-6.6S286.22,371.63,289.65,371.63Z"/><path class="cls-8" d="M301.62,371.63c3.2,0,5.15,2.41,5.15,6.13v.16c0,.38-.19.48-.57.48h-8.8v.32c0,3.16,1.78,5,4.33,5a3.69,3.69,0,0,0,3.79-2.61.83.83,0,0,1,.81.78,2.32,2.32,0,0,1-.67,1.35,5,5,0,0,1-3.91,1.59c-3.44,0-5.67-2.51-5.67-6.54S298.34,371.63,301.62,371.63Zm0,1.07c-2.29,0-3.88,1.75-4.17,4.62h8C305.39,374.56,304,372.7,301.62,372.7Z"/></svg>