<svg id="Layer_1" data-name="Layer 1" xmlns="http://www.w3.org/2000/svg" viewBox="0 0 291.03 400.05"><defs><style>.cls-1{fill:#1a1a1a;fill-rule:evenodd;}</style></defs><title>icon-location</title><path class="cls-1" d="M280.3,225.8h0L188.5,384.9l-.6.3a36,36,0,0,1-33.6,22.3,36.66,36.66,0,0,1-33.6-22.3l-.6-.3-92-159.1C-12,156.3,11.9,67.4,81.4,26.9c69.5-40.1,158.8-16.2,198.8,53.3C307.1,126.8,305.2,182.1,280.3,225.8ZM154.2,98.4A54.6,54.6,0,1,0,208.8,153,54.73,54.73,0,0,0,154.2,98.4Z" transform="translate(-8.65 -7.45)"/></svg>