<svg id="Layer_1" data-name="Layer 1" xmlns="http://www.w3.org/2000/svg" viewBox="0 0 90 89.6"><defs><style>.cls-1{fill:#1a1a1a;fill-rule:evenodd;}</style></defs><title>icon-chrome</title><path class="cls-1" d="M52,64.7a23.2,23.2,0,0,0-11.3,2.9A22.74,22.74,0,0,0,30.6,80.2L17.8,57.9c.1-.2.3-.3.4-.5.6-.7,1.3-1.4,1.9-2a12,12,0,0,1,1.2-1.1,14.62,14.62,0,0,1,1.9-1.6l1.5-1.2c.6-.4,1.2-.9,1.8-1.3s1.3-.8,1.9-1.2c.4-.2.7-.5,1.1-.7a2.51,2.51,0,0,0,.7-.4,12.44,12.44,0,0,1,2-1c.7-.3,1.3-.7,2-1,.5-.2,1.1-.4,1.6-.6.8-.3,1.7-.6,2.5-.9.2-.1.5-.1.7-.2a43.85,43.85,0,0,1,10-1.8c.5,0,1-.1,1.5-.1h2a19.27,19.27,0,0,1,2.4.1,7.72,7.72,0,0,1,1.5.2l2.8.3,1.3.3,2.8.6c.5.1,1,.3,1.4.4.9.3,1.7.5,2.6.8.6.2,1.2.5,1.8.7l2.1.9a21.16,21.16,0,0,1,2.1,1.1l1.2.6c.1.1.2.1.3.2a46.3,46.3,0,0,1,4.6,3.1c.1.1.2.2.3.2a40.21,40.21,0,0,1,3.8,3.4l.8.8c1.1,1.2,2.2,2.4,3.2,3.7a1.76,1.76,0,0,0,.4.5A46.3,46.3,0,0,1,91,64.8l-39-.1ZM32.5,98.4a22.55,22.55,0,0,0,24.2,10.7L43.8,131.4a46.86,46.86,0,0,1-9.5-2.8,11.73,11.73,0,0,1-1.1-.5.35.35,0,0,1-.2-.1l-2.4-1.2c-.4-.2-.7-.4-1.1-.6-.1-.1-.3-.2-.4-.3-.8-.5-1.7-1-2.5-1.6-.4-.3-.9-.6-1.3-.9-.7-.5-1.4-1.1-2.1-1.7-.5-.4-.9-.8-1.4-1.2s-1.1-1.1-1.6-1.6l-1.6-1.6a17.41,17.41,0,0,1-1.2-1.4c-.6-.7-1.2-1.4-1.7-2.1-.3-.4-.6-.9-.9-1.3a21.28,21.28,0,0,1-1.6-2.5c-.1-.1-.2-.3-.3-.4-.2-.4-.4-.7-.6-1.1l-1.2-2.4a15.39,15.39,0,0,1-.8-1.9c-.3-.7-.6-1.4-.8-2a20.16,20.16,0,0,1-.7-2.3,12.09,12.09,0,0,1-.5-1.8,22.11,22.11,0,0,1-.5-2.5l-.3-1.8c-.1-.8-.2-1.6-.3-2.5a13.4,13.4,0,0,1-.1-2V84.9c0-.7.1-1.3.1-2s.2-1.6.3-2.5l.3-1.8c.2-.8.3-1.6.5-2.4.2-.6.3-1.2.5-1.8.2-.8.5-1.6.7-2.3a11.92,11.92,0,0,1,.8-2c.3-.6.5-1.3.8-1.9l1.2-2.4c.2-.4.4-.7.6-1.1h0Zm27,1.7A15,15,0,1,1,65,79.6,15,15,0,0,1,59.5,100.1Zm11.9-1.8a22.34,22.34,0,0,0,.1-22.5A26,26,0,0,0,68.8,72H94.4a49.31,49.31,0,0,1,2.5,11.1,1.7,1.7,0,0,0,.1.7c.1,1.4.1,2.8.1,4.2v1.1c-.1,1.4-.2,2.8-.4,4.1,0,.3-.1.6-.1.9-.3,1.6-.6,3.2-1,4.7a8.8,8.8,0,0,1-.5,1.5c-.4,1.1-.7,2.2-1.2,3.3-.2.5-.4,1-.7,1.6a35.92,35.92,0,0,1-1.7,3.4,3,3,0,0,1-.4.8c-.1.1-.2.2-.2.3a42.78,42.78,0,0,1-7,9l-.6.6-.2.2a30.92,30.92,0,0,1-3.9,3.3.1.1,0,0,0-.1.1,35.2,35.2,0,0,1-4.5,3,44.34,44.34,0,0,1-5.4,2.6c-.1,0-.2.1-.3.1s-.1,0-.2.1a45.76,45.76,0,0,1-16.6,3.2L71.4,98.3Z" transform="translate(-7.1 -42.3)"/></svg>